<?xml version="1.0" encoding="utf-8"?>
<!-- Generator: Adobe Adobe Illustrator 24.2.0, SVG Export Plug-In . SVG Version: 6.00 Build 0)  -->
<svg version="1.1" xmlns="http://www.w3.org/2000/svg" xmlns:xlink="http://www.w3.org/1999/xlink" x="0px" y="0px" width="2400px"
	 height="3066.4px" viewBox="0 0 2400 3066.4" style="enable-background:new 0 0 2400 3066.4;" xml:space="preserve">
<style type="text/css">
	.st0{fill:#FFF9F4;stroke:#A0323F;stroke-miterlimit:10;}
	.st1{fill:#A0323F;fill-opacity:0;}
	.st2{fill:#A0323F;}
	.st3{fill:#A0323F;stroke:#FFF9F4;stroke-miterlimit:10;}
	.st4{stroke:#000000;stroke-miterlimit:10;}
</style>
<g id="Layer_2">
	<path class="st0" d="M615.6,146.9c0,0-35.5,145.8-109,165c-27.4,7.1,86.2,83.5,86.2,83.5l72.9,15.8l-29.6,181.2l-57.3,223.2
		l-21.6,267.8l19.9,241.8l49.3,159.6l118.2,135.9l128.1,69l210.8,43.3l264-3.9l254.1-49.3l163.5-78.8l134-72.9l94.6-90.6l65-78.8
		l15.8-47.3l-15.8-41.4l-44.9-38.7l-14.2-18.4l17.7-39.4l-43.3-31.5l-106.4-29.6l-80.8-15.8l-106.6-45.9l-104.4-41.1l-102-22.8
		l-94.1-14.9l-130.7-11.7c0,0-139.5,42.7-170.9,24c-15.8-9.4-10.1-88.9-10.1-88.9l-4.1-43V724.4l-5.9-130l-3.9-92.6l3.9-118.2
		l-13.8-82.7l-19.7-96.5l-43.3-72.9l-63-51.2l-98.6-26.3C819.3,53.9,731.9,48.9,615.6,146.9z"/>
</g>
<g id="Layer_3">
	<path class="st0" d="M1481.3,1983.3l-21.7-45.3l-104.4-55.2l-5.9-143.8l-124.6-6.9c1.9,0.9,3.7,2.3,5.2,4.2
		c6.7,8.9,11.8,19.2,14.9,30c1.9,2.4,3,5.4,3,8.7c0,0.1,0,0.2,0,0.2c0.5,1.1,1,2.1,1.4,3.2c7.4,17.3,14,35.3,17.9,53.7
		c1.7,7.9-2.3,16.2-10.5,18.4c-1.9,0.5-3.7,0.6-5.4,0.5c0,0,0,0,0,0c-0.6,5.4-2.4,10-7.4,12.9c-4.5,2.6-10.6,2.8-15.1,0
		c-7.6-4.7-15.1-9.6-22.5-14.5c-1.6-0.1-3.1-0.3-4.7-0.5c-0.4,0.5-0.9,0.9-1.4,1.3c-5.4,4.3-13.6,3.8-18.6-1.1
		c-4.7-4.7-8.9-10-13.6-14.7c-3.1-3.1-4.5-7.4-4.1-11.6c-1.6-2-3.4-3.9-5.4-5.9c-5-5.1-5.1-11.9-2.4-17.3c-0.3-1.1-0.6-2.2-0.9-3.4
		c-3.2-14.6-1.2-32.6,10.9-42.7c6.8-5.7,16-8.8,25.2-9.3c1.3-5,3.6-9.7,7-13.6l-132.8-7.4v114.3l-49.3,3.9l-69,29.6l-57.3,47.4
		L979,1936l98.5,2l41.4-9.9l-61.1,55.2H1481.3z"/>
</g>
<g id="Layer_1">
	<g>
		<g transform="translate(123.2676010131836,65.03242111207831)">
			<g transform="translate(11.3323974609375,0)">
				<g>
					<rect x="174.2" y="-11.5" class="st1" width="1782.4" height="1935.1"/>
					<g>
						<path class="st2" d="M744.2,186c-25,0-45.2,20.2-45.2,45.2c0,25,20.2,45.2,45.2,45.2c25,0,45.2-20.2,45.2-45.2
							C789.4,206.3,769.2,186,744.2,186z"/>
						<path class="st2" d="M1923,1183.8c-12.9-7.5-27.2-13.3-43.9-17.4c8.3-8.6,15.2-18.5,20.8-29.8c6.5-13,7.5-27.8,2.7-41.7
							c-4.7-13.9-14.6-25.1-27.7-31.5c-82.8-40.3-184.2-63.1-318.6-71.7c-40.3-22.3-88.7-41.7-147.5-55.1
							c-198.4-45.5-355.7-45.2-431.9-40.9c-11.5,0.7-22.6-3.4-31-11.4c-8.4-8-13-18.9-12.9-30.6l5-527c0-3.3,1.9-330.1-213.3-337.7
							c-231.5-8.4-268,131.2-273.4,164.9c-12.5,9.8-31.4,20.8-67.8,29.3c-30.6,7.2-62.1,9.2-89.8,11c-57.9,3.7-112.6,7.3-119.1,61.5
							c-1.3,10.7,1,26.6,19.5,41.7c50.4,41.1,212,58.3,315,63.8c-27.3,128.6-171.6,851.5-17.2,1076.1
							c123.1,179.1,270.3,222.6,428.3,236.6v84.1c-75.6,8-139.8,40.3-191,95.9c-4.1,4.5-5.2,11-2.8,16.6s8,9.2,14.1,9.2h189.3
							c-6.3,5.8-12.4,11.8-18.3,18.2c-4.1,4.5-5.2,11-2.8,16.6c2.4,5.6,8,9.2,14.1,9.2h442.1c6,0,11.5-3.5,14-9
							c2.5-5.5,1.6-11.9-2.4-16.4c-43.5-50-90.6-80.4-143.6-92.8v-130c234-30.4,581.3-152.2,716-402.4
							C1965.7,1241.4,1954.4,1202.2,1923,1183.8z M492.1,242.3c-11.8,11.3-28.4,16.9-50.3,16.9c-7,0-14.5-0.6-22.6-1.7
							c-8.4-1.2-14.3-8.9-13.1-17.3c1.2-8.4,8.9-14.3,17.3-13.1c23.2,3.3,39.2,0.9,47.4-7c6.2-5.9,15.9-5.6,21.7,0.5
							C498.5,226.7,498.3,236.5,492.1,242.3z M778.7,1848.9c44.1-36.9,97.1-57.5,157.8-61.5c8.1-0.5,14.4-7.2,14.4-15.3v-95.8
							c22.8,1.5,45.7,2.6,68.9,3.5v94.2c0,7.4,5.4,13.8,12.7,15.1c17.4,3.1,33.9,8.5,49.9,15.9c-41.5,7-79.4,21.7-113.3,43.9
							L778.7,1848.9L778.7,1848.9z M1050.5,1761.4v-80.5l51.9,2v97.7C1085.7,1772.1,1068.3,1765.6,1050.5,1761.4z M1328.7,1892.9
							H960.9c44.2-36.9,97.1-57.5,157.8-61.5c8.1-0.5,14.4-7.2,14.4-15.3v-133c21.1-0.3,44.2-1.7,68.9-4.1v139
							c0,7.4,5.4,13.8,12.7,15.1C1256,1840.4,1293.6,1860,1328.7,1892.9z M1921.6,1258.4c-157.1,291.9-618.2,402-819.2,393.7
							c-15.6-0.6-31-1.2-46.3-1.8c-209.4-7.6-390.2-14.1-539-230.5c-147.5-214.6,0.2-949.3,23-1057.3l55.9,0.1l0,0.1
							c39-5.7,62.3-31.5,62.3-69c0-44.6-39.2-67.5-65.9-75.4c-9.3-23.8-38.3-87.8-81.3-92.2c-8.3-0.9-15.1-0.2-21.1,1.4
							c18.1-44.1,72.2-113.1,233.5-107.9c185.2,6.5,183.7,303.6,183.6,306.6l-5,527.1c-0.2,20,8,39.3,22.4,53.1
							c14.6,13.9,33.7,21.3,53.9,19.9c74.5-4.1,228.6-4.5,423.3,40.2c57.3,13.1,104.1,32.1,142.6,53.9c0.1,0,0.2,0.1,0.3,0.2
							c72.6,41.1,115.1,92.5,139.6,135.1c42,73.2,43.4,142.2,31.8,179c-21.8,69.3-97.6,153.9-502.7,88.3
							c-346.8-56.2-375.6-276.9-376.6-286.3c-0.9-8.4-8.3-14.5-16.9-13.6c-8.4,0.9-14.5,8.5-13.6,16.9
							c0.3,2.5,31.3,253.1,402.2,313.3c97.6,15.8,181.2,23.8,251.7,23.8c165,0,257.2-43.8,285.3-133.2
							c14.1-44.8,12.4-121.8-34.5-203.5c-20.2-35.3-51.7-76.1-100.1-113.2c102.6,10.6,183.4,31.2,250.6,63.9
							c5.7,2.8,10,7.7,12.1,13.8c2.1,6.1,1.7,12.5-1.1,18.1c-8.7,17.4-21.2,30.2-38.1,38.9c-6,3.1-9.3,9.8-8,16.4
							s6.7,11.7,13.4,12.5c28.8,3.2,50.4,9.4,67.8,19.6C1924.2,1220.1,1930.6,1241.7,1921.6,1258.4z"/>
					</g>
				</g>
			</g>
			<g transform="translate(0,83.86795806884766)">
				<g>
					<g transform="scale(0.5199999999999996)">
						<g>
							<path class="st2" d="M533.2,4611.6L533.2,4611.6c16.4,18.5,24.7,40.8,24.7,67c0,26.3-10.9,58.6-32.7,96.7l0,0
								c-27.4,65.5-51.4,146.8-72,243.9c-20.8,97-41.3,174.7-61.4,233.1c-20.1,58.2-42,108.2-65.5,149.8
								c-23.5,41.5-55.4,75.8-95.7,103c-40.4,27.4-86.9,41-139.2,41l0,0c-73,0-138.5-24.1-196.4-72.3c-57.9-47.8-86.9-89-86.9-123.4
								s9.3-65.5,27.9-93.4c18.6-27.7,35.8-41.5,51.6-41.5s31,8.7,45.8,26.2c14.8,17.5,28.4,36.3,40.8,56.4
								c12.6,20.1,29.2,38.9,49.8,56.4c20.8,17.5,43.7,26.2,68.7,26.2c25.2,0,48.1-16.4,68.7-49.1c20.8-32.7,36.7-68.2,47.6-106.5
								l0,0c27.2-89.5,44.1-153.2,50.9-191.3l0,0c-74.2,45.8-134.5,68.7-181,68.7c-46.3,0-91.3-25.3-134.9-76
								c-43.6-50.9-65.5-98.9-65.5-144c0-45.3,12.3-102,36.8-170.2c24.7-68.3,56.3-136.5,94.9-204.7
								c38.8-68.1,87.9-126.7,147.3-175.7c59.6-49.2,119.3-73.8,179.2-73.8l0,0c40.4,0,74.9,10.1,103.2,30.2
								c28.4,20.1,49.1,47.2,62.2,81.1l0,0c22.8,58.9,34.2,125.5,34.2,199.6l0,0C536.5,4579.9,535.4,4594.1,533.2,4611.6z
								 M79.8,4875.2L79.8,4875.2c0,14.1,6,21.1,18.1,21.1l0,0c31.6,0,82.8-29,153.8-86.9c71-57.7,118.5-115,142.5-171.7l0,0v-31.2
								c0-70.8-6.5-113.9-19.6-129.1l0,0c-6.5-7.7-15.3-11.6-26.2-11.6l0,0c-52.4,0-110.2,55.1-173.5,165.4
								C111.5,4741.3,79.8,4822.6,79.8,4875.2z M828.3,3868.7L828.3,3868.7c0-45.8,18-68.7,53.9-68.7l0,0
								c29.4,0,63.2,24.6,101.5,73.8c38.3,49,57.4,91,57.4,125.9c0,34.9-7.1,84-21.4,147.3c-14.1,63.3-28.5,121.1-43.3,173.5
								c-14.8,52.4-36.8,126.8-66.2,223.3c-29.5,96.5-49.8,163.9-60.7,202.2l0,0c71-144,146-261.3,225.1-351.9
								c79-90.5,145.3-135.7,198.9-135.7l0,0c33.7,0,72.4,29.7,116.1,89.1c43.6,59.6,65.5,113,65.5,160.4
								c0,47.5-8.7,116.5-26.2,206.9c-17.5,90.6-48,177.9-91.6,261.8c-43.6,84.1-88.4,126.1-134.2,126.1l0,0
								c-35.9,0-53.9-25.6-53.9-76.8l0,0c0-37.1,10.8-97.7,32.5-181.8l0,0c31.7-125.5,47.6-201.9,47.6-229.1c0-27.4-4.4-41-13.1-41
								l0,0c-63.3,0-156,105.3-278.2,315.9l0,0c-41.5,72-76.1,125.5-104,160.4c-27.7,34.9-54.1,52.4-79.3,52.4s-55.5-20.2-90.9-60.7
								c-35.4-40.3-53.1-71.6-53.1-93.9c0-22.5,4.6-55.6,13.8-99.2c9.4-43.6,23.6-105.8,42.5-186.5c19.1-80.6,50.8-227,94.9-439.3
								C806.1,4010.7,828.3,3892.7,828.3,3868.7z M1725.2,4935.6c58.9-26.2,110.2-79,153.8-158.6c43.6-79.7,65.5-154.5,65.5-224.3
								c0-69.8-9.8-117.8-29.5-144l0,0c-47,27.4-93.6,84.6-140,171.7c-46.3,87.3-69.5,164-69.5,230.1
								C1705.6,4876.4,1712.2,4918.1,1725.2,4935.6L1725.2,4935.6z M1486.3,4827.6c0-136.3,42.3-265.6,126.9-387.9
								c84.4-122,168.1-183,251-183c82.9,0,152.8,29.1,209.7,87.4c56.7,58.4,85.1,128.8,85.1,211.2c0,82.2-19.7,166-59.2,251.2
								c-39.3,84.9-94.3,155.5-165.1,211.7s-146.6,84.3-227.3,84.3l0,0c-60.1,0-111.9-26.8-155.6-80.3
								C1508.2,4968.8,1486.3,4903.9,1486.3,4827.6L1486.3,4827.6z M2421.1,4935.6c58.9-26.2,110.2-79,153.8-158.6
								c43.6-79.7,65.5-154.5,65.5-224.3c0-69.8-9.8-117.8-29.5-144l0,0c-47,27.4-93.6,84.6-140,171.7
								c-46.3,87.3-69.5,164-69.5,230.1C2401.4,4876.4,2408,4918.1,2421.1,4935.6L2421.1,4935.6z M2182.2,4827.6
								c0-136.3,42.3-265.6,126.9-387.9c84.6-122,168.3-183,251-183c82.9,0,152.8,29.1,209.7,87.4c56.7,58.4,85.1,128.8,85.1,211.2
								c0,82.2-19.7,166-59.2,251.2c-39.1,84.9-94.2,155.5-165.1,211.7c-70.8,56.2-146.6,84.3-227.3,84.3l0,0
								c-60.1,0-111.9-26.8-155.6-80.3C2204,4968.8,2182.2,4903.9,2182.2,4827.6L2182.2,4827.6z M3408.2,4259.6L3408.2,4259.6
								c41.5,0,82.4,24.6,122.9,73.8c40.3,49,60.4,93.1,60.4,132.4l0,0c0,26.2-11.5,39.3-34.5,39.3l0,0c-13.1,0-32.1-5.1-57.1-15.4
								c-25-10.4-50.3-15.6-76-15.6s-63.4,8.7-113,26.2c-49.5,17.5-74.3,40.4-74.3,68.7l0,0c0,10.9,14.7,26.7,44.1,47.3
								c29.5,20.8,61.7,42.1,96.4,63.9c34.9,21.8,67.1,52.1,96.7,90.9c29.4,38.8,44.1,80.7,44.1,125.9c0,45.3-33,90.9-98.9,136.7
								c-66,45.8-143.4,68.7-232.4,68.7s-165-20.2-228.1-60.7c-63.3-40.3-94.9-81.7-94.9-124.4c0-42.5,17.5-63.7,52.4-63.7l0,0
								c14.1,0,31,5.5,50.6,16.4l0,0c54.5,31.6,122.4,47.3,203.7,47.3c81.2,0,121.8-10.9,121.8-32.7c0-21.7-15.5-45.9-46.6-72.8
								c-31-26.7-64.9-51.5-101.5-74.5c-36.6-22.8-70.4-50.9-101.5-84.1c-31-33.4-46.6-65.9-46.6-97.4l0,0
								c0-58.9,53.5-123,160.4-192.3C3263.1,4294.3,3347.1,4259.6,3408.2,4259.6z M4333.1,4564.3c0,53.4-36.3,101.3-108.8,143.7
								c-72.7,42.6-147.1,63.9-223.3,63.9c-76.4,0-139.1-5.5-188.3-16.4l0,0c-9.7,29.5-14.6,59-14.6,88.4c0,29.5,4.9,50.5,14.6,62.9
								c9.9,12.6,34.5,18.9,73.8,18.9l0,0c81.7,0,151.8-7.6,210.2-22.9c58.4-15.3,88.7-22.9,90.9-22.9l0,0c44.6,0,67,14.7,67,44.1
								l0,0c0,42.6-35.2,83-105.5,121.1c-70.3,38.3-151.6,57.4-243.9,57.4c-92.1,0-166-29-221.5-86.9
								c-55.7-57.7-83.6-126.1-83.6-205.2s23.2-161.7,69.5-248c46.5-86.3,104.6-158.5,174.5-216.8c69.8-58.4,139.3-87.6,208.4-87.6
								c69.3,0,133.4,34.1,192.3,102.2S4333.1,4496.4,4333.1,4564.3L4333.1,4564.3z M4143.3,4537.8c0-10.9-11.4-26.7-34.2-47.3
								c-23-20.6-44.6-31-64.7-31c-20.3,0-46.2,14.4-77.8,43.3c-31.6,28.9-61.5,66.2-89.9,112l0,0c9.7,1,23.9,1.5,42.5,1.5l0,0
								C4068.6,4616.4,4143.3,4590.2,4143.3,4537.8L4143.3,4537.8z"/>
						</g>
					</g>
				</g>
			</g>
		</g>
	</g>
</g>
<g id="Layer_4">
	<g>
		<g id="Layer_2_1_">
			<path class="st0" d="M2049.3,1265.5l-60.9-22.3l30.5-69.1l-54.8-46.7l-158.4-34.5l-93.2-32.7c-0.9,1.4-2.5,2.4-4.5,2.2
				c-1.3,1.2-3,1.8-4.9,1.1c-0.5-0.2-1.1-0.4-1.5-0.6c-0.5-0.1-0.9-0.2-1.4-0.3c-5.7-2.3-11.5-4.4-17.3-6.5
				c-1.3-0.5-2.7-0.8-3.9-1.3c-0.9-0.3-1.7-0.8-2.3-1.4c-5.4-2-10.8-4.1-16.1-6.2c-2.6-1-4.5-3.3-4-6.1l-153.5-48.1l-189.6-27.8
				l-170.4-5.6l-83.6,12.1c0,0-10.7-64.2-13.3-81.7c-2.6-17.4,6.1-113.7,6.1-113.7v-81.3l2-127.9l6.1-111.7L1044,317.1l-40.6-132
				l-36.6-73.1l-65-26.4l-77.2-2l-60.9-6.1l-83.2,30.5l-69.1,71.1L597.1,254l-60.9,32.5l-4.1,77.2l77.2,32.5l46.7,16.3l-4.1,69.1
				l-24.4,101.6l-14.2,111.7L591,816.8l-14.2,154.4l-8.1,105.6l8.1,140.1l14.2,148.2l79.2,172.6l132,123.9l107.6,48.7l136,20.3
				l48.7-6.1l349.4-12.2l217.3-67l178.7-69.1l113.7-101.6l87.3-87.3l30.5-77.2L2049.3,1265.5z"/>
		</g>
		<g id="Layer_3_1_">
			<path class="st0" d="M1490.7,1968.8l-50.6-43.2l-87.3-36.6l8.3-173.8l-294.7,5.2l6.1,111.7l-127.9,38.6l-48.7,56.9l146.2,4.1
				l58.9-4.1l-4.1,48.7L1490.7,1968.8z M1179.5,1789.9c-0.6-2-1-4.2-1.3-6.4c-3.5-10.8-3-22.6,1.2-33.1c0-0.2,0-0.3,0-0.5
				c0-3.9,2.2-7.6,5.5-9.5c1.4-2,3-3.9,4.7-5.7c4.8-4.9,14.6-4.3,17.8,2.3c0.1,0.2,0.2,0.5,0.3,0.7c0.2-0.1,0.4-0.2,0.5-0.2
				c5.8-2,11.7-2.5,17.6-1.8c2.3-2,5.2-2.7,8-2.4c6-1.6,12.5,2.1,14.2,8.2c9.3,33.9,8.9,70,1.1,104.2c-2.1,9.2-13.4,9.7-18.7,4.2
				c-3.3,0.8-7,0.1-9.9-2.3c-5.6,1.4-11.6,1.2-17.5-1c-3.5-1.3-6.9-3.3-10-5.7c-0.8,0.2-1.7,0.4-2.7,0.4c-5.9,0-10.8-5-10.9-10.9
				c0-0.2,0-0.4,0-0.6c-0.1-0.4-0.1-0.8-0.1-1.2c0-1.5,0-3,0-4.5c-4.7-9.8-5.6-21-0.1-30.6
				C1179.5,1792.3,1179.5,1791.1,1179.5,1789.9z"/>
		</g>
		<g id="Layer_6">
			<g>
				<g>
					<path class="st2" d="M1217.5,1944.1c7.7-2.2,15.6-4.1,23.6-5.5c1.9-0.3,3.7-0.7,5.6-1c0.9-0.2,1.9-0.3,2.8-0.5
						c4.5-0.7-1.4,0.2,1.2-0.2c4-0.5,8-0.9,12-1.1c7.8-0.5,15.6-0.7,23.5-0.5c4,0.2,8,0.3,12,0.7c2.1,0.2,4.2,0.4,6.4,0.6
						c0.9,0.1,1.9,0.2,2.8,0.3c0.5,0.1,3.6,0.5,1.2,0.2c7.2,1,15.4-1.7,17.3-9.8c1.5-6.6-2-16.2-9.8-17.3c-35.5-5-71.4-3-106.1,7
						c-7,2-12.2,9.9-9.8,17.2C1202.6,1941.5,1210,1946.3,1217.5,1944.1L1217.5,1944.1z"/>
				</g>
			</g>
			<g>
				<g>
					<path class="st2" d="M1113,1969.1c14.6-2,29.2-4,43.8-6c6.9-0.9,10.9-9.2,10.1-15.4c-0.8-6.4-6.7-12.8-13.7-12.2
						c-18,1.7-36.1,3.4-54.1,5.1c1.2,9.2,2.4,18.3,3.6,27.6c25.4-6.1,50.4-10.3,74.3-12.7c25.8-2.6,51.7-3.4,77.6-2.6
						c0-9.3,0.1-18.7,0.1-28c-33.7,3.6-67.5,7.3-101.2,10.9c1.2,9.2,2.4,18.3,3.6,27.6c3.9-0.7,7.7-1.3,11.6-1.8
						c-1.5,0.2-0.1,0,0.6-0.1c1.2-0.2,2.4-0.3,3.6-0.5c2-0.2,3.9-0.4,5.8-0.6c8-0.7,16.1-1.1,24.1-1.1c7.8-0.1,15.6,0.2,23.4,0.8
						c4.2,0.3,8.3,0.7,12.4,1.1c1,0.1,2,0.2,2.9,0.4c0.2,0,2.9,0.4,1.7,0.2c-1.1-0.2,1.5,0.2,1.7,0.2c1.2,0.2,2.4,0.4,3.6,0.5
						c1.3-9.2,2.5-18.3,3.8-27.5c-25.4,0.5-50.8,1.1-76.1,1.6c-7.3,0.2-14.4,6.3-14,14c0.3,7.7,6.1,13.9,14,14
						c73.1,1,146.2,2,219.3,3c20.7,0.3,41.4,0.5,62,0.8c7,0.1,12.9-5.4,13.8-12.1c0.9-6.7-3.2-13.7-10-15.4
						c-51.5-12.6-104.1-21.1-156.9-25.1c-14.9-1.1-29.8-2-44.8-2.4c0,9.3-0.1,18.7-0.1,28c51.5,1.5,103.1,3,154.6,4.5
						c7,0.2,12.9-5.5,13.8-12.1c0.9-6.6-3.2-13.8-10-15.4c-36.7-8.6-74.7-11.7-112.3-8.6c-7.3,0.6-14.4,6-14,14
						c0.3,7.7,6.1,14,14,14c11.2,0.1,22.5,0.5,33.7,1.4c5.5,0.5,11,1,16.4,1.7c1.4,0.2,2.9,0.4,4.2,0.5c4.7,0.6-2.7-0.4,2,0.3
						c2.9,0.4,5.7,0.8,8.5,1.3c22.2,3.6,44.1,9,65.4,16c2.5-9,5-18,7.5-27c-17.3-4.2-34.5-8.5-51.7-12.7c-2.5,9-5,18-7.5,27
						c18.2,3.3,36.4,6.5,54.5,9.8c7.2,1.3,15.5-1.9,17.3-9.8c1.6-7-2-15.8-9.8-17.3c-52.6-10.5-106.1-16.4-159.8-17.1
						c-15-0.2-30,0-45,0.5c-7.3,0.3-14.4,6.2-14,14c0.3,7.7,6.1,13.9,14,14c22.1,0.4,44.2,0.8,66.4,1.1c7.3,0.2,14.4-6.5,14-14
						c-0.3-7.7-6.1-13.9-14-14c-51.4-1.2-102.6-2.3-154-3.6c0,9.3-0.1,18.7-0.1,28c20.2-1.1,40.5-2.2,60.7-3.3
						c7.3-0.4,14.4-6.1,14-14c-0.3-8-6.1-13.5-14-14c-30.6-2.2-60.9,3.7-88.9,15.8c-6.4,2.8-8.2,11.7-5.8,17.5
						c2.9,6.9,9.5,9.2,16.5,8.2c15.1-2.3,30.1-4.5,45.2-6.8c7.3-1.1,12-10.6,9.8-17.2c-2.6-8-9.4-11-17.2-9.8
						c-21.4,3.2-42.8,6.3-64.2,9.5c2.4,9,4.9,18,7.3,27c43.4-8.5,86.8-17,130.3-25.4c6.8-1.4,10.9-8.9,10.1-15.4
						c-0.8-6.3-6.8-12.9-13.7-12.2c-18.5,1.8-36.9,3.6-55.4,5.5c1.2,9.2,2.4,18.3,3.6,27.6c3.3-0.7,6.7-1.3,10.1-1.8
						c1.4-0.2,2.9-0.5,4.3-0.7c4.7-0.7-2.7,0.3,2-0.3c6.3-0.8,12.7-1.3,18.9-1.7c12.7-0.6,25.4-0.3,38,0.8c0-9.3,0.1-18.7,0.1-28
						c-20.8,0.7-41.7,1.4-62.6,2.1c0,9.3-0.1,18.7-0.1,28c8.9-0.7,17.6-1.4,26.5-2.1c-1.2-9.2-2.4-18.3-3.6-27.6
						c-8.9,1.2-18,2.4-26.9,3.6c-5.4,0.8-10.5,1-15.5,3.5c-3.9,2-7.7,3.9-11.5,5.7c-2,1,1.7-0.7-0.4,0.2c-1.1,0.4-2.1,0.8-3.2,1.2
						c-1.9,0.7-3.8,1.4-5.8,2c-4.1,1.4-8.3,2.5-12.4,3.4c-3.9,0.9-8,1.7-12,2.2c2.6-0.4-0.5,0-1,0.1c-1.1,0.2-2.3,0.2-3.4,0.3
						c-2.3,0.2-4.5,0.3-6.7,0.4c1.2,9.2,2.4,18.3,3.6,27.6c8.8-1.1,17.6-2.3,26.4-3.5c-2.4-9-4.9-18-7.3-27
						c-9.8,2.9-19.8,5.7-29.6,8.6c-7,2-12.2,9.9-9.8,17.2c2.3,7.1,9.7,12,17.2,9.8c9.8-2.9,19.8-5.7,29.6-8.6c7-2,12.2-9.9,9.8-17.2
						c-2.6-8-9.4-10.8-17.2-9.8c-8.8,1.1-17.6,2.3-26.4,3.5c-6.9,0.9-10.9,9.2-10.1,15.4c0.9,6.7,6.7,12.4,13.7,12.2
						c18.2-0.6,36.3-4.2,53.2-11.1c4.7-1.9,9.3-3.9,13.8-6.3c0.8-0.4,1.6-0.8,2.4-1.3c1.3-0.8,1.6-0.9,0.8-0.4
						c-0.6,0.4-0.5,0.4,0.4,0.2c1.7,0.5,5.5-0.8,7.3-1c9.5-1.3,18.9-2.5,28.4-3.8c6.9-0.9,10.9-9.2,10.1-15.4
						c-0.8-6.4-6.7-12.7-13.7-12.2c-8.9,0.7-17.6,1.4-26.5,2.1c-7.3,0.6-14.4,6-14,14c0.3,7.3,6.1,14.3,14,14
						c20.8-0.7,41.7-1.4,62.6-2.1c7.3-0.2,14.4-6.2,14-14c-0.4-8.2-6.1-13.3-14-14c-27-2.5-54.3-0.8-81,4.6
						c-6.8,1.4-10.9,8.9-10.1,15.4c0.8,6.3,6.8,12.9,13.7,12.2c18.5-1.8,36.9-3.6,55.4-5.5c-1.2-9.2-2.4-18.3-3.6-27.6
						c-43.4,8.5-86.8,17-130.3,25.4c-7.2,1.4-12,10.4-9.8,17.2c2.6,8,9.4,11,17.2,9.8c21.4-3.2,42.8-6.3,64.2-9.5
						c-2.4-9-4.9-18-7.3-27c-15.1,2.3-30.1,4.5-45.2,6.8c3.6,8.6,7.1,17.1,10.8,25.6c1.5-0.7,1.7-0.8,0.5-0.2c0.8-0.4,1.7-0.7,2.6-1
						c1.7-0.7,3.4-1.3,5.2-1.9c3-1.1,6.1-2,9.2-3c6.4-1.9,12.9-3.3,19.4-4.5c1.6-0.3,3.2-0.5,4.8-0.8c-2.8,0.4,2.6-0.3,3.1-0.4
						c3.2-0.3,6.4-0.5,9.6-0.7c6.9-0.3,13.8-0.2,20.6,0.3c0-9.3,0.1-18.7,0.1-28c-20.2,1.1-40.5,2.2-60.7,3.3
						c-7.3,0.4-14.4,6.1-14,14c0.3,7.7,6.1,13.9,14,14c51.4,1.2,102.6,2.3,154,3.6c0-9.3,0.1-18.7,0.1-28
						c-22.1-0.4-44.2-0.8-66.4-1.1c0,9.3-0.1,18.7-0.1,28c26.1-1,52.1-0.8,78.2,0.5c13,0.7,26,1.7,39,3c6.4,0.6,12.7,1.4,19.1,2.1
						c3.2,0.4,6.4,0.8,9.5,1.2c0,0,2.4,0.3,1.1,0.2c-1.4-0.2,1.1,0.2,1.1,0.2c2,0.3,3.9,0.5,5.8,0.8c14.6,2.1,29.2,4.7,43.6,7.6
						c2.5-9,5-18,7.5-27c-18.2-3.3-36.4-6.5-54.5-9.8c-7.2-1.3-15.5,1.9-17.3,9.8c-1.7,7.2,2.1,15.4,9.8,17.3
						c17.3,4.2,34.5,8.5,51.7,12.7c7.1,1.7,15.5-2.2,17.3-9.8c1.7-7.7-2.3-14.8-9.8-17.3c-44.4-14.5-91.1-22-137.8-22.3
						c0,9.3-0.1,18.7-0.1,28c17.9-1.5,35.9-1.7,53.9-0.4c4.4,0.3,8.7,0.7,13,1.2c2.2,0.2,4.3,0.5,6.5,0.8c2.7,0.3-3.3-0.5,1.4,0.2
						c1,0.2,1.9,0.3,2.9,0.5c9.1,1.4,18.2,3.2,27.2,5.3c1.3-9.2,2.5-18.3,3.8-27.5c-51.5-1.5-103.1-3-154.6-4.5
						c-7.3-0.2-14.4,6.5-14,14c0.3,7.8,6.1,13.8,14,14c25.8,0.8,51.4,2.7,77,5.5c6.4,0.7,12.7,1.5,19,2.3c0.3,0.1,3.3,0.5,1.8,0.2
						c-1.4-0.2,1.1,0.2,1.1,0.2c1.4,0.2,2.9,0.4,4.4,0.6c3.4,0.5,6.8,1,10.2,1.5c12.6,2,25.1,4.2,37.7,6.7
						c14.5,2.9,28.8,6.1,43.1,9.5c1.3-9.2,2.5-18.3,3.8-27.5c-73.1-1-146.2-2-219.3-3c-20.7-0.3-41.4-0.5-62-0.8
						c0,9.3-0.1,18.7-0.1,28c25.4-0.5,50.8-1.1,76.1-1.6c7-0.2,12.9-5.2,13.8-12.1c0.8-6.2-3.1-14.3-10-15.4
						c-35.5-5.7-71.1-5.5-106.5,0.7c-6.8,1.2-10.9,9-10.1,15.4c0.8,6.3,6.8,13,13.7,12.2c33.7-3.6,67.5-7.3,101.2-10.9
						c7.3-0.8,14.4-5.8,14-14c-0.3-7.8-6.1-13.8-14-14c-53.6-1.7-107.3,3.9-159.5,16.3c-6.8,1.6-11,8.7-10.1,15.4
						c0.8,6.4,6.7,12.8,13.7,12.2c18-1.7,36.1-3.4,54.1-5.1c-1.2-9.2-2.4-18.3-3.6-27.6c-14.6,2-29.2,4-43.8,6
						c-7.3,1-12,10.7-9.8,17.2C1098.4,1967.2,1105.2,1970.1,1113,1969.1L1113,1969.1z"/>
				</g>
			</g>
			<g>
				<g>
					<path class="st2" d="M970.2,1890.2c-14.8,2-29.6,3.9-44.5,5.9c-6.9,0.9-10.9,9.2-10.1,15.4c0.8,6.2,6.8,13,13.7,12.2
						c19.8-2.3,39.5-4.6,59.3-7c7.3-0.8,14.4-5.8,14-14c-0.3-7.4-6.1-14.2-14-14c-16.3,0.4-32.6,0.7-48.9,1.1c0,9.3-0.1,18.7-0.1,28
						c19.9-2.3,39.8-4.5,59.7-6.8c0-9.3,0.1-18.7,0.1-28c-24.5,3-48.9,6-73.3,8.9c1.2,9.2,2.4,18.3,3.6,27.6
						c28.9-4.3,57.9-8.6,86.8-13c-2.4-9-4.9-18-7.3-27c-13.1,2.3-26.2,4.5-39.4,6.7c-6.8,1.2-10.9,9-10.1,15.4
						c0.8,6.4,6.7,12.8,13.7,12.2c45.5-4,91.4-3.7,136.8,1.1c0-9.3,0.1-18.7,0.1-28c-23.3,0.4-46.7,0.8-70,1.2
						c-7.3,0.2-14.4,6.3-14,14c0.3,7.7,6.1,13.9,14,14c30.6,0.6,61.3,1.2,91.9,1.8c7.3,0.2,14.4-6.5,14-14c-0.4-8.1-6.1-13.4-14-14
						c-43.6-3.5-87.5-3.8-131.2-1.1c-7.3,0.5-14.4,6.1-14,14c0.3,7.3,6.1,14.3,14,14c26.9-1,53.8-2,80.6-3c0-9.3,0.1-18.7,0.1-28
						c-37.3,1.7-74.7,3.3-112,5c0,9.3-0.1,18.7-0.1,28c34.4-2.3,68.7-4.7,103.1-7c7.3-0.5,14.4-6.1,14-14c-0.4-8.3-6.1-13.1-14-14
						c-42.1-5.2-84.7-6-127-2.3c1.2,9.2,2.4,18.3,3.6,27.6c20.8-5.2,41.8-9.2,63-12.3c0.5-0.1,1-0.2,1.4-0.2c-1.1,0.2-1.1,0.2-0.1,0
						c1.2-0.2,2.4-0.3,3.6-0.5c2.9-0.4,5.8-0.7,8.7-1c5.3-0.5,10.7-1.1,16-1.5c10.7-0.8,21.4-1.4,32-1.6c0-9.3,0.1-18.7,0.1-28
						c-35.8,1.1-71.6,2.3-107.3,3.4c0,9.3-0.1,18.7-0.1,28c41.4-4.4,82.9-8.7,124.3-13.1c7.3-0.8,14.4-5.8,14-14
						c-0.3-7.5-6.1-14.2-14-14c-30.2,0.5-60.4,1.1-90.6,1.5c-7.3,0.2-14.4,6.3-14,14c0.3,7.7,6.1,13.9,14,14
						c35.9,0.5,71.8,0.9,107.7,1.4c0-9.3,0.1-18.7,0.1-28c-14,0.2-28,0.5-42,0.8c-7.3,0.2-14.4,6.3-14,14c0.3,7.7,6.1,13.9,14,14
						c35.5,0.7,71,1.4,106.5,2c0-9.3,0.1-18.7,0.1-28c-23.8-0.2-47.6-0.5-71.4-0.8c0,9.3-0.1,18.7-0.1,28c34,0.2,68,0.3,102.1,0.5
						c7.3,0,14.4-6.4,14-14c-0.3-7.7-6.1-13.9-14-14c-15.7-0.2-31.4-0.5-47.1-0.8c0,9.3-0.1,18.7-0.1,28c17.3-0.1,34.6-0.2,51.9-0.2
						c7.3,0,14.4-6.4,14-14c-0.3-7.9-6.1-13.7-14-14c-14.1-0.6-28.2-1.2-42.3-1.9c-7.3-0.3-14.4,6.7-14,14c0.4,8.1,6.1,13.4,14,14
						c15.8,1.3,31.6,2.6,47.4,3.9c0-9.3,0.1-18.7,0.1-28c-28-2.3-56.4,0.1-83.8,6.4c-6.8,1.6-11,8.7-10.1,15.4
						c0.9,7,6.7,11.8,13.7,12.2c17.3,0.8,34.5,1.7,51.8,2.5c0-9.3,0.1-18.7,0.1-28c-31.9,1.5-63.7,3-95.6,4.5
						c-7.3,0.4-14.4,6.1-14,14c0.3,7.5,6.1,14.2,14,14c24.2-0.3,48.3-0.5,72.4-0.8c7.3-0.1,14.4-6.4,14-14c-0.3-8-6.1-13.6-14-14
						c-15.9-1-31.9-2-47.8-3c-7.3-0.5-14.4,6.7-14,14c0.3,8,6.1,13.6,14,14c15.9,1,31.9,2,47.8,3c0-9.3,0.1-18.7,0.1-28
						c-24.2,0.3-48.3,0.5-72.4,0.8c0,9.3-0.1,18.7-0.1,28c31.9-1.5,63.7-3,95.6-4.5c7.3-0.4,14.4-6.1,14-14c-0.3-7.9-6.1-13.6-14-14
						c-17.3-0.8-34.5-1.7-51.8-2.5c1.2,9.2,2.4,18.3,3.6,27.6c6.5-1.5,13.1-2.8,19.8-3.9c1.4-0.2,2.9-0.5,4.2-0.6
						c-2.4,0.3,3-0.3,3.4-0.4c3.1-0.3,6.2-0.6,9.3-0.8c13.2-0.9,26.4-0.8,39.5,0.2c7.3,0.6,14.3-6.8,14-14c-0.4-8.1-6.1-13.4-14-14
						c-15.8-1.3-31.6-2.6-47.4-3.9c0,9.3-0.1,18.7-0.1,28c14.1,0.6,28.2,1.2,42.3,1.9c0-9.3,0.1-18.7,0.1-28
						c-17.3,0.1-34.6,0.2-51.9,0.2c-7.3,0-14.4,6.4-14,14c0.3,7.7,6.1,13.9,14,14c15.7,0.2,31.4,0.5,47.1,0.8c0-9.3,0.1-18.7,0.1-28
						c-34-0.2-68-0.3-102.1-0.5c-7.3,0-14.4,6.4-14,14c0.3,7.7,6.1,13.9,14,14c23.8,0.2,47.6,0.5,71.4,0.8c7.3,0.1,14.4-6.4,14-14
						c-0.3-7.7-6.1-13.9-14-14c-35.5-0.7-71-1.4-106.5-2c0,9.3-0.1,18.7-0.1,28c14-0.2,28-0.5,42-0.8c7.3-0.2,14.4-6.3,14-14
						c-0.3-7.7-6.1-13.9-14-14c-35.9-0.5-71.8-0.9-107.7-1.4c0,9.3-0.1,18.7-0.1,28c30.2-0.5,60.4-1.1,90.6-1.5
						c0-9.3,0.1-18.7,0.1-28c-41.4,4.4-82.9,8.7-124.3,13.1c-7.3,0.8-14.4,5.8-14,14c0.3,7.3,6.1,14.3,14,14
						c35.8-1.1,71.6-2.3,107.3-3.4c7.3-0.2,14.4-6.2,14-14c-0.3-7.4-6.1-14.2-14-14c-44.5,1.1-89,7.1-132.2,18
						c-6.7,1.7-11,8.6-10.1,15.4c0.8,6.4,6.7,12.8,13.7,12.2c42.3-3.7,84.8-3,127,2.3c0-9.3,0.1-18.7,0.1-28
						c-34.4,2.3-68.7,4.7-103.1,7c-7.3,0.5-14.4,6.1-14,14c0.3,7.3,6.1,14.4,14,14c37.3-1.7,74.7-3.3,112-5c7.3-0.3,14.4-6.1,14-14
						c-0.3-7.3-6.1-14.3-14-14c-26.9,1-53.8,2-80.6,3c0,9.3-0.1,18.7-0.1,28c43.7-2.7,87.6-2.3,131.2,1.1c0-9.3,0.1-18.7,0.1-28
						c-30.6-0.6-61.3-1.2-91.9-1.8c0,9.3-0.1,18.7-0.1,28c23.3-0.4,46.7-0.8,70-1.2c7.3-0.2,14.4-6.3,14-14c-0.4-8.3-6.1-13.3-14-14
						c-45.4-4.8-91.3-5.2-136.8-1.1c1.2,9.2,2.4,18.3,3.6,27.6c13.1-2.3,26.2-4.5,39.4-6.7c7.3-1.2,12-10.5,9.8-17.2
						c-2.6-8-9.4-11-17.2-9.8c-28.9,4.3-57.9,8.6-86.8,13c-6.9,1.1-10.9,9.2-10.1,15.4s6.8,13,13.7,12.2c24.5-3,48.9-6,73.3-8.9
						c7.3-0.9,14.4-5.8,14-14c-0.3-6.9-6.2-14.9-14-14c-19.9,2.3-39.8,4.5-59.7,6.8c-7.3,0.8-14.4,5.8-14,14c0.3,7.4,6.1,14.2,14,14
						c16.3-0.4,32.6-0.7,48.9-1.1c0-9.3,0.1-18.7,0.1-28c-19.8,2.3-39.5,4.6-59.3,7c1.2,9.2,2.4,18.3,3.6,27.6
						c14.8-2,29.6-3.9,44.5-5.9c7.3-1,11.9-10.7,9.8-17.2C984.8,1892,978,1889.2,970.2,1890.2L970.2,1890.2z"/>
				</g>
			</g>
			<g>
				<g>
					<path class="st2" d="M1029.9,1861.3c-2,0.5-4.2,1.1-6.2,1.7c-7,2-12.1,10-9.8,17.2c2.3,7.3,9.6,11.8,17.2,9.8
						c3.6-0.9,7.3-1.9,10.9-2.8c-2.4-9-4.9-18-7.3-27c-5.8,1.7-11.5,3.3-17.3,5c2.4,9,4.9,18,7.3,27c5.5-1.8,10.8-3.6,16.3-5.5
						c6.7-2.2,11-8.3,10.1-15.4c-0.8-6.4-6.7-12.8-13.7-12.2c-5.6,0.5-11.3,1.1-16.9,1.6c1.2,9.2,2.4,18.3,3.6,27.6
						c11.9-3.5,23.9-6.4,36.1-8.6c3-0.5,6-1.1,9-1.5c1.6-0.2,3.3-0.5,4.8-0.7c1.7-0.2,0.1,0-0.2,0c0.9-0.2,1.8-0.2,2.8-0.4
						c6.3-0.8,12.6-1.3,18.9-1.7c12.3-0.8,24.8-0.9,37.1-0.4c6.3,0.3,12.6,0.7,18.9,1.3c2.8,0.3,5.6,0.6,8.3,0.9
						c0.6,0.1,4.8,0.6,2.5,0.3c1.6,0.2,3.3,0.5,4.8,0.7c14.1,2.2,28,5.2,41.7,9.2c7,2,15.6-2.4,17.3-9.8c1.7-7.4-2.2-15.1-9.8-17.3
						c-51.1-14.5-105-17.3-157.5-8.9c-14.3,2.3-28.5,5.5-42.3,9.6c-6.7,2-11,8.4-10.1,15.4c0.8,6.4,6.7,12.8,13.7,12.2
						c5.6-0.5,11.3-1.1,16.9-1.6c-1.2-9.2-2.4-18.3-3.6-27.6c-5.5,1.8-10.8,3.6-16.3,5.5c-7,2.3-12.3,9.7-9.8,17.2
						c2.3,7.1,9.7,12,17.2,9.8c5.8-1.7,11.5-3.3,17.3-5c7-2,12.2-9.9,9.8-17.2c-2.3-7.3-9.6-11.8-17.2-9.8
						c-3.6,0.9-7.3,1.9-10.9,2.8c2.4,9,4.9,18,7.3,27c2-0.5,4.2-1.1,6.2-1.7c7-2,12.1-10,9.8-17.2
						C1044.8,1863.9,1037.4,1859.3,1029.9,1861.3L1029.9,1861.3z"/>
				</g>
			</g>
			<g>
				<g>
					<path class="st2" d="M1063.7,1860.5c2.3,0.3,4.5,0.6,6.8,1c0-9,0.1-18,0.1-27c-3.2,0.5-6.4,1.1-9.6,1.6
						c-7.3,1.2-12,10.5-9.8,17.2c2.6,8,9.4,11,17.2,9.8c4.2-0.6,8.3-1.2,12.5-1.8c6.9-1,10.9-9.2,10.1-15.4
						c-0.9-6.7-6.7-12.4-13.7-12.2c-3.2,0.1-6.4,0.2-9.6,0.3c1.2,9.2,2.4,18.3,3.6,27.6c3.6-0.9,7.2-1.7,10.8-2.7
						c6.8-1.7,11-8.7,10.1-15.4c-0.8-6.5-6.7-12.6-13.7-12.2c-3.6,0.2-7.2,0.4-10.8,0.6c1.2,9.2,2.4,18.3,3.6,27.6
						c3.3-0.9,6.5-1.8,9.8-2.7c6.7-1.8,11-8.6,10.1-15.4c-0.9-7-6.7-12-13.7-12.2c-3.9-0.2-7.7-0.2-11.5-0.4
						c1.2,9.2,2.4,18.3,3.6,27.6c0,0,4.5-0.6,2-0.3c1.4-0.2,2.9-0.4,4.3-0.5c2.3-0.3,4.8-0.5,7.2-0.8c5.2-0.5,10.5-0.9,15.8-1.1
						c10.8-0.5,21.6-0.6,32.4-0.2c10.6,0.5,21.1,1.4,31.6,2.7c1,0.2,1,0.2-0.2,0c0.5,0.1,1,0.2,1.4,0.2c1.4,0.2,2.9,0.5,4.2,0.6
						c2.6,0.4,5.2,0.8,7.8,1.3c5.5,1,10.8,2.1,16.2,3.3c7.1,1.6,15.5-2.1,17.3-9.8c1.7-7.1-2.1-15.5-9.8-17.3
						c-45.3-10.2-91.7-11.8-137.7-5.2c-6.9,1-10.9,9.2-10.1,15.4c0.9,7,6.7,12,13.7,12.2c3.9,0.2,7.7,0.2,11.5,0.4
						c-1.2-9.2-2.4-18.3-3.6-27.6c-3.3,0.9-6.5,1.8-9.8,2.7c-6.7,1.8-11,8.6-10.1,15.4c0.8,6.5,6.7,12.6,13.7,12.2
						c3.6-0.2,7.2-0.4,10.8-0.6c-1.2-9.2-2.4-18.3-3.6-27.6c-3.6,0.9-7.2,1.7-10.8,2.7c-6.8,1.7-11,8.7-10.1,15.4
						s6.7,12.4,13.7,12.2c3.2-0.1,6.4-0.2,9.6-0.3c-1.2-9.2-2.4-18.3-3.6-27.6c-4.2,0.6-8.3,1.2-12.5,1.8c2.4,9,4.9,18,7.3,27
						c3.2-0.5,6.4-1.1,9.6-1.6c5.8-1,10.5-7.8,10.3-13.5c-0.2-5.6-4.1-12.6-10.2-13.6c-2.3-0.3-4.5-0.6-6.8-1
						c-7.2-1-15.4,1.7-17.3,9.8C1052.4,1849.8,1055.9,1859.4,1063.7,1860.5L1063.7,1860.5z"/>
				</g>
			</g>
			<g>
				<g>
					<path class="st2" d="M1261.4,1895.4c1.7-0.2,1.7-0.2,0.2-0.1c0.9-0.1,1.7-0.2,2.7-0.3c1.7-0.2,3.6-0.4,5.3-0.5
						c3.1-0.3,6.2-0.5,9.3-0.7c6.7-0.4,13.3-0.5,19.9-0.4c6.2,0.2,12.4,0.5,18.6,1.1c1.7,0.2,3.6,0.4,5.3,0.5
						c0.5,0.1,5.8,0.8,2.9,0.3c3.1,0.5,6.1,0.9,9.2,1.4c12.7,2.2,25.1,5.4,37.3,9.5c3.3,1.1,6.7,2.3,10,3.6c1.2,0.5,2.5,1,3.7,1.4
						c0.5,0.2,5.3,2.2,2.8,1.1c6.1,2.7,12.1,5.5,18,8.6c3.6-8.6,7.3-17,10.8-25.6c-52.5-12-106.9-15.9-160.5-10.7
						c-15.7,1.5-31.2,3.7-46.7,6.6c-7.2,1.4-12,10.4-9.8,17.2c2.5,7.9,9.5,11.1,17.2,9.8c3-0.5,6.1-1,9.1-1.4
						c0.7-0.1,1.4-0.2,2.1-0.3c0.1,0,2.3-0.3,0.9-0.2c-1.4,0.2,0.9-0.1,0.9-0.2c1.1-0.2,2.3-0.3,3.5-0.5c6.1-0.7,12.2-1.3,18.3-1.7
						c12.7-0.9,25.4-1.2,38.1-1c12.5,0.2,24.9,1,37.3,2.3c3,0.3,6.1,0.7,9.1,1.1c0.7,0.1,1.4,0.2,2.1,0.3c-0.3-0.1-1.9-0.3-0.2,0
						c1.9,0.3,3.7,0.5,5.6,0.8c6.1,0.9,12,2,18,3.2c14.1,2.8,28,6.4,41.7,10.6c7,2.1,15.6-2.5,17.3-9.8c1.7-7.6-2.3-14.9-9.8-17.3
						c-65.1-20.4-135.1-23.7-202-10.7c-18.3,3.6-36.4,8.5-54.1,14.7c-6.9,2.4-12.3,9.6-9.8,17.2c2.2,6.8,9.8,12.4,17.2,9.8
						c15.5-5.4,31.3-9.8,47.3-13.3c7.8-1.7,15.7-3.1,23.6-4.3c2-0.3,4.1-0.6,6.1-0.9c-0.6,0.1-2.5,0.3,0.4,0
						c0.9-0.1,1.8-0.2,2.7-0.3c4.3-0.5,8.6-0.9,13-1.3c16.1-1.4,32.3-1.7,48.5-1.1c8.2,0.3,16.4,0.8,24.5,1.7
						c3.9,0.4,7.7,0.8,11.5,1.3c0.4,0.1,3.2,0.5,1.5,0.2c-1.7-0.2,1.1,0.2,1.5,0.2c2.3,0.3,4.5,0.7,6.7,1.1
						c18.3,3,36.2,7.3,53.9,12.8c2.5-9,5-18,7.5-27c-50.1-15.5-103.3-21.8-155.7-18.6c-15.3,1-30.6,2.8-45.8,5.3
						c2.4,9,4.9,18,7.3,27c6.4-1.2,12.8-2.3,19.2-3.3c1.4-0.2,2.9-0.4,4.3-0.6c0.7-0.1,1.4-0.2,2.1-0.3c-0.6,0.1-2.3,0.3,0.6-0.1
						c3.1-0.4,6.2-0.8,9.3-1.1c13-1.4,26-2.2,39-2.5c25.6-0.6,51.1,0.8,76.5,4.2c1.7,0.2,0.2,0-0.2,0c1.2,0.2,2.4,0.4,3.6,0.5
						c1.7,0.2,3.3,0.5,5,0.8c3.6,0.6,7.1,1.2,10.7,1.8c7.3,1.4,14.7,2.9,22,4.5c6.9,1.6,13.8-1.5,16.6-8.1
						c2.6-6.1,0.5-14.2-5.7-17.5c-51.3-27-109.5-36.6-166.8-28.6c-7.3,1.1-12,10.6-9.8,17.2
						C1246.7,1893.6,1253.6,1896.6,1261.4,1895.4L1261.4,1895.4z"/>
				</g>
			</g>
			<g>
				<g>
					<path class="st2" d="M1257.5,1816.8c2,18.4,4.1,36.8,6.1,55.1c0.8,7.3,5.8,14.4,14,14c8.3-0.4,13.2-6.1,14-14
						c1.6-14.5,3.2-29,4.7-43.6c-9.2,1.2-18.3,2.4-27.6,3.6c2.8,17,8.9,33.4,17.6,48.3c5.2,8.9,19.2,9.4,24.2,0.1
						c7.8-14.5,15.7-28.9,23.5-43.3c-8.6-1.1-17-2.3-25.6-3.4c1,2.8,1.9,5.7,2.5,8.6c0.4,1.6,0.7,3.2,0.9,4.7
						c-0.4-2.4,0.2,1.1,0.2,1.7c0.2,2.7,0.3,5.5,0.2,8.3c-0.1,1.4-0.2,2.7-0.2,4.1c-0.2,1.7-0.2,1.8,0,0.4c-0.2,0.9-0.3,1.8-0.5,2.7
						c-1.3,7,1.3,13.6,8.1,16.6c6.6,2.8,13.6,0.2,17.5-5.7c3.6-5.5,7.2-10.8,10.8-16.3c-8.7-2.3-17.4-4.8-26.1-7.1
						c-0.8,10-1.4,20.1-2.2,30.1c9.2-1.2,18.3-2.4,27.6-3.6c-1-5.2-1.8-10.4-2.5-15.7c0.4,2.5-0.2-2-0.2-2c-0.2-1.4-0.3-2.9-0.5-4.3
						c-0.2-2.4-0.5-4.8-0.7-7.2c-0.9-10.8-1.3-21.6-1.1-32.4c0.2-10.6,0.8-21.1,1.9-31.7c0.3-2.7,0.6-5.2,1-7.9
						c-0.3,2.4,0.2-1.7,0.3-2c0.2-1.2,0.4-2.3,0.5-3.6c0.9-5.5,1.9-10.9,3-16.3c2.3-10.9-6.4-19.3-17.2-17.3
						c-23.3,4.5-46.5,8.9-69.7,13.4c2.4,9,4.9,18,7.3,27c11.4-3,22.7-5.9,34.1-8.9c5.8-1.5,10.6-7.4,10.3-13.5
						c-0.2-5.8-4.1-12.5-10.2-13.6c-8.6-1.4-17.3-3-25.9-4.4c-1.3,9.2-2.5,18.3-3.8,27.5c4.8-0.5,9.5-1.1,14.3-1.6
						c-4.5-5.9-9-11.8-13.5-17.8c-10.8,26.1-14.9,55-12,83c0.8,7.3,5.8,14.4,14,14c8.3-0.4,13-6.1,14-14c1.8-14.2,3.6-28.5,5.5-42.7
						c-9.3,0-18.7-0.1-28-0.1c-1.1,19.5,0.3,39,3.4,58.3c0.9,5.8,7.8,10.5,13.5,10.3c5.7-0.2,12.6-4.1,13.6-10.2
						c1.6-10.1,3.8-20,6.7-29.8c1.4-4.8,3-9.5,4.6-14.2c0.8-2.2,1.6-4.5,2.5-6.7c0.5-1.3,1.1-2.7,1.6-3.9c1.1-2.7-0.5,1,0.8-1.9
						c-8.7-2.3-17.4-4.8-26.1-7.1c0.8,9.8,0.9,19.5,0.2,29.2c-0.2,2.3-0.4,4.8-0.7,7.1c-0.1,0.4-0.5,3.6-0.2,1.2
						c-0.2,1.2-0.4,2.3-0.5,3.6c-0.8,4.9-1.9,9.8-3.1,14.7c-1.8,7.1,2.3,15.5,9.8,17.3c7.3,1.7,15.2-2.2,17.3-9.8
						c5.8-21.6,11.4-43.3,17.2-64.8c-9-2.5-18-5-27-7.5c-3.3,17.8-6.6,35.7-9.8,53.5c9.2,1.3,18.3,2.5,27.5,3.8
						c-0.2-9,0.4-18,1.4-27c0.1-0.8,0.3-2,0.1-0.5c0.2-1.1,0.4-2.3,0.5-3.5c0.4-2.1,0.8-4.2,1.1-6.3c0.9-4.7,2-9.2,3.3-13.9
						c-9.2-1.3-18.3-2.5-27.5-3.8c0.1,2.8,0.2,5.5,0.2,8.3c0.2,7.3,6.2,14.4,14,14c7.4-0.3,14.3-6.1,14-14c-0.1-2.8-0.2-5.5-0.2-8.3
						c-0.2-7-5.2-12.8-12.1-13.8c-6.8-0.9-13.6,3.3-15.4,10c-5.3,19-7.9,38.9-7.6,58.7c0.1,7,5.2,12.9,12.1,13.8
						c6.4,0.9,14.2-3.1,15.4-10c3.3-17.8,6.6-35.7,9.8-53.5c1.4-7.2-1.9-15.5-9.8-17.3c-7.3-1.7-15.2,2.2-17.3,9.8
						c-5.8,21.6-11.4,43.3-17.2,64.8c9,2.5,18,5,27,7.5c5.2-20.6,7.1-42.1,5.3-63.2c-0.5-6-3.9-12.1-10.2-13.6
						c-5.5-1.3-13.3,0.6-15.8,6.4c-8.9,20.3-15.5,41.2-18.9,63.1c9,0,18,0.1,27,0.1c-0.4-2.2-0.7-4.4-1-6.6
						c-0.4-2.4,0.2,1.7-0.1-0.7c-0.2-1.2-0.3-2.4-0.4-3.7c-0.5-4.4-0.8-8.9-1.1-13.3c-0.5-8.9-0.4-17.7,0.1-26.6
						c0.4-7.3-6.7-14.4-14-14c-8.3,0.4-13,6.1-14,14c-1.8,14.2-3.6,28.5-5.5,42.7c9.3,0,18.7,0.1,28,0.1c-0.8-6.8-1.1-13.7-0.9-20.5
						c0.1-3.2,0.2-6.4,0.5-9.6c0.1-1.4,0.2-2.7,0.4-4.1c0.1-0.5,0.8-5.8,0.4-3.1c2-13.2,5.5-26,10.6-38.3c3.3-7.9-5-18.7-13.5-17.8
						c-4.8,0.5-9.5,1.1-14.3,1.6c-7,0.8-12.8,4.7-13.8,12.1c-0.8,6.3,3.1,14.2,10,15.4c8.6,1.4,17.3,3,25.9,4.4c0-9,0.1-18,0.1-27
						c-11.4,3-22.7,5.9-34.1,8.9c-7.1,1.8-12.1,10.1-9.8,17.2c2.5,7.7,9.5,11.3,17.2,9.8c23.3-4.5,46.5-8.9,69.7-13.4
						c-5.8-5.8-11.4-11.5-17.2-17.3c-9.6,45.4-10.2,92-1.7,137.8c1.3,6.8,9,10.9,15.4,10.1c7.2-0.9,11.7-6.7,12.2-13.7
						c0.8-10,1.4-20.1,2.2-30.1c0.5-5.8-4.6-12.3-10.2-13.6c-6.3-1.4-12.3,1-15.8,6.4c-3.6,5.5-7.2,10.8-10.8,16.3
						c8.6,3.6,17,7.3,25.6,10.8c2.7-15.2,2.1-30.8-3.1-45.4c-1.9-5.4-5.8-9.2-11.6-10.1c-5.4-0.8-11.3,1.7-14,6.7
						c-7.8,14.5-15.7,28.9-23.5,43.3c8,0,16.1,0.1,24.2,0.1c-1.9-3.3-3.7-6.6-5.3-10c-0.5-1-0.9-2-1.4-3c-0.4-0.8-0.7-1.7-0.2-0.3
						c-0.8-1.8-1.4-3.7-2.1-5.6c-2.6-7.3-4.5-14.9-5.8-22.6c-1.1-6.9-9.1-10.9-15.4-10.1c-7.3,1-11.4,6.7-12.2,13.7
						c-1.6,14.5-3.2,29-4.7,43.6c9.3,0,18.7,0.1,28,0.1c-2-18.4-4.1-36.8-6.1-55.1c-0.8-7.3-5.8-14.4-14-14
						C1264.6,1803.1,1256.6,1809,1257.5,1816.8L1257.5,1816.8z"/>
				</g>
			</g>
			<g>
				<g>
					<path class="st2" d="M1134.3,1750.4c-3.7,29-4.9,58.3-3.8,87.5c5.9-4.5,11.8-9,17.8-13.5c-20.7-7.6-42.7-11.4-64.7-11.6
						c4.7,4.7,9.3,9.4,14,14c1.6-28.8,3.2-57.5,4.8-86.3c-4.7,4.7-9.4,9.3-14,14c18,0.8,35.9,1.5,53.9,2.3c-4-7-8-14.1-12-21.1
						c-13.2,23.6-22.3,49.3-26.7,75.9c-1.1,7.2,1.8,15.5,9.8,17.3c7.4,1.7,15.2-2.2,17.3-9.8c3.9-13.6,7.7-27.2,11.6-40.8
						c-9.2-1.3-18.3-2.5-27.5-3.8c-1.2,17-2.3,34.1-3.6,51.2c9.2-1.2,18.3-2.4,27.6-3.6c-3.6-9.9-5.9-19.9-7.6-30.3
						c-0.2-1-0.2-0.9,0,0.3c-0.1-0.5-0.1-0.9-0.2-1.4c-0.2-1.4-0.3-2.8-0.4-4.2c-0.2-2.6-0.4-5.1-0.5-7.7c-0.2-5.3-0.1-10.7,0.2-16
						c0.5-7.3-6.7-14.4-14-14c-8.3,0.4-13.2,6.1-14,14c-2,19.2-4.1,38.5-6.1,57.7c9.2-1.2,18.3-2.4,27.6-3.6c-0.5-2.3-0.9-4.7-1.3-7
						c-0.1-0.3-0.6-3.9-0.4-2.4c0.2,1.4-0.2-2.1-0.3-2.4c-0.5-4.8-0.8-9.5-0.9-14.3c-0.1-4.5,0-9.1,0.3-13.6
						c0.2-2.4,0.4-4.8,0.6-7.1c0.2-1.2,0.2-2.3,0.4-3.6c-0.3,2.4,0.2-1.6,0.3-2c-9.2-1.3-18.3-2.5-27.5-3.8
						c0.7,8.7,0.6,17.5-0.2,26.2c-0.1,0.9-0.2,1.9-0.3,2.8c-0.1,0.5-0.5,3.6-0.2,1.2c-0.3,2.1-0.7,4.2-1.1,6.3
						c-0.8,4.4-1.9,8.8-3.1,13.1c9.2,1.3,18.3,2.5,27.5,3.8c2-14.9,4-29.8,6-44.7c0.9-6.9-6-13-12.1-13.8c-7.1-1-13.1,3.3-15.4,10
						c-3.2,9.2-6.4,18.3-9.5,27.5c-2.4,7,2.7,15.6,9.8,17.3c7.8,1.8,14.7-2.3,17.3-9.8c3.2-9.2,6.4-18.3,9.5-27.5
						c-9.2-1.3-18.3-2.5-27.5-3.8c-2,14.9-4,29.8-6,44.7c-0.9,6.9,6,13,12.1,13.8c6.8,0.9,13.5-3.3,15.4-10
						c5.2-18.5,7.2-37.9,5.8-57.1c-0.5-7-4.9-12.8-12.1-13.8c-6.2-0.8-14.3,3.1-15.4,10c-3.6,22.6-3.3,44.9,1.2,67.3
						c1.4,6.8,8.9,10.9,15.4,10.1c7.3-1,11.4-6.7,12.2-13.7c2-19.2,4.1-38.5,6.1-57.7c-9.3,0-18.7-0.1-28-0.1
						c-1.4,22.5,1.7,45.4,9.3,66.6c2.3,6.6,8.1,11.1,15.4,10.1c7.1-0.9,11.7-6.7,12.2-13.7c1.2-17,2.3-34.1,3.6-51.2
						c0.5-7-5.7-12.9-12.1-13.8c-6.8-0.9-13.5,3.3-15.4,10c-3.9,13.6-7.7,27.2-11.6,40.8c9,2.5,18,5,27,7.5
						c2-12.5,5.1-24.8,9.2-36.7c1.1-3,2.1-6,3.3-8.9c0.5-1.3,1-2.5,1.5-3.8c-1,2.3,1.1-2.4,1.3-2.9c2.6-5.8,5.5-11.4,8.6-16.9
						c5.3-9.5-1.4-20.7-12-21.1c-18-0.8-35.9-1.5-53.9-2.3c-7.9-0.3-13.6,6.7-14,14c-1.6,28.8-3.2,57.5-4.8,86.3
						c-0.5,7.6,6.7,14,14,14c5.2,0.1,10.4,0.3,15.5,0.8c1.2,0.1,2.3,0.2,3.5,0.4c0.8,0.1,3.2,0.4,1.2,0.2c2.6,0.4,5.2,0.8,7.7,1.3
						c10,1.9,19.8,4.6,29.3,8.1c8.4,3.1,18.1-4.8,17.8-13.5c-1.1-29.2,0.2-58.5,3.8-87.5c0.9-7.3-7-14.3-14-14
						C1139.9,1736.7,1135.2,1742.6,1134.3,1750.4L1134.3,1750.4z"/>
				</g>
			</g>
		</g>
		<g id="Layer_1_1_">
			<g>
				<g transform="translate(134.5999984741211,86.56602096559394)">
					<g>
						<g>
							<path class="st3" d="M744.2,164.6c-25,0-45.2,20.2-45.2,45.2s20.2,45.2,45.2,45.2c25,0,45.2-20.2,45.2-45.2
								S769.2,164.6,744.2,164.6z"/>
							<path class="st3" d="M1923,1162.3c-12.9-7.5-27.2-13.3-43.9-17.4c8.3-8.6,15.2-18.6,20.8-29.8c6.5-13,7.5-27.8,2.7-41.7
								c-4.8-13.9-14.6-25.1-27.7-31.5c-82.8-40.3-184.2-63.1-318.7-71.7c-40.2-22.3-88.7-41.7-147.5-55.1
								c-198.4-45.4-355.7-45.1-431.9-40.9c-11.5,0.7-22.6-3.4-31-11.4c-8.4-8-13-18.9-12.9-30.6l5-527.1
								c0.1-3.3,1.9-330.1-213.2-337.7C493.2-41,456.8,98.7,451.3,132.4c-12.5,9.8-31.4,20.8-67.9,29.3c-30.6,7.2-62,9.2-89.8,11
								c-57.9,3.7-112.5,7.3-119.1,61.5c-1.3,10.8,1.1,26.7,19.5,41.7c50.4,41.1,212,58.3,315,63.8
								c-27.3,128.6-171.6,851.5-17.2,1076.1c123.1,179,270.3,222.5,428.3,236.6v84.1c-75.6,8-139.8,40.2-191,95.9
								c-4.2,4.5-5.2,11-2.8,16.6s8,9.2,14.1,9.2h189.2c-6.3,5.8-12.4,11.8-18.3,18.3c-4.2,4.5-5.2,11-2.8,16.6
								c2.4,5.6,8,9.2,14.1,9.2h442.2c6,0,11.5-3.5,14-9c2.5-5.5,1.6-11.9-2.4-16.4c-43.5-49.9-90.6-80.4-143.6-92.8v-130
								c234.1-30.4,581.3-152.2,716-402.5C1965.7,1219.9,1954.4,1180.7,1923,1162.3z M492.1,220.9c-11.8,11.3-28.4,16.9-50.3,16.9
								c-7,0-14.5-0.6-22.6-1.7c-8.4-1.1-14.2-8.9-13.1-17.3c1.1-8.4,8.9-14.3,17.3-13.1c23.3,3.3,39.2,0.9,47.4-7
								c6.1-5.9,15.8-5.6,21.7,0.5C498.5,205.2,498.3,215,492.1,220.9z M778.7,1827.3c44.2-36.9,97.1-57.6,157.8-61.5
								c8-0.5,14.4-7.3,14.4-15.3v-95.8c22.8,1.5,45.8,2.6,68.9,3.6v94.2c0,7.4,5.4,13.8,12.7,15.1c17.4,3.1,33.9,8.5,49.9,15.9
								c-41.5,7-79.4,21.7-113.2,43.9L778.7,1827.3L778.7,1827.3z M1050.5,1739.9v-80.5l52,2v97.6
								C1085.6,1750.6,1068.4,1744.1,1050.5,1739.9z M1328.7,1871.4H960.9c44.2-36.9,97.1-57.6,157.8-61.5c8-0.5,14.4-7.3,14.4-15.3
								v-133c21.1-0.3,44.2-1.7,68.9-4.2v139c0,7.4,5.4,13.8,12.7,15.1C1256,1818.8,1293.6,1838.5,1328.7,1871.4z M1921.6,1236.9
								c-157.2,291.9-618.2,402-819.2,393.7c-15.6-0.7-31.1-1.2-46.4-1.7c-209.4-7.6-390.2-14.1-539-230.5
								c-147.5-214.6,0.2-949.3,23-1057.3l55.9,0.2v0.2c39-5.7,62.3-31.5,62.3-69c0-44.6-39.2-67.5-66-75.4
								c-9.3-23.8-38.3-87.8-81.3-92.3c-8.3-0.8-15.2-0.2-21.1,1.4C508.2,61.9,562.3-7.1,723.5-1.8
								c185.2,6.5,183.7,303.6,183.6,306.6l-5,527.1c-0.2,20,8,39.3,22.4,53.1c14.6,13.9,33.6,21.3,53.9,19.8
								c74.5-4.2,228.6-4.5,423.3,40.1c57.3,13.1,104.1,32.1,142.6,53.9c0.1,0.1,0.2,0.1,0.3,0.2c72.6,41.1,115.1,92.4,139.6,135.1
								c42,73.2,43.3,142.2,31.8,179c-21.7,69.3-97.6,153.9-502.8,88.2c-346.6-56.2-375.5-276.9-376.6-286.3
								c-0.9-8.4-8.3-14.5-16.9-13.6c-8.4,0.9-14.5,8.5-13.6,16.9c0.3,2.5,31.3,253.2,402.2,313.3c97.6,15.8,181.3,23.8,251.6,23.8
								c165,0,257.2-43.9,285.3-133.2c14.1-44.8,12.4-121.7-34.5-203.5c-20.2-35.3-51.7-76.1-100.1-113.2
								c102.6,10.6,183.4,31.2,250.6,63.9c5.8,2.8,10,7.7,12.1,13.8c2,6.1,1.7,12.5-1.1,18.1c-8.7,17.4-21.1,30.1-38.1,38.9
								c-6,3.1-9.2,9.8-8,16.4c1.2,6.7,6.7,11.7,13.4,12.5c28.9,3.2,50.4,9.4,67.7,19.6C1924.3,1198.7,1930.6,1220.3,1921.6,1236.9z
								"/>
						</g>
					</g>
				</g>
			</g>
			<g>
				<g>
					<path class="st2" d="M622,423c19.9-0.6,39.9-1.2,59.8-1.8c7.3-0.2,14.4-6.2,14-14c-0.3-7.4-6.1-14.3-14-14
						c-19.9,0.6-39.9,1.2-59.8,1.8c-7.3,0.2-14.4,6.2-14,14C608.2,416.3,614.1,423.2,622,423L622,423z"/>
				</g>
			</g>
			<g>
				<g>
					<path class="st2" d="M620.5,419.7c21.4-1,42.8-1.9,64.2-2.9c7.3-0.3,14.4-6.1,14-14c-0.3-7.3-6.1-14.4-14-14
						c-21.4,1-42.8,1.9-64.2,2.9c-7.3,0.3-14.4,6.1-14,14C606.8,413,612.6,420.1,620.5,419.7L620.5,419.7z"/>
				</g>
			</g>
		</g>
		<g id="Layer_1_copy">
			<g>
				<g transform="translate(134.5999984741211,86.56602096559394)">
					<g>
						<g>
							<path class="st4" d="M744.2,164.6c-25,0-45.2,20.2-45.2,45.2s20.2,45.2,45.2,45.2c25,0,45.2-20.2,45.2-45.2
								S769.2,164.6,744.2,164.6z"/>
							<path class="st4" d="M1923,1162.3c-12.9-7.5-27.2-13.3-43.9-17.4c8.3-8.6,15.2-18.6,20.8-29.8c6.5-13,7.5-27.8,2.7-41.7
								c-4.8-13.9-14.6-25.1-27.7-31.5c-82.8-40.3-184.2-63.1-318.7-71.7c-40.2-22.3-88.7-41.7-147.5-55.1
								c-198.4-45.4-355.7-45.1-431.9-40.9c-11.5,0.7-22.6-3.4-31-11.4c-8.4-8-13-18.9-12.9-30.6l5-527.1
								c0.1-3.3,1.9-330.1-213.2-337.7C493.2-41,456.8,98.7,451.3,132.4c-12.5,9.8-31.4,20.8-67.9,29.3c-30.6,7.2-62,9.2-89.8,11
								c-57.9,3.7-112.5,7.3-119.1,61.5c-1.3,10.8,1.1,26.7,19.5,41.7c50.4,41.1,212,58.3,315,63.8
								c-27.3,128.6-171.6,851.5-17.2,1076.1c123.1,179,270.3,222.5,428.3,236.6v84.1c-75.6,8-139.8,40.2-191,95.9
								c-4.2,4.5-5.2,11-2.8,16.6s8,9.2,14.1,9.2h189.2c-6.3,5.8-12.4,11.8-18.3,18.3c-4.2,4.5-5.2,11-2.8,16.6
								c2.4,5.6,8,9.2,14.1,9.2h442.2c6,0,11.5-3.5,14-9c2.5-5.5,1.6-11.9-2.4-16.4c-43.5-49.9-90.6-80.4-143.6-92.8v-130
								c234.1-30.4,581.3-152.2,716-402.5C1965.7,1219.9,1954.4,1180.7,1923,1162.3z M460,310.1c-57.4-4.1-115.1-10.2-171.2-23.2
								c-13.4-3.1-27-6.2-40.1-10.5c-12.9-4.2-25.6-11-32.7-23c-6.9-11.6-8-26.3,0.5-37.3c6.7-8.7,16.8-12.4,27.3-14.2
								c11.7-1.9,23-1.2,34.7-0.4c3.3,0.2,6.6,0.5,9.8,0.7c4.7-0.2,9.3-0.5,14-0.7c4.2-0.2,8.4-0.1,12.6-0.1c0.2,0,0.5-0.1,0.7-0.1
								c10.1-1.4,20.2-2.9,30.3-4.2c10.1-1.4,20.3-2.3,30.3-4c0.7-0.1,1.3-0.2,2-0.3c6.7-1.3,13.5-2.7,20.2-4.2
								c8-1.8,15.9-4,23.8-6.6c7.3-2.3,15.2-5.2,21.3-8.2c5.1-2.5,10.3-4.8,15.3-7.5c6.9-6.1,13.6-12.5,21.2-17.7
								c1.1-1.5,2.7-2.5,4.5-2.9c13.3-7.7,30-10.2,43.8-2.1c14.4,8.5,23.2,24.2,28.8,39.4c2.8,7.6,4.8,15.4,7.7,22.9
								c0.2,0.5,0.3,0.8,0.4,1c0.2,0.4,0.3,0.7,0.5,1.1c0.5,1.2,1.1,2.5,1.7,3.8c-0.1-0.2-0.1-0.2,0.2,0.5c-0.1-0.2-0.2-0.4-0.2-0.5
								c0.2,0.3,0.5,1.2,0.6,1.4c0.4,0.8,0.8,1.7,1.2,2.5c0.4,0.8,0.8,1.5,1.2,2.3c0,0,0,0,0.1,0c3.9,2.7,6.3,3.3,10.8,4.7
								c4.2,1.3,8.7,1.9,13,3c9.2,2.5,18.6,6,25.9,12.3c18,15.2,12.9,42.5-1.2,58.4c-8,9-20.8,13.2-32.2,15.7
								c-13.3,2.9-27,3.1-40.5,2.5C517.4,313.3,488.6,312.1,460,310.1z M778.7,1827.4L778.7,1827.4c44.2-36.9,97.1-57.6,157.8-61.5
								c8-0.5,14.4-7.3,14.4-15.3v-95.8c22.8,1.5,45.8,2.6,68.9,3.6v94.2c0,7.4,5.4,13.8,12.7,15.1c17.4,3.1,33.9,8.5,49.9,15.9
								c-41.5,7-79.4,21.7-113.2,43.9H778.7V1827.4z M1050.5,1739.9v-80.5l52,2v97.6C1085.6,1750.6,1068.4,1744.1,1050.5,1739.9z
								 M1328.7,1871.4H960.9c44.2-36.9,97.1-57.6,157.8-61.5c8-0.5,14.4-7.3,14.4-15.3v-133c21.1-0.3,44.2-1.7,68.9-4.2v139
								c0,7.4,5.4,13.8,12.7,15.1C1256,1818.8,1293.6,1838.5,1328.7,1871.4z M1921.6,1236.9c-157.2,291.9-618.2,402-819.2,393.7
								c-15.6-0.7-31.1-1.2-46.4-1.7c-209.4-7.6-390.2-14.1-539-230.5c-147.5-214.6,0.2-949.3,23-1057.3l55.9,0.2v0.2
								c39-5.7,62.3-31.5,62.3-69c0-44.6-39.2-67.5-66-75.4c-9.3-23.8-38.3-87.8-81.3-92.3c-8.3-0.8-15.2-0.2-21.1,1.4
								C508.2,61.9,562.3-7.1,723.5-1.8c185.2,6.5,183.7,303.6,183.6,306.6l-5,527.1c-0.2,20,8,39.3,22.4,53.1
								c14.6,13.9,33.6,21.3,53.9,19.8c74.5-4.2,228.6-4.5,423.3,40.1c57.3,13.1,104.1,32.1,142.6,53.9c0.1,0.1,0.2,0.1,0.3,0.2
								c72.6,41.1,115.1,92.4,139.6,135.1c42,73.2,43.3,142.2,31.8,179c-21.7,69.3-97.6,153.9-502.8,88.2
								c-346.6-56.2-375.5-276.9-376.6-286.3c-0.9-8.4-8.3-14.5-16.9-13.6c-8.4,0.9-14.5,8.5-13.6,16.9
								c0.3,2.5,31.3,253.2,402.2,313.3c97.6,15.8,181.3,23.8,251.6,23.8c165,0,257.2-43.9,285.3-133.2
								c14.1-44.8,12.4-121.7-34.5-203.5c-20.2-35.3-51.7-76.1-100.1-113.2c102.6,10.6,183.4,31.2,250.6,63.9
								c5.8,2.8,10,7.7,12.1,13.8c2,6.1,1.7,12.5-1.1,18.1c-8.7,17.4-21.1,30.1-38.1,38.9c-6,3.1-9.2,9.8-8,16.4
								c1.2,6.7,6.7,11.7,13.4,12.5c28.9,3.2,50.4,9.4,67.7,19.6C1924.3,1198.7,1930.6,1220.3,1921.6,1236.9z"/>
						</g>
					</g>
				</g>
			</g>
		</g>
	</g>
</g>
<g id="Layer_5">
</g>
</svg>
