<svg xmlns="http://www.w3.org/2000/svg" xmlns:xlink="http://www.w3.org/1999/xlink" version="1.0" x="0" y="0" width="2400" height="2601.6601779839543" viewBox="133.89200607299804 85.85802474975586 72.21600311279298 78.28395812988282" preserveAspectRatio="xMidYMid meet" color-interpolation-filters="sRGB"><g><defs><linearGradient id="92" x1="0%" y1="0%" x2="100%" y2="0%"><stop offset="0%" stop-color="#fa71cd"></stop> <stop offset="100%" stop-color="#9b59b6"></stop></linearGradient><linearGradient id="93" x1="0%" y1="0%" x2="100%" y2="0%"><stop offset="0%" stop-color="#f9d423"></stop> <stop offset="100%" stop-color="#f83600"></stop></linearGradient><linearGradient id="94" x1="0%" y1="0%" x2="100%" y2="0%"><stop offset="0%" stop-color="#0064d2"></stop> <stop offset="100%" stop-color="#1cb0f6"></stop></linearGradient><linearGradient id="95" x1="0%" y1="0%" x2="100%" y2="0%"><stop offset="0%" stop-color="#f00978"></stop> <stop offset="100%" stop-color="#3f51b1"></stop></linearGradient><linearGradient id="96" x1="0%" y1="0%" x2="100%" y2="0%"><stop offset="0%" stop-color="#7873f5"></stop> <stop offset="100%" stop-color="#ec77ab"></stop></linearGradient><linearGradient id="97" x1="0%" y1="0%" x2="100%" y2="0%"><stop offset="0%" stop-color="#f9d423"></stop> <stop offset="100%" stop-color="#e14fad"></stop></linearGradient><linearGradient id="98" x1="0%" y1="0%" x2="100%" y2="0%"><stop offset="0%" stop-color="#009efd"></stop> <stop offset="100%" stop-color="#2af598"></stop></linearGradient><linearGradient id="99" x1="0%" y1="0%" x2="100%" y2="0%"><stop offset="0%" stop-color="#ffcc00"></stop> <stop offset="100%" stop-color="#00b140"></stop></linearGradient><linearGradient id="100" x1="0%" y1="0%" x2="100%" y2="0%"><stop offset="0%" stop-color="#d51007"></stop> <stop offset="100%" stop-color="#ff8177"></stop></linearGradient><linearGradient id="102" x1="0%" y1="0%" x2="100%" y2="0%"><stop offset="0%" stop-color="#a2b6df"></stop> <stop offset="100%" stop-color="#0c3483"></stop></linearGradient><linearGradient id="103" x1="0%" y1="0%" x2="100%" y2="0%"><stop offset="0%" stop-color="#7ac5d8"></stop> <stop offset="100%" stop-color="#eea2a2"></stop></linearGradient><linearGradient id="104" x1="0%" y1="0%" x2="100%" y2="0%"><stop offset="0%" stop-color="#00ecbc"></stop> <stop offset="100%" stop-color="#007adf"></stop></linearGradient><linearGradient id="105" x1="0%" y1="0%" x2="100%" y2="0%"><stop offset="0%" stop-color="#b88746"></stop> <stop offset="100%" stop-color="#fdf5a6"></stop></linearGradient></defs><g class="imagesvg isNoFont" transform="translate(134.5999984741211,86.56602096559394)"><g><rect fill="#A0323F" fill-opacity="0" stroke-width="2" x="0" y="0" width="70.80000000000001" height="76.86795648491956" class="image-rect"></rect> <svg filter="url(#colors5507567483)" x="0" y="0" width="70.80000000000001" height="76.86795648491956" filtersec="colorsf4781032708" class="image-svg-svg primary" style="overflow: visible;"><svg xmlns="http://www.w3.org/2000/svg" xmlns:xlink="http://www.w3.org/1999/xlink" version="1.1" x="0px" y="0px" viewBox="-0.00017393194139003754 0.0002349112182855606 116.03833770751953 125.9837646484375" xml:space="preserve"><g><path d="M37.108,12.859c-1.626,0-2.945,1.318-2.945,2.945c0,1.626,1.318,2.945,2.945,2.945s2.945-1.318,2.945-2.945   C40.053,14.177,38.735,12.859,37.108,12.859z"></path><path d="M113.849,77.818c-0.837-0.49-1.772-0.863-2.86-1.135c0.538-0.56,0.992-1.207,1.357-1.939   c0.423-0.848,0.486-1.812,0.179-2.716c-0.309-0.907-0.95-1.637-1.806-2.053c-5.392-2.624-11.994-4.108-20.745-4.67   c-2.621-1.453-5.776-2.712-9.601-3.589c-12.916-2.961-23.16-2.941-28.118-2.662c-0.751,0.045-1.472-0.223-2.019-0.744   c-0.548-0.523-0.846-1.231-0.839-1.991l0.325-34.312c0.003-0.215,0.124-21.49-13.885-21.983   C20.766-0.524,18.392,8.568,18.04,10.762c-0.816,0.637-2.043,1.352-4.417,1.909c-1.992,0.467-4.04,0.6-5.848,0.717   c-3.77,0.244-7.329,0.476-7.756,4.006c-0.084,0.697,0.068,1.733,1.271,2.715c3.28,2.677,13.804,3.795,20.505,4.151   c-1.778,8.375-11.17,55.437-1.118,70.059c8.013,11.658,17.597,14.489,27.885,15.403v5.476c-4.92,0.524-9.101,2.621-12.438,6.242   c-0.269,0.292-0.34,0.716-0.181,1.079s0.519,0.599,0.916,0.599H49.18c-0.408,0.377-0.808,0.77-1.193,1.188   c-0.269,0.292-0.34,0.715-0.181,1.079c0.159,0.363,0.519,0.599,0.916,0.599h28.785c0.392,0,0.748-0.229,0.91-0.586   c0.162-0.356,0.102-0.775-0.156-1.07c-2.831-3.252-5.897-5.234-9.351-6.039v-8.464c15.237-1.979,37.844-9.909,46.614-26.2   C116.631,81.569,115.895,79.018,113.849,77.818z M20.698,16.526c-0.771,0.736-1.85,1.1-3.277,1.1c-0.455,0-0.944-0.037-1.472-0.11   c-0.547-0.076-0.928-0.581-0.852-1.129c0.075-0.547,0.578-0.933,1.129-0.852c1.513,0.212,2.554,0.059,3.089-0.454   c0.401-0.383,1.033-0.366,1.414,0.031C21.111,15.511,21.096,16.144,20.698,16.526z M39.351,121.117   c2.874-2.402,6.32-3.746,10.275-4.004c0.525-0.034,0.935-0.471,0.935-0.998v-6.24c1.483,0.099,2.978,0.17,4.484,0.23v6.133   c0,0.485,0.349,0.9,0.826,0.984c1.136,0.201,2.208,0.554,3.25,1.037c-2.703,0.456-5.167,1.411-7.375,2.859H39.351z M57.046,115.422   v-5.242l3.381,0.127v6.359C59.338,116.119,58.21,115.696,57.046,115.422z M75.161,123.984H51.216   c2.875-2.402,6.321-3.746,10.275-4.004c0.525-0.034,0.935-0.471,0.935-0.998v-8.658c1.375-0.021,2.877-0.11,4.484-0.27v9.05   c0,0.485,0.349,0.9,0.826,0.984C70.428,120.563,72.873,121.843,75.161,123.984z M113.763,82.677   c-10.231,19.007-40.248,26.173-53.333,25.63c-1.014-0.042-2.02-0.078-3.017-0.114c-13.632-0.492-25.404-0.917-35.089-15.007   c-9.604-13.972,0.014-61.802,1.499-68.836l3.641,0.008l0.002,0.009c2.541-0.372,4.059-2.053,4.059-4.495   c0-2.905-2.555-4.396-4.293-4.91c-0.606-1.547-2.492-5.714-5.292-6.005c-0.543-0.056-0.985-0.012-1.371,0.089   c1.18-2.873,4.702-7.364,15.199-7.023c12.06,0.425,11.958,19.764,11.955,19.962l-0.325,34.315   c-0.013,1.301,0.519,2.561,1.458,3.457c0.95,0.907,2.192,1.384,3.511,1.294c4.85-0.27,14.882-0.29,27.56,2.615   c3.731,0.855,6.776,2.089,9.282,3.506c0.006,0.003,0.011,0.007,0.018,0.01c4.725,2.677,7.496,6.019,9.089,8.797   c2.732,4.767,2.823,9.257,2.07,11.653c-1.417,4.514-6.352,10.022-32.729,5.746c-22.576-3.66-24.452-18.028-24.521-18.636   c-0.058-0.548-0.543-0.943-1.101-0.888c-0.549,0.059-0.946,0.551-0.888,1.101c0.018,0.164,2.036,16.481,26.188,20.397   c6.354,1.029,11.8,1.549,16.384,1.549c10.741,0,16.746-2.853,18.573-8.67c0.916-2.915,0.808-7.927-2.243-13.248   c-1.318-2.299-3.365-4.957-6.518-7.369c6.677,0.692,11.94,2.032,16.313,4.16c0.373,0.181,0.652,0.5,0.787,0.897   c0.135,0.395,0.108,0.813-0.074,1.18c-0.567,1.136-1.378,1.964-2.479,2.532c-0.392,0.202-0.604,0.637-0.524,1.07   s0.435,0.764,0.873,0.813c1.878,0.208,3.279,0.613,4.411,1.276C113.932,80.185,114.348,81.591,113.763,82.677z"></path></g></svg></svg> <defs><filter id="colors5507567483"><feColorMatrix type="matrix" values="0 0 0 0 0.625  0 0 0 0 0.1953125  0 0 0 0 0.24609375  0 0 0 1 0" class="icon-feColorMatrix "></feColorMatrix></filter> <filter id="colorsf4781032708"><feColorMatrix type="matrix" values="0 0 0 0 0.99609375  0 0 0 0 0.99609375  0 0 0 0 0.99609375  0 0 0 1 0" class="icon-fecolormatrix"></feColorMatrix></filter> <filter id="colorsb6484877246"><feColorMatrix type="matrix" values="0 0 0 0 0  0 0 0 0 0  0 0 0 0 0  0 0 0 1 0" class="icon-fecolormatrix"></feColorMatrix></filter></defs></g></g><defs v-gra="od"></defs></g></svg>