<?xml version="1.0" encoding="utf-8"?>
<!-- Generator: Adobe Adobe Illustrator 24.2.0, SVG Export Plug-In . SVG Version: 6.00 Build 0)  -->
<svg version="1.1" xmlns="http://www.w3.org/2000/svg" xmlns:xlink="http://www.w3.org/1999/xlink" x="0px" y="0px" width="2620px"
	 height="2620px" viewBox="0 0 2620 2620" style="enable-background:new 0 0 2620 2620;" xml:space="preserve">
<style type="text/css">
	.st0{fill:#FFF9F4;stroke:#A0323F;stroke-miterlimit:10;}
	.st1{fill:#A0323F;}
	.st2{fill:#A0323F;stroke:#FFF9F4;stroke-miterlimit:10;}
	.st3{stroke:#000000;stroke-miterlimit:10;}
</style>
<g id="Layer_2">
	<path class="st0" d="M2431.2,1632.6l-80.4-29.5l40.2-91.2l-72.4-61.7l-209.1-45.6l-123.1-43.2c-1.2,1.9-3.3,3.2-6,2.9
		c-1.7,1.6-4,2.4-6.5,1.4c-0.7-0.3-1.4-0.5-2-0.8c-0.6-0.1-1.2-0.2-1.8-0.4c-7.5-3.1-15.2-5.8-22.8-8.6c-1.7-0.6-3.5-1.1-5.2-1.7
		c-1.2-0.4-2.2-1.1-3-1.9c-7.1-2.6-14.2-5.4-21.3-8.2c-3.4-1.3-5.9-4.3-5.3-8.1l-202.6-63.5l-250.3-36.7l-225-7.4l-110.4,16
		c0,0-14.1-84.8-17.5-107.8c-3.4-23,8-150.1,8-150.1V879.2l2.7-168.9l8-147.5L1104,380.5l-53.6-174.3l-48.3-96.5l-85.8-34.9
		l-101.9-2.7l-80.4-8l-109.9,40.2l-91.2,93.8l-18.8,99.2l-80.4,42.9l-5.4,101.9l101.9,42.9l61.7,21.5l-5.4,91.2l-32.2,134.1
		l-18.8,147.5l-29.5,160.9l-18.8,203.8l-10.7,139.4l10.7,185l18.8,195.7l104.6,227.9l174.3,163.6l142.1,64.3l179.6,26.8l64.3-8
		l461.2-16.1l286.9-88.5l235.9-91.2l150.1-134.1l115.3-115.3l40.2-101.9L2431.2,1632.6z"/>
</g>
<g id="Layer_3">
	<path class="st0" d="M1693.7,2561.1l-66.8-57l-115.3-48.3l11-229.4l-389.1,6.9l8,147.5l-168.9,50.9l-64.3,75.1l193,5.4l77.8-5.4
		l-5.4,64.3L1693.7,2561.1z M1282.9,2324.9c-0.8-2.7-1.3-5.5-1.7-8.4c-4.6-14.3-4-29.8,1.6-43.7c0-0.2,0-0.4,0-0.6
		c0-5.2,2.9-10,7.3-12.6c1.9-2.6,3.9-5.1,6.2-7.5c6.3-6.5,19.3-5.7,23.5,3c0.1,0.3,0.3,0.6,0.4,0.9c0.2-0.1,0.5-0.2,0.7-0.3
		c7.6-2.6,15.5-3.3,23.3-2.4c3-2.6,6.9-3.6,10.6-3.2c7.9-2.1,16.5,2.8,18.7,10.8c12.3,44.8,11.7,92.4,1.4,137.5
		c-2.8,12.2-17.7,12.8-24.7,5.5c-4.4,1-9.2,0.1-13.1-3c-7.4,1.8-15.3,1.6-23.1-1.3c-4.6-1.7-9.1-4.3-13.2-7.5
		c-1.1,0.3-2.3,0.5-3.5,0.5c-7.8,0-14.3-6.6-14.4-14.4c0-0.3,0-0.5,0-0.8c-0.1-0.5-0.1-1.1-0.1-1.6c0-2,0-4,0-6
		c-6.2-12.9-7.4-27.7-0.1-40.4C1282.9,2328,1282.9,2326.5,1282.9,2324.9z"/>
</g>
<g id="Layer_6">
	<g>
		<g>
			<path class="st1" d="M1333.1,2528.5c10.2-2.9,20.6-5.4,31.1-7.3c2.5-0.4,4.9-0.9,7.4-1.3c1.2-0.2,2.5-0.4,3.7-0.6
				c5.9-0.9-1.8,0.2,1.6-0.2c5.3-0.6,10.6-1.2,15.9-1.5c10.3-0.7,20.6-0.9,31-0.6c5.3,0.2,10.6,0.4,15.9,0.9
				c2.8,0.2,5.6,0.5,8.4,0.8c1.2,0.1,2.5,0.3,3.7,0.4c0.6,0.1,4.7,0.6,1.6,0.2c9.5,1.3,20.3-2.2,22.8-12.9c2-8.7-2.6-21.4-12.9-22.8
				c-46.9-6.6-94.3-4-140,9.2c-9.3,2.7-16.1,13.1-13,22.7C1313.4,2525,1323.2,2531.4,1333.1,2528.5L1333.1,2528.5z"/>
		</g>
	</g>
	<g>
		<g>
			<path class="st1" d="M1195.1,2561.4c19.3-2.6,38.5-5.3,57.8-7.9c9.1-1.2,14.4-12.2,13.3-20.3c-1.1-8.4-8.9-16.9-18.1-16.1
				c-23.8,2.2-47.6,4.5-71.4,6.7c1.6,12.1,3.2,24.2,4.8,36.4c33.5-8,66.5-13.6,98.1-16.8c34.1-3.4,68.3-4.5,102.5-3.4
				c0-12.3,0.1-24.7,0.1-37c-44.5,4.8-89.1,9.6-133.6,14.4c1.6,12.1,3.2,24.2,4.8,36.4c5.1-0.9,10.2-1.7,15.3-2.4
				c-2,0.3-0.1,0,0.8-0.1c1.6-0.2,3.2-0.4,4.8-0.6c2.6-0.3,5.1-0.5,7.7-0.8c10.6-0.9,21.2-1.5,31.8-1.5c10.3-0.1,20.6,0.3,30.9,1
				c5.5,0.4,10.9,0.9,16.4,1.5c1.3,0.1,2.6,0.3,3.8,0.5c0.3,0,3.8,0.5,2.3,0.3c-1.5-0.2,2,0.3,2.3,0.3c1.6,0.2,3.2,0.5,4.8,0.7
				c1.7-12.1,3.3-24.2,5-36.3c-33.5,0.7-67,1.4-100.5,2.1c-9.7,0.2-19,8.3-18.5,18.5c0.4,10.1,8.1,18.4,18.5,18.5
				c96.5,1.3,193,2.6,289.5,4c27.3,0.4,54.6,0.7,81.9,1.1c9.2,0.1,17-7.1,18.2-16c1.2-8.8-4.2-18.1-13.2-20.3
				c-68-16.7-137.4-27.8-207.1-33.2c-19.7-1.5-39.4-2.6-59.2-3.2c0,12.3-0.1,24.7-0.1,37c68,2,136.1,3.9,204.1,5.9
				c9.2,0.3,17-7.2,18.2-16c1.2-8.7-4.2-18.2-13.2-20.3c-48.4-11.4-98.6-15.5-148.2-11.3c-9.6,0.8-19,7.9-18.5,18.5
				c0.4,10.1,8.1,18.5,18.5,18.5c14.8,0.1,29.7,0.7,44.5,1.9c7.2,0.6,14.5,1.3,21.7,2.2c1.9,0.2,3.8,0.5,5.6,0.7
				c6.2,0.8-3.6-0.5,2.6,0.4c3.8,0.5,7.5,1.1,11.2,1.7c29.3,4.8,58.2,11.9,86.4,21.1c3.3-11.9,6.6-23.8,9.9-35.7
				c-22.8-5.6-45.5-11.2-68.3-16.8c-3.3,11.9-6.6,23.8-9.9,35.7c24,4.3,48,8.6,72,12.9c9.5,1.7,20.4-2.5,22.8-12.9
				c2.1-9.2-2.7-20.8-12.9-22.8c-69.4-13.9-140.1-21.6-210.9-22.6c-19.8-0.3-39.6,0-59.4,0.7c-9.7,0.4-19,8.2-18.5,18.5
				c0.4,10.1,8.1,18.4,18.5,18.5c29.2,0.5,58.4,1,87.6,1.4c9.7,0.2,19-8.6,18.5-18.5c-0.4-10.2-8.1-18.3-18.5-18.5
				c-67.8-1.6-135.5-3.1-203.3-4.7c0,12.3-0.1,24.7-0.1,37c26.7-1.5,53.4-2.9,80.1-4.4c9.6-0.5,19-8.1,18.5-18.5
				c-0.4-10.6-8.1-17.8-18.5-18.5c-40.4-2.9-80.4,4.9-117.4,20.9c-8.4,3.7-10.8,15.5-7.6,23.1c3.8,9.1,12.5,12.2,21.8,10.8
				c19.9-3,39.8-6,59.7-9c9.6-1.4,15.8-14,13-22.7c-3.4-10.5-12.4-14.5-22.7-13c-28.3,4.2-56.5,8.3-84.8,12.5
				c3.2,11.9,6.5,23.8,9.7,35.7c57.3-11.2,114.6-22.4,172-33.5c9-1.8,14.4-11.8,13.3-20.3c-1.1-8.3-9-17-18.1-16.1
				c-24.4,2.4-48.7,4.8-73.1,7.2c1.6,12.1,3.2,24.2,4.8,36.4c4.4-0.9,8.9-1.7,13.3-2.4c1.9-0.3,3.8-0.6,5.7-0.9
				c6.2-0.9-3.5,0.4,2.7-0.4c8.3-1,16.7-1.7,25-2.2c16.7-0.8,33.5-0.4,50.2,1.1c0-12.3,0.1-24.7,0.1-37c-27.5,0.9-55.1,1.9-82.6,2.8
				c0,12.3-0.1,24.7-0.1,37c11.7-0.9,23.3-1.9,35-2.8c-1.6-12.1-3.2-24.2-4.8-36.4c-11.8,1.6-23.7,3.2-35.5,4.7
				c-7.1,1-13.9,1.3-20.4,4.6c-5.1,2.6-10.1,5.1-15.2,7.5c-2.7,1.3,2.3-0.9-0.5,0.2c-1.4,0.5-2.8,1.1-4.2,1.6
				c-2.5,0.9-5,1.8-7.6,2.7c-5.4,1.8-10.9,3.3-16.4,4.5c-5.2,1.2-10.5,2.2-15.8,2.9c3.4-0.5-0.7,0-1.3,0.1c-1.5,0.2-3,0.3-4.5,0.4
				c-3,0.2-6,0.4-8.9,0.5c1.6,12.1,3.2,24.2,4.8,36.4c11.6-1.5,23.3-3.1,34.9-4.6c-3.2-11.9-6.5-23.8-9.7-35.7
				c-13,3.8-26.1,7.5-39.1,11.3c-9.3,2.7-16.1,13.1-13,22.7c3,9.4,12.8,15.9,22.7,13c13-3.8,26.1-7.5,39.1-11.3
				c9.3-2.7,16.1-13.1,13-22.7c-3.4-10.6-12.4-14.3-22.7-13c-11.6,1.5-23.3,3.1-34.9,4.6c-9.1,1.2-14.4,12.2-13.3,20.3
				c1.2,8.8,8.9,16.4,18.1,16.1c24-0.8,47.9-5.6,70.2-14.7c6.2-2.5,12.3-5.2,18.2-8.3c1.1-0.5,2.1-1.1,3.2-1.7
				c1.7-1,2.1-1.2,1.1-0.5c-0.8,0.5-0.6,0.5,0.5,0.2c2.3,0.6,7.3-1,9.6-1.3c12.5-1.7,25-3.3,37.5-5c9.1-1.2,14.4-12.2,13.3-20.3
				c-1.1-8.5-8.9-16.8-18.1-16.1c-11.7,0.9-23.3,1.9-35,2.8c-9.6,0.8-19,7.9-18.5,18.5c0.4,9.7,8.1,18.9,18.5,18.5
				c27.5-0.9,55.1-1.9,82.6-2.8c9.7-0.3,19-8.2,18.5-18.5c-0.5-10.8-8.1-17.6-18.5-18.5c-35.7-3.3-71.7-1-106.9,6.1
				c-9,1.8-14.4,11.8-13.3,20.3c1.1,8.3,9,17,18.1,16.1c24.4-2.4,48.7-4.8,73.1-7.2c-1.6-12.1-3.2-24.2-4.8-36.4
				c-57.3,11.2-114.6,22.4-172,33.5c-9.5,1.9-15.9,13.7-13,22.7c3.4,10.5,12.4,14.5,22.7,13c28.3-4.2,56.5-8.3,84.8-12.5
				c-3.2-11.9-6.5-23.8-9.7-35.7c-19.9,3-39.8,6-59.7,9c4.7,11.3,9.4,22.6,14.2,33.8c2-0.9,2.2-1,0.6-0.3c1.1-0.5,2.2-0.9,3.4-1.3
				c2.3-0.9,4.5-1.7,6.8-2.5c4-1.4,8-2.7,12.1-3.9c8.4-2.5,17-4.4,25.6-5.9c2.1-0.4,4.2-0.7,6.3-1c-3.7,0.5,3.4-0.4,4.1-0.5
				c4.2-0.4,8.4-0.7,12.7-0.9c9.1-0.4,18.2-0.2,27.2,0.4c0-12.3,0.1-24.7,0.1-37c-26.7,1.4-53.4,2.9-80.1,4.4
				c-9.6,0.5-19,8.1-18.5,18.5c0.4,10.2,8.1,18.3,18.5,18.5c67.8,1.6,135.5,3.1,203.3,4.7c0-12.3,0.1-24.7,0.1-37
				c-29.2-0.5-58.4-1-87.6-1.4c0,12.3-0.1,24.7-0.1,37c34.4-1.3,68.8-1.1,103.2,0.7c17.2,0.9,34.3,2.2,51.5,3.9
				c8.4,0.8,16.8,1.8,25.2,2.8c4.2,0.5,8.4,1,12.6,1.6c0,0,3.2,0.4,1.4,0.2c-1.8-0.2,1.4,0.2,1.4,0.2c2.6,0.4,5.1,0.7,7.7,1.1
				c19.3,2.8,38.5,6.2,57.6,10c3.3-11.9,6.6-23.8,9.9-35.7c-24-4.3-48-8.6-72-12.9c-9.5-1.7-20.4,2.5-22.8,12.9
				c-2.2,9.5,2.8,20.3,12.9,22.8c22.8,5.6,45.5,11.2,68.3,16.8c9.4,2.3,20.5-2.9,22.8-12.9c2.3-10.1-3-19.6-12.9-22.8
				c-58.6-19.1-120.3-29-181.9-29.4c0,12.3-0.1,24.7-0.1,37c23.6-2,47.4-2.2,71.1-0.5c5.8,0.4,11.5,0.9,17.2,1.6
				c2.9,0.3,5.7,0.7,8.6,1c3.5,0.4-4.3-0.7,1.8,0.2c1.3,0.2,2.5,0.4,3.8,0.6c12,1.9,24,4.2,35.9,7c1.7-12.1,3.3-24.2,5-36.3
				c-68-2-136.1-3.9-204.1-5.9c-9.7-0.3-19,8.6-18.5,18.5c0.4,10.3,8.1,18.2,18.5,18.5c34,1.1,67.9,3.5,101.7,7.3
				c8.4,0.9,16.7,2,25.1,3.1c0.4,0.1,4.3,0.6,2.4,0.3c-1.8-0.2,1.4,0.2,1.4,0.2c1.9,0.3,3.8,0.5,5.8,0.8c4.5,0.6,9,1.3,13.5,2
				c16.6,2.6,33.2,5.5,49.8,8.8c19.1,3.8,38,8,56.9,12.6c1.7-12.1,3.3-24.2,5-36.3c-96.5-1.3-193-2.6-289.5-4
				c-27.3-0.4-54.6-0.7-81.9-1.1c0,12.3-0.1,24.7-0.1,37c33.5-0.7,67-1.4,100.5-2.1c9.2-0.2,17-6.8,18.2-16
				c1.1-8.2-4.1-18.9-13.2-20.3c-46.9-7.5-93.9-7.2-140.6,0.9c-9,1.6-14.4,11.9-13.3,20.3c1.1,8.3,9,17.1,18.1,16.1
				c44.5-4.8,89.1-9.6,133.6-14.4c9.6-1,19-7.7,18.5-18.5c-0.4-10.3-8.1-18.2-18.5-18.5c-70.7-2.3-141.7,5.1-210.5,21.5
				c-9,2.1-14.5,11.5-13.3,20.3c1.1,8.4,8.9,16.9,18.1,16.1c23.8-2.2,47.6-4.5,71.4-6.7c-1.6-12.1-3.2-24.2-4.8-36.4
				c-19.3,2.6-38.5,5.3-57.8,7.9c-9.6,1.3-15.8,14.1-13,22.7C1175.8,2559,1184.8,2562.8,1195.1,2561.4L1195.1,2561.4z"/>
		</g>
	</g>
	<g>
		<g>
			<path class="st1" d="M1006.6,2457.3c-19.6,2.6-39.1,5.2-58.7,7.8c-9.1,1.2-14.4,12.2-13.3,20.3c1.1,8.2,9,17.2,18.1,16.1
				c26.1-3.1,52.2-6.1,78.3-9.2c9.6-1.1,19-7.6,18.5-18.5c-0.4-9.8-8.1-18.8-18.5-18.5c-21.5,0.5-43,0.9-64.5,1.4
				c0,12.3-0.1,24.7-0.1,37c26.3-3,52.6-6,78.8-9c0-12.3,0.1-24.7,0.1-37c-32.3,3.9-64.5,7.9-96.8,11.8c1.6,12.1,3.2,24.2,4.8,36.4
				c38.2-5.7,76.4-11.4,114.6-17.1c-3.2-11.9-6.5-23.8-9.7-35.7c-17.3,3-34.6,5.9-52,8.9c-9,1.6-14.4,11.9-13.3,20.3
				c1.1,8.4,8.9,16.9,18.1,16.1c60.1-5.3,120.6-4.9,180.6,1.4c0-12.3,0.1-24.7,0.1-37c-30.8,0.5-61.6,1-92.4,1.6
				c-9.7,0.2-19,8.3-18.5,18.5c0.4,10.2,8.1,18.3,18.5,18.5c40.4,0.8,80.9,1.6,121.3,2.4c9.7,0.2,19-8.6,18.5-18.5
				c-0.5-10.7-8.1-17.7-18.5-18.5c-57.6-4.6-115.5-5-173.2-1.5c-9.6,0.6-19,8-18.5,18.5c0.4,9.7,8.1,18.9,18.5,18.5
				c35.5-1.3,71-2.7,106.4-4c0-12.3,0.1-24.7,0.1-37c-49.3,2.2-98.6,4.4-147.9,6.6c0,12.3-0.1,24.7-0.1,37
				c45.4-3.1,90.7-6.2,136.1-9.3c9.6-0.7,19-8,18.5-18.5c-0.5-11-8.1-17.3-18.5-18.5c-55.6-6.9-111.8-7.9-167.6-3
				c1.6,12.1,3.2,24.2,4.8,36.4c27.4-6.9,55.2-12.2,83.2-16.2c0.6-0.1,1.3-0.2,1.9-0.3c-1.4,0.2-1.5,0.2-0.1,0
				c1.6-0.2,3.2-0.4,4.8-0.6c3.8-0.5,7.7-0.9,11.5-1.3c7-0.7,14.1-1.4,21.1-2c14.1-1.1,28.2-1.8,42.3-2.1c0-12.3,0.1-24.7,0.1-37
				c-47.2,1.5-94.5,3-141.7,4.5c0,12.3-0.1,24.7-0.1,37c54.7-5.8,109.4-11.5,164.1-17.3c9.6-1,19-7.7,18.5-18.5
				c-0.4-9.9-8.1-18.7-18.5-18.5c-39.9,0.7-79.8,1.4-119.6,2c-9.7,0.2-19,8.3-18.5,18.5c0.4,10.1,8.1,18.4,18.5,18.5
				c47.4,0.6,94.8,1.2,142.2,1.9c0-12.3,0.1-24.7,0.1-37c-18.5,0.3-37,0.7-55.5,1c-9.7,0.2-19,8.3-18.5,18.5
				c0.4,10.2,8.1,18.3,18.5,18.5c46.9,0.9,93.7,1.8,140.6,2.7c0-12.3,0.1-24.7,0.1-37c-31.4-0.3-62.8-0.7-94.2-1
				c0,12.3-0.1,24.7-0.1,37c44.9,0.2,89.8,0.4,134.8,0.7c9.7,0,19-8.5,18.5-18.5c-0.4-10.1-8.1-18.4-18.5-18.5
				c-20.7-0.3-41.4-0.6-62.2-1c0,12.3-0.1,24.7-0.1,37c22.8-0.1,45.7-0.2,68.5-0.3c9.7,0,19-8.4,18.5-18.5
				c-0.4-10.4-8.1-18.1-18.5-18.5c-18.6-0.8-37.2-1.6-55.8-2.5c-9.7-0.4-19,8.8-18.5,18.5c0.5,10.7,8.1,17.7,18.5,18.5
				c20.9,1.7,41.7,3.4,62.6,5.1c0-12.3,0.1-24.7,0.1-37c-37-3-74.4,0.1-110.6,8.5c-9,2.1-14.5,11.5-13.3,20.3
				c1.2,9.3,8.8,15.6,18.1,16.1c22.8,1.1,45.6,2.2,68.4,3.3c0-12.3,0.1-24.7,0.1-37c-42.1,2-84.1,4-126.2,6
				c-9.7,0.5-19,8.1-18.5,18.5c0.4,9.9,8.1,18.7,18.5,18.5c31.9-0.4,63.7-0.7,95.6-1.1c9.7-0.1,19-8.4,18.5-18.5
				c-0.4-10.5-8.1-17.9-18.5-18.5c-21-1.3-42.1-2.6-63.1-4c-9.7-0.6-19,8.9-18.5,18.5c0.4,10.5,8.1,17.9,18.5,18.5
				c21,1.3,42.1,2.6,63.1,4c0-12.3,0.1-24.7,0.1-37c-31.9,0.4-63.7,0.7-95.6,1.1c0,12.3-0.1,24.7-0.1,37c42.1-2,84.1-4,126.2-6
				c9.7-0.5,19-8.1,18.5-18.5c-0.4-10.4-8.1-18-18.5-18.5c-22.8-1.1-45.6-2.2-68.4-3.3c1.6,12.1,3.2,24.2,4.8,36.4
				c8.6-2,17.3-3.7,26.1-5.1c1.9-0.3,3.8-0.6,5.6-0.8c-3.2,0.4,3.9-0.4,4.5-0.5c4.1-0.4,8.2-0.8,12.3-1.1
				c17.4-1.2,34.8-1.1,52.2,0.3c9.7,0.8,18.9-9,18.5-18.5c-0.5-10.7-8.1-17.7-18.5-18.5c-20.9-1.7-41.7-3.4-62.6-5.1
				c0,12.3-0.1,24.7-0.1,37c18.6,0.8,37.2,1.6,55.8,2.5c0-12.3,0.1-24.7,0.1-37c-22.8,0.1-45.7,0.2-68.5,0.3
				c-9.7,0-19,8.4-18.5,18.5c0.4,10.1,8.1,18.4,18.5,18.5c20.7,0.3,41.4,0.6,62.2,1c0-12.3,0.1-24.7,0.1-37
				c-44.9-0.2-89.8-0.4-134.8-0.7c-9.7,0-19,8.5-18.5,18.5c0.4,10.1,8.1,18.4,18.5,18.5c31.4,0.3,62.8,0.7,94.2,1
				c9.7,0.1,19-8.5,18.5-18.5c-0.4-10.2-8.1-18.3-18.5-18.5c-46.9-0.9-93.7-1.8-140.6-2.7c0,12.3-0.1,24.7-0.1,37
				c18.5-0.3,37-0.7,55.5-1c9.7-0.2,19-8.3,18.5-18.5c-0.4-10.1-8.1-18.4-18.5-18.5c-47.4-0.6-94.8-1.2-142.2-1.9
				c0,12.3-0.1,24.7-0.1,37c39.9-0.7,79.8-1.4,119.6-2c0-12.3,0.1-24.7,0.1-37c-54.7,5.8-109.4,11.5-164.1,17.3
				c-9.6,1-19,7.7-18.5,18.5c0.4,9.7,8.1,18.9,18.5,18.5c47.2-1.5,94.5-3,141.7-4.5c9.7-0.3,19-8.2,18.5-18.5
				c-0.4-9.8-8.1-18.8-18.5-18.5c-58.8,1.4-117.5,9.4-174.5,23.7c-8.9,2.2-14.5,11.4-13.3,20.3c1.1,8.4,8.9,16.9,18.1,16.1
				c55.8-4.9,112-3.9,167.6,3c0-12.3,0.1-24.7,0.1-37c-45.4,3.1-90.7,6.2-136.1,9.3c-9.6,0.7-19,8-18.5,18.5
				c0.4,9.6,8.1,19,18.5,18.5c49.3-2.2,98.6-4.4,147.9-6.6c9.7-0.4,19-8.1,18.5-18.5c-0.4-9.7-8.1-18.9-18.5-18.5
				c-35.5,1.3-71,2.7-106.4,4c0,12.3-0.1,24.7-0.1,37c57.7-3.6,115.6-3.1,173.2,1.5c0-12.3,0.1-24.7,0.1-37
				c-40.4-0.8-80.9-1.6-121.3-2.4c0,12.3-0.1,24.7-0.1,37c30.8-0.5,61.6-1,92.4-1.6c9.7-0.2,19-8.3,18.5-18.5
				c-0.5-10.9-8.1-17.5-18.5-18.5c-60-6.3-120.5-6.8-180.6-1.5c1.6,12.1,3.2,24.2,4.8,36.4c17.3-3,34.6-5.9,52-8.9
				c9.6-1.6,15.8-13.8,13-22.7c-3.4-10.5-12.4-14.5-22.7-13c-38.2,5.7-76.4,11.4-114.6,17.1c-9.1,1.4-14.4,12.1-13.3,20.3
				c1.1,8.2,9,17.2,18.1,16.1c32.3-3.9,64.5-7.9,96.8-11.8c9.6-1.2,19-7.6,18.5-18.5c-0.4-9.1-8.2-19.7-18.5-18.5
				c-26.3,3-52.6,6-78.8,9c-9.6,1.1-19,7.7-18.5,18.5c0.4,9.8,8.1,18.8,18.5,18.5c21.5-0.5,43-0.9,64.5-1.4c0-12.3,0.1-24.7,0.1-37
				c-26.1,3.1-52.2,6.1-78.3,9.2c1.6,12.1,3.2,24.2,4.8,36.4c19.6-2.6,39.1-5.2,58.7-7.8c9.6-1.3,15.7-14.1,13-22.7
				C1025.9,2459.7,1016.9,2456,1006.6,2457.3L1006.6,2457.3z"/>
		</g>
	</g>
	<g>
		<g>
			<path class="st1" d="M1085.4,2419.2c-2.7,0.7-5.5,1.5-8.2,2.2c-9.3,2.6-16,13.2-13,22.7c3.1,9.6,12.7,15.6,22.7,13
				c4.8-1.2,9.6-2.5,14.4-3.7c-3.2-11.9-6.5-23.8-9.7-35.7c-7.6,2.2-15.2,4.4-22.8,6.6c3.2,11.9,6.5,23.8,9.7,35.7
				c7.2-2.4,14.3-4.8,21.5-7.2c8.8-2.9,14.5-10.9,13.3-20.3c-1.1-8.4-8.9-16.9-18.1-16.1c-7.4,0.7-14.9,1.4-22.3,2.1
				c1.6,12.1,3.2,24.2,4.8,36.4c15.7-4.6,31.6-8.4,47.7-11.3c3.9-0.7,7.9-1.4,11.9-2c2.1-0.3,4.3-0.6,6.4-0.9c2.2-0.3,0.1,0-0.3,0
				c1.2-0.2,2.4-0.3,3.7-0.5c8.3-1,16.6-1.7,24.9-2.3c16.3-1.1,32.7-1.2,49-0.5c8.3,0.4,16.6,0.9,24.9,1.7c3.7,0.4,7.4,0.8,11,1.2
				c0.8,0.1,6.4,0.8,3.3,0.4c2.1,0.3,4.3,0.6,6.4,0.9c18.6,2.9,37,6.9,55.1,12.1c9.3,2.6,20.6-3.2,22.8-12.9
				c2.3-9.8-2.9-20-12.9-22.8c-67.5-19.2-138.6-22.8-207.9-11.7c-18.9,3-37.6,7.3-55.9,12.7c-8.9,2.6-14.5,11.1-13.3,20.3
				c1.1,8.4,8.9,16.9,18.1,16.1c7.4-0.7,14.9-1.4,22.3-2.1c-1.6-12.1-3.2-24.2-4.8-36.4c-7.2,2.4-14.3,4.8-21.5,7.2
				c-9.2,3.1-16.2,12.8-13,22.7c3,9.4,12.8,15.9,22.7,13c7.6-2.2,15.2-4.4,22.8-6.6c9.3-2.7,16.1-13.1,13-22.7
				c-3.1-9.6-12.7-15.6-22.7-13c-4.8,1.2-9.6,2.5-14.4,3.7c3.2,11.9,6.5,23.8,9.7,35.7c2.7-0.7,5.5-1.5,8.2-2.2
				c9.3-2.6,16-13.2,13-22.7C1105.1,2422.6,1095.4,2416.5,1085.4,2419.2L1085.4,2419.2z"/>
		</g>
	</g>
	<g>
		<g>
			<path class="st1" d="M1130.1,2418.1c3,0.4,6,0.8,9,1.3c0-11.9,0.1-23.8,0.1-35.7c-4.2,0.7-8.5,1.4-12.7,2.1
				c-9.6,1.6-15.8,13.9-13,22.7c3.4,10.5,12.4,14.5,22.7,13c5.5-0.8,11-1.6,16.5-2.4c9.1-1.3,14.4-12.1,13.3-20.3
				c-1.2-8.8-8.9-16.4-18.1-16.1c-4.2,0.1-8.5,0.3-12.7,0.4c1.6,12.1,3.2,24.2,4.8,36.4c4.8-1.2,9.5-2.3,14.3-3.5
				c9-2.2,14.5-11.5,13.3-20.3c-1.1-8.6-8.9-16.6-18.1-16.1c-4.7,0.3-9.5,0.5-14.2,0.8c1.6,12.1,3.2,24.2,4.8,36.4
				c4.3-1.2,8.6-2.4,12.9-3.5c8.9-2.4,14.5-11.3,13.3-20.3c-1.2-9.2-8.8-15.8-18.1-16.1c-5.1-0.2-10.1-0.3-15.2-0.5
				c1.6,12.1,3.2,24.2,4.8,36.4c0,0,6-0.8,2.6-0.4c1.9-0.3,3.8-0.5,5.7-0.7c3.1-0.4,6.3-0.7,9.5-1c6.9-0.7,13.9-1.2,20.9-1.5
				c14.2-0.7,28.5-0.8,42.8-0.2c14,0.6,27.8,1.9,41.7,3.5c1.3,0.2,1.3,0.2-0.2,0c0.6,0.1,1.3,0.2,1.9,0.3c1.9,0.3,3.8,0.6,5.6,0.8
				c3.4,0.5,6.9,1.1,10.3,1.7c7.2,1.3,14.3,2.8,21.4,4.4c9.4,2.1,20.5-2.8,22.8-12.9c2.2-9.4-2.8-20.5-12.9-22.8
				c-59.8-13.5-121.1-15.6-181.8-6.9c-9.1,1.3-14.4,12.1-13.3,20.3c1.2,9.2,8.8,15.8,18.1,16.1c5.1,0.2,10.1,0.3,15.2,0.5
				c-1.6-12.1-3.2-24.2-4.8-36.4c-4.3,1.2-8.6,2.4-12.9,3.5c-8.9,2.4-14.5,11.3-13.3,20.3c1.1,8.6,8.9,16.6,18.1,16.1
				c4.7-0.3,9.5-0.5,14.2-0.8c-1.6-12.1-3.2-24.2-4.8-36.4c-4.8,1.2-9.5,2.3-14.3,3.5c-9,2.2-14.5,11.5-13.3,20.3
				c1.2,8.8,8.9,16.4,18.1,16.1c4.2-0.1,8.5-0.3,12.7-0.4c-1.6-12.1-3.2-24.2-4.8-36.4c-5.5,0.8-11,1.6-16.5,2.4
				c3.2,11.9,6.5,23.8,9.7,35.7c4.2-0.7,8.5-1.4,12.7-2.1c7.6-1.3,13.9-10.3,13.6-17.8c-0.3-7.4-5.4-16.7-13.5-17.9
				c-3-0.4-6-0.8-9-1.3c-9.5-1.3-20.3,2.3-22.8,12.9C1115.2,2404,1119.8,2416.6,1130.1,2418.1L1130.1,2418.1z"/>
		</g>
	</g>
	<g>
		<g>
			<path class="st1" d="M1391,2464.2c2.2-0.3,2.3-0.3,0.3-0.1c1.2-0.1,2.3-0.3,3.5-0.4c2.3-0.3,4.7-0.5,7-0.7
				c4.1-0.4,8.2-0.7,12.3-0.9c8.8-0.5,17.5-0.7,26.3-0.5c8.2,0.2,16.4,0.6,24.5,1.4c2.3,0.2,4.7,0.5,7,0.7c0.7,0.1,7.7,1,3.8,0.4
				c4.1,0.6,8.1,1.2,12.1,1.9c16.7,2.9,33.2,7.1,49.3,12.5c4.4,1.5,8.8,3.1,13.2,4.7c1.6,0.6,3.3,1.3,4.9,1.9c0.6,0.2,7,2.9,3.7,1.5
				c8.1,3.5,16,7.3,23.7,11.4c4.8-11.3,9.6-22.5,14.3-33.8c-69.3-15.9-141.1-21-211.9-14.1c-20.7,2-41.2,4.9-61.7,8.7
				c-9.5,1.8-15.9,13.7-13,22.7c3.3,10.4,12.5,14.7,22.7,13c4-0.7,8-1.3,12-1.8c0.9-0.1,1.8-0.3,2.8-0.4c0.1,0,3.1-0.4,1.2-0.2
				c-1.9,0.2,1.2-0.1,1.2-0.2c1.5-0.2,3.1-0.4,4.6-0.6c8-0.9,16.1-1.7,24.1-2.3c16.7-1.2,33.5-1.6,50.3-1.3
				c16.5,0.3,32.9,1.3,49.3,3.1c4,0.4,8,0.9,12,1.4c0.9,0.1,1.8,0.2,2.8,0.4c-0.4-0.1-2.5-0.4-0.3,0c2.5,0.4,4.9,0.7,7.4,1.1
				c8,1.2,15.9,2.7,23.8,4.2c18.6,3.7,36.9,8.4,55,14c9.2,2.8,20.6-3.3,22.8-12.9c2.3-10-3-19.7-12.9-22.8
				c-86-26.9-178.4-31.3-266.7-14.1c-24.2,4.7-48.1,11.2-71.4,19.4c-9.1,3.2-16.2,12.7-13,22.7c2.9,9,12.9,16.4,22.7,13
				c20.5-7.1,41.3-13,62.5-17.6c10.3-2.2,20.7-4.1,31.1-5.7c2.7-0.4,5.4-0.8,8-1.2c-0.8,0.1-3.3,0.4,0.5,0c1.2-0.1,2.4-0.3,3.6-0.4
				c5.7-0.7,11.4-1.2,17.1-1.7c21.3-1.8,42.7-2.3,64-1.5c10.8,0.4,21.6,1.1,32.4,2.2c5.1,0.5,10.2,1.1,15.2,1.7
				c0.5,0.1,4.2,0.6,2,0.3c-2.2-0.3,1.5,0.2,2,0.3c3,0.4,5.9,0.9,8.9,1.4c24.1,3.9,47.8,9.6,71.1,16.9c3.3-11.9,6.6-23.8,9.9-35.7
				c-66.2-20.4-136.4-28.8-205.5-24.5c-20.2,1.3-40.4,3.7-60.4,7c3.2,11.9,6.5,23.8,9.7,35.7c8.5-1.6,16.9-3,25.4-4.3
				c1.9-0.3,3.8-0.5,5.7-0.8c0.9-0.1,1.9-0.3,2.8-0.4c-0.8,0.1-3.1,0.4,0.8-0.1c4.1-0.5,8.2-1,12.3-1.4c17.1-1.8,34.3-2.9,51.5-3.3
				c33.8-0.8,67.5,1.1,101,5.5c2.2,0.3,0.2,0-0.2,0c1.6,0.2,3.2,0.5,4.7,0.7c2.2,0.3,4.4,0.7,6.6,1c4.7,0.8,9.4,1.6,14.1,2.4
				c9.7,1.8,19.4,3.8,29,6c9.1,2.1,18.2-2,21.9-10.7c3.4-8.1,0.7-18.8-7.5-23.1c-67.7-35.6-144.6-48.3-220.2-37.7
				c-9.6,1.4-15.8,14-13,22.7C1371.7,2461.8,1380.7,2465.7,1391,2464.2L1391,2464.2z"/>
		</g>
	</g>
	<g>
		<g>
			<path class="st1" d="M1385.9,2360.4c2.7,24.3,5.4,48.6,8.1,72.8c1.1,9.6,7.7,19,18.5,18.5c10.9-0.5,17.4-8.1,18.5-18.5
				c2.1-19.2,4.2-38.3,6.2-57.5c-12.1,1.6-24.2,3.2-36.4,4.8c3.7,22.4,11.8,44.1,23.2,63.7c6.8,11.7,25.3,12.4,31.9,0.1
				c10.3-19.1,20.7-38.1,31-57.2c-11.3-1.5-22.5-3-33.8-4.5c1.3,3.7,2.5,7.5,3.3,11.3c0.5,2.1,0.9,4.2,1.2,6.2
				c-0.5-3.2,0.2,1.5,0.2,2.3c0.3,3.6,0.4,7.3,0.3,10.9c-0.1,1.8-0.2,3.6-0.3,5.4c-0.3,2.2-0.3,2.4,0,0.5c-0.2,1.2-0.4,2.4-0.6,3.6
				c-1.7,9.2,1.7,18,10.7,21.9c8.7,3.7,18,0.3,23.1-7.5c4.7-7.2,9.5-14.3,14.2-21.5c-11.5-3.1-23-6.3-34.5-9.4
				c-1,13.2-1.9,26.5-2.9,39.7c12.1-1.6,24.2-3.2,36.4-4.8c-1.3-6.9-2.4-13.7-3.3-20.7c0.5,3.3-0.3-2.6-0.3-2.6
				c-0.2-1.9-0.4-3.8-0.6-5.7c-0.3-3.2-0.6-6.3-0.9-9.5c-1.2-14.2-1.7-28.5-1.5-42.8c0.2-14,1-27.9,2.5-41.8
				c0.4-3.5,0.8-6.9,1.3-10.4c-0.4,3.2,0.3-2.2,0.4-2.6c0.2-1.6,0.5-3.1,0.7-4.7c1.2-7.2,2.5-14.4,4-21.5c3-14.4-8.5-25.5-22.7-22.8
				c-30.7,5.9-61.4,11.8-92,17.7c3.2,11.9,6.5,23.8,9.7,35.7c15-3.9,30-7.8,45-11.7c7.6-2,14-9.8,13.6-17.8
				c-0.3-7.6-5.4-16.5-13.5-17.9c-11.4-1.9-22.8-3.9-34.2-5.8c-1.7,12.1-3.3,24.2-5,36.3c6.3-0.7,12.6-1.4,18.9-2.1
				c-5.9-7.8-11.9-15.6-17.8-23.5c-14.2,34.4-19.7,72.6-15.8,109.6c1,9.6,7.7,19,18.5,18.5c11-0.5,17.2-8.1,18.5-18.5
				c2.4-18.8,4.8-37.6,7.2-56.4c-12.3,0-24.7-0.1-37-0.1c-1.4,25.8,0.4,51.5,4.5,76.9c1.2,7.6,10.3,13.9,17.8,13.6
				c7.5-0.3,16.6-5.4,17.9-13.5c2.1-13.3,5-26.4,8.8-39.3c1.8-6.3,3.9-12.5,6.1-18.7c1.1-2.9,2.1-5.9,3.3-8.8
				c0.7-1.7,1.4-3.5,2.1-5.2c1.4-3.5-0.6,1.3,1.1-2.5c-11.5-3.1-23-6.3-34.5-9.4c1.1,12.9,1.2,25.8,0.2,38.6
				c-0.2,3.1-0.5,6.3-0.9,9.4c-0.1,0.5-0.6,4.7-0.2,1.6c-0.2,1.6-0.5,3.1-0.7,4.7c-1.1,6.5-2.5,13-4.1,19.4
				c-2.4,9.4,3,20.5,12.9,22.8c9.7,2.2,20.1-2.9,22.8-12.9c7.6-28.5,15.1-57.1,22.7-85.6c-11.9-3.3-23.8-6.6-35.7-9.9
				c-4.3,23.5-8.7,47.1-13,70.6c12.1,1.7,24.2,3.3,36.3,5c-0.2-11.9,0.5-23.8,1.9-35.7c0.1-1.1,0.4-2.7,0.1-0.7
				c0.2-1.5,0.5-3.1,0.7-4.6c0.5-2.8,1-5.6,1.5-8.3c1.2-6.2,2.7-12.2,4.4-18.3c-12.1-1.7-24.2-3.3-36.3-5c0.1,3.7,0.2,7.3,0.3,11
				c0.3,9.7,8.2,19,18.5,18.5c9.8-0.4,18.9-8.1,18.5-18.5c-0.1-3.7-0.2-7.3-0.3-11c-0.3-9.2-6.8-16.9-16-18.2
				c-9-1.2-17.9,4.3-20.3,13.2c-7,25.1-10.4,51.4-10,77.5c0.1,9.2,6.9,17,16,18.2c8.4,1.2,18.7-4.1,20.3-13.2
				c4.3-23.5,8.7-47.1,13-70.6c1.8-9.5-2.5-20.4-12.9-22.8c-9.7-2.2-20.1,2.9-22.8,12.9c-7.6,28.5-15.1,57.1-22.7,85.6
				c11.9,3.3,23.8,6.6,35.7,9.9c6.8-27.2,9.4-55.6,7-83.5c-0.7-7.9-5.2-16-13.5-17.9c-7.3-1.7-17.6,0.8-20.9,8.4
				c-11.7,26.8-20.4,54.4-25,83.3c11.9,0,23.8,0.1,35.7,0.1c-0.5-2.9-0.9-5.8-1.3-8.7c-0.5-3.2,0.2,2.3-0.1-0.9
				c-0.2-1.6-0.4-3.2-0.5-4.9c-0.6-5.8-1.1-11.7-1.4-17.5c-0.6-11.7-0.5-23.4,0.1-35.1c0.5-9.7-8.8-19-18.5-18.5
				c-11,0.5-17.2,8.1-18.5,18.5c-2.4,18.8-4.8,37.6-7.2,56.4c12.3,0,24.7,0.1,37,0.1c-1-9-1.4-18.1-1.2-27.1
				c0.1-4.2,0.3-8.5,0.6-12.7c0.1-1.8,0.3-3.6,0.5-5.4c0.1-0.7,1-7.7,0.5-4.1c2.6-17.4,7.3-34.3,14-50.5
				c4.3-10.4-6.6-24.7-17.8-23.5c-6.3,0.7-12.6,1.4-18.9,2.1c-9.3,1-16.9,6.2-18.2,16c-1.1,8.3,4.1,18.8,13.2,20.3
				c11.4,1.9,22.8,3.9,34.2,5.8c0-11.9,0.1-23.8,0.1-35.7c-15,3.9-30,7.8-45,11.7c-9.4,2.4-16,13.3-13,22.7
				c3.3,10.1,12.5,14.9,22.7,13c30.7-5.9,61.4-11.8,92-17.7c-7.6-7.6-15.1-15.2-22.7-22.8c-12.7,60-13.4,121.5-2.3,181.9
				c1.7,9,11.9,14.4,20.3,13.3c9.5-1.2,15.4-8.8,16.1-18.1c1-13.2,1.9-26.5,2.9-39.7c0.6-7.7-6.1-16.2-13.5-17.9
				c-8.3-1.9-16.2,1.3-20.9,8.4c-4.7,7.2-9.5,14.3-14.2,21.5c11.3,4.8,22.5,9.6,33.8,14.3c3.6-20.1,2.8-40.6-4.1-60
				c-2.5-7.1-7.7-12.2-15.3-13.3c-7.1-1-14.9,2.3-18.5,8.8c-10.3,19.1-20.7,38.1-31,57.2c10.6,0,21.3,0.1,31.9,0.1
				c-2.5-4.3-4.9-8.7-7-13.2c-0.6-1.3-1.2-2.7-1.8-4c-0.5-1.1-0.9-2.2-0.2-0.4c-1-2.4-1.9-4.9-2.8-7.4c-3.4-9.7-5.9-19.7-7.6-29.8
				c-1.5-9.1-12-14.4-20.3-13.3c-9.7,1.3-15.1,8.8-16.1,18.1c-2.1,19.2-4.2,38.3-6.2,57.5c12.3,0,24.7,0.1,37,0.1
				c-2.7-24.3-5.4-48.6-8.1-72.8c-1.1-9.6-7.7-19-18.5-18.5C1395.3,2342.3,1384.7,2350.1,1385.9,2360.4L1385.9,2360.4z"/>
		</g>
	</g>
	<g>
		<g>
			<path class="st1" d="M1223.2,2272.7c-4.9,38.3-6.5,76.9-5,115.5c7.8-5.9,15.6-11.9,23.5-17.8c-27.3-10-56.4-15-85.4-15.3
				c6.2,6.2,12.3,12.4,18.5,18.5c2.1-38,4.2-75.9,6.3-113.9c-6.2,6.2-12.4,12.3-18.5,18.5c23.7,1,47.4,2,71.1,3
				c-5.3-9.3-10.6-18.6-15.9-27.9c-17.4,31.1-29.5,65.1-35.2,100.2c-1.5,9.5,2.4,20.4,12.9,22.8c9.8,2.3,20-2.9,22.8-12.9
				c5.1-18,10.2-35.9,15.3-53.9c-12.1-1.7-24.2-3.3-36.3-5c-1.6,22.5-3.1,45-4.7,67.6c12.1-1.6,24.2-3.2,36.4-4.8
				c-4.7-13.1-7.8-26.3-10-40c-0.2-1.3-0.2-1.2,0,0.4c-0.1-0.6-0.1-1.2-0.2-1.8c-0.2-1.8-0.4-3.7-0.5-5.5c-0.3-3.4-0.5-6.7-0.6-10.1
				c-0.3-7-0.1-14.1,0.3-21.1c0.6-9.7-8.9-19-18.5-18.5c-10.9,0.5-17.4,8.1-18.5,18.5c-2.7,25.4-5.4,50.8-8.1,76.2
				c12.1-1.6,24.2-3.2,36.4-4.8c-0.6-3.1-1.2-6.2-1.7-9.3c-0.1-0.4-0.8-5.1-0.5-3.2c0.3,1.9-0.3-2.8-0.4-3.2
				c-0.7-6.3-1.1-12.6-1.2-18.9c-0.1-6,0-12,0.4-18c0.2-3.2,0.5-6.3,0.8-9.4c0.2-1.6,0.3-3.1,0.5-4.7c-0.4,3.2,0.3-2.1,0.4-2.6
				c-12.1-1.7-24.2-3.3-36.3-5c0.9,11.5,0.8,23.1-0.3,34.6c-0.1,1.2-0.2,2.5-0.4,3.7c-0.1,0.6-0.6,4.7-0.2,1.6
				c-0.4,2.8-0.9,5.6-1.4,8.3c-1.1,5.8-2.5,11.6-4.1,17.3c12.1,1.7,24.2,3.3,36.3,5c2.6-19.7,5.3-39.3,7.9-59
				c1.2-9.1-7.9-17.1-16-18.2c-9.4-1.3-17.3,4.4-20.3,13.2c-4.2,12.1-8.4,24.2-12.6,36.3c-3.2,9.2,3.5,20.6,12.9,22.8
				c10.3,2.4,19.4-3.1,22.8-12.9c4.2-12.1,8.4-24.2,12.6-36.3c-12.1-1.7-24.2-3.3-36.3-5c-2.6,19.7-5.3,39.3-7.9,59
				c-1.2,9.1,7.9,17.1,16,18.2c9,1.2,17.8-4.3,20.3-13.2c6.8-24.4,9.5-50.1,7.6-75.4c-0.7-9.3-6.5-16.9-16-18.2
				c-8.2-1.1-18.9,4.1-20.3,13.2c-4.8,29.8-4.4,59.3,1.6,88.9c1.8,9,11.7,14.4,20.3,13.3c9.7-1.3,15.1-8.8,16.1-18.1
				c2.7-25.4,5.4-50.8,8.1-76.2c-12.3,0-24.7-0.1-37-0.1c-1.9,29.7,2.3,60,12.3,87.9c3.1,8.7,10.7,14.6,20.3,13.3
				c9.4-1.2,15.4-8.8,16.1-18.1c1.6-22.5,3.1-45,4.7-67.6c0.6-9.2-7.5-17-16-18.2c-9-1.2-17.8,4.3-20.3,13.2
				c-5.1,18-10.2,35.9-15.3,53.9c11.9,3.3,23.8,6.6,35.7,9.9c2.7-16.5,6.7-32.7,12.1-48.5c1.4-3.9,2.8-7.9,4.3-11.7
				c0.7-1.7,1.3-3.3,2-5c-1.3,3.1,1.4-3.2,1.7-3.8c3.4-7.6,7.2-15,11.3-22.3c7-12.5-1.8-27.3-15.9-27.9c-23.7-1-47.4-2-71.1-3
				c-10.4-0.4-18,8.8-18.5,18.5c-2.1,38-4.2,75.9-6.3,113.9c-0.6,10,8.9,18.5,18.5,18.5c6.9,0.1,13.7,0.4,20.5,1
				c1.6,0.1,3.1,0.3,4.6,0.5c1.1,0.1,4.2,0.5,1.6,0.2c3.4,0.5,6.8,1,10.1,1.7c13.2,2.5,26.1,6.1,38.7,10.7
				c11.1,4.1,23.9-6.4,23.5-17.8c-1.5-38.6,0.2-77.2,5-115.5c1.2-9.6-9.3-18.9-18.5-18.5C1230.6,2254.7,1224.5,2262.4,1223.2,2272.7
				L1223.2,2272.7z"/>
		</g>
	</g>
</g>
<g id="Layer_1">
	<g>
		<g transform="translate(134.5999984741211,86.56602096559394)">
			<g>
				<g>
					<path class="st2" d="M751.4,206.9c-33,0-59.7,26.7-59.7,59.7c0,33,26.7,59.7,59.7,59.7s59.7-26.7,59.7-59.7
						S784.4,206.9,751.4,206.9z"/>
					<path class="st2" d="M2307.5,1524.1c-17-9.9-35.9-17.5-58-23c10.9-11.4,20.1-24.5,27.5-39.3c8.6-17.2,9.9-36.7,3.6-55.1
						c-6.3-18.4-19.3-33.2-36.6-41.6c-109.3-53.2-243.2-83.3-420.7-94.7c-53.1-29.5-117.1-55-194.7-72.8
						c-261.9-60-469.6-59.6-570.2-54c-15.2,0.9-29.8-4.5-40.9-15.1c-11.1-10.6-17.2-25-17-40.4l6.6-695.8
						c0.1-4.4,2.5-435.8-281.5-445.8C420-64.5,371.9,119.9,364.7,164.4c-16.5,12.9-41.4,27.4-89.6,38.7
						c-40.4,9.5-81.9,12.2-118.6,14.5C80.1,222.5,8,227.3-0.7,298.8C-2.4,313,0.7,334,25.1,353.9c66.5,54.3,279.9,77,415.8,84.2
						c-36.1,169.8-226.5,1124.1-22.7,1420.6C580.7,2095,775,2152.5,983.6,2171v111c-99.8,10.6-184.5,53.1-252.2,126.6
						c-5.5,5.9-6.9,14.5-3.7,21.9c3.2,7.4,10.5,12.1,18.6,12.1h249.8c-8.3,7.6-16.4,15.6-24.2,24.1c-5.5,5.9-6.9,14.5-3.7,21.9
						c3.2,7.4,10.5,12.1,18.6,12.1h583.7c7.9,0,15.2-4.6,18.5-11.9c3.3-7.2,2.1-15.7-3.2-21.7c-57.4-65.9-119.6-106.1-189.6-122.5
						v-171.6c309-40.1,767.4-200.9,945.2-531.3C2363.9,1600.1,2349,1548.4,2307.5,1524.1z M418.6,281.2
						c-15.6,14.9-37.5,22.3-66.4,22.3c-9.2,0-19.1-0.8-29.8-2.2c-11.1-1.5-18.8-11.8-17.3-22.9c1.5-11.1,11.7-18.9,22.9-17.3
						c30.7,4.3,51.8,1.2,62.6-9.2c8.1-7.8,20.9-7.4,28.7,0.6C427,260.6,426.7,273.5,418.6,281.2z M796.9,2402
						c58.3-48.7,128.2-76,208.3-81.2c10.6-0.7,19-9.6,19-20.2v-126.5c30.1,2,60.4,3.4,90.9,4.7v124.4c0,9.8,7.1,18.2,16.7,20
						c23,4.1,44.8,11.2,65.9,21c-54.8,9.2-104.8,28.6-149.5,58L796.9,2402L796.9,2402z M1155.7,2286.6v-106.3l68.6,2.6v128.9
						C1202.1,2300.7,1179.3,2292.1,1155.7,2286.6z M1523,2460.2h-485.5c58.3-48.7,128.2-76,208.3-81.2c10.6-0.7,19-9.6,19-20.2
						v-175.6c27.9-0.4,58.3-2.2,90.9-5.5v183.5c0,9.8,7.1,18.2,16.7,20C1427,2390.8,1476.6,2416.8,1523,2460.2z M2305.7,1622.6
						c-207.5,385.4-816.1,530.7-1081.4,519.7c-20.6-0.9-41-1.6-61.2-2.3c-276.4-10-515.1-18.6-711.5-304.3
						C256.9,1552.4,451.9,582.5,482,439.9l73.8,0.2l0,0.2c51.5-7.5,82.3-41.6,82.3-91.1c0-58.9-51.8-89.1-87.1-99.6
						c-12.3-31.4-50.5-115.9-107.3-121.8c-11-1.1-20-0.2-27.8,1.8c23.9-58.3,95.3-149.3,308.2-142.4
						c244.5,8.6,242.5,400.8,242.4,404.8l-6.6,695.8c-0.3,26.4,10.5,51.9,29.6,70.1c19.3,18.4,44.4,28.1,71.2,26.2
						c98.3-5.5,301.8-5.9,558.8,53c75.7,17.3,137.4,42.4,188.2,71.1c0.1,0.1,0.2,0.1,0.4,0.2c95.8,54.3,152,122,184.3,178.4
						c55.4,96.7,57.2,187.7,42,236.3c-28.7,91.5-128.8,203.2-663.7,116.5C913.1,1765.4,875,1474,873.6,1461.7
						c-1.2-11.1-11-19.1-22.3-18c-11.1,1.2-19.2,11.2-18,22.3c0.4,3.3,41.3,334.2,531,413.6c128.8,20.9,239.3,31.4,332.2,31.4
						c217.8,0,339.6-57.9,376.6-175.8c18.6-59.1,16.4-160.7-45.5-268.6c-26.7-46.6-68.2-100.5-132.2-149.4
						c135.4,14,242.1,41.2,330.8,84.4c7.6,3.7,13.2,10.1,16,18.2c2.7,8,2.2,16.5-1.5,23.9c-11.5,23-27.9,39.8-50.3,51.3
						c-7.9,4.1-12.2,12.9-10.6,21.7s8.8,15.5,17.7,16.5c38.1,4.2,66.5,12.4,89.4,25.9C2309.2,1572.1,2317.6,1600.6,2305.7,1622.6z"
						/>
				</g>
			</g>
		</g>
	</g>
	<g>
		<g>
			<path class="st1" d="M546.9,520.3c26.3-0.8,52.7-1.6,79-2.4c9.7-0.3,19-8.2,18.5-18.5c-0.4-9.8-8.1-18.9-18.5-18.5
				c-26.3,0.8-52.7,1.6-79,2.4c-9.7,0.3-19,8.2-18.5,18.5C528.8,511.5,536.5,520.6,546.9,520.3L546.9,520.3z"/>
		</g>
	</g>
	<g>
		<g>
			<path class="st1" d="M545,516c28.2-1.3,56.5-2.5,84.7-3.8c9.7-0.4,19-8.1,18.5-18.5c-0.4-9.6-8.1-19-18.5-18.5
				c-28.2,1.3-56.5,2.5-84.7,3.8c-9.7,0.4-19,8.1-18.5,18.5C526.9,507.1,534.6,516.5,545,516L545,516z"/>
		</g>
	</g>
</g>
<g id="Layer_1_copy">
	<g>
		<g transform="translate(134.5999984741211,86.56602096559394)">
			<g>
				<g>
					<path class="st3" d="M751.4,206.9c-33,0-59.7,26.7-59.7,59.7c0,33,26.7,59.7,59.7,59.7s59.7-26.7,59.7-59.7
						S784.4,206.9,751.4,206.9z"/>
					<path class="st3" d="M2307.5,1524.1c-17-9.9-35.9-17.5-58-23c10.9-11.4,20.1-24.5,27.5-39.3c8.6-17.2,9.9-36.7,3.6-55.1
						c-6.3-18.4-19.3-33.2-36.6-41.6c-109.3-53.2-243.2-83.3-420.7-94.7c-53.1-29.5-117.1-55-194.7-72.8
						c-261.9-60-469.6-59.6-570.2-54c-15.2,0.9-29.8-4.5-40.9-15.1c-11.1-10.6-17.2-25-17-40.4l6.6-695.8
						c0.1-4.4,2.5-435.8-281.5-445.8C420-64.5,371.9,119.9,364.7,164.4c-16.5,12.9-41.4,27.4-89.6,38.7
						c-40.4,9.5-81.9,12.2-118.6,14.5C80.1,222.5,8,227.3-0.7,298.8C-2.4,313,0.7,334,25.1,353.9c66.5,54.3,279.9,77,415.8,84.2
						c-36.1,169.8-226.5,1124.1-22.7,1420.6C580.7,2095,775,2152.5,983.6,2171v111c-99.8,10.6-184.5,53.1-252.2,126.6
						c-5.5,5.9-6.9,14.5-3.7,21.9c3.2,7.4,10.5,12.1,18.6,12.1h249.8c-8.3,7.6-16.4,15.6-24.2,24.1c-5.5,5.9-6.9,14.5-3.7,21.9
						c3.2,7.4,10.5,12.1,18.6,12.1h583.7c7.9,0,15.2-4.6,18.5-11.9c3.3-7.2,2.1-15.7-3.2-21.7c-57.4-65.9-119.6-106.1-189.6-122.5
						v-171.6c309-40.1,767.4-200.9,945.2-531.3C2363.9,1600.1,2349,1548.4,2307.5,1524.1z M376.2,399c-75.8-5.4-151.9-13.5-226-30.6
						c-17.7-4.1-35.6-8.2-52.9-13.8c-17-5.5-33.8-14.5-43.2-30.3c-9.1-15.3-10.6-34.7,0.6-49.2c8.8-11.5,22.2-16.4,36.1-18.7
						c15.4-2.5,30.4-1.6,45.8-0.5c4.3,0.3,8.7,0.6,13,0.9c6.2-0.3,12.3-0.7,18.5-0.9c5.5-0.2,11.1-0.1,16.6-0.1
						c0.3,0,0.6-0.1,0.9-0.1c13.3-1.9,26.7-3.8,40-5.6c13.3-1.8,26.8-3.1,40-5.3c0.9-0.1,1.7-0.3,2.6-0.4c8.9-1.7,17.8-3.6,26.7-5.6
						c10.6-2.4,21-5.3,31.4-8.7c9.7-3.1,20-6.8,28.1-10.8c6.7-3.3,13.6-6.4,20.2-9.9c9.1-8.1,17.9-16.5,28-23.4
						c1.4-2,3.5-3.3,5.9-3.8c17.6-10.2,39.6-13.5,57.8-2.8c19,11.2,30.6,31.9,38,52c3.7,10,6.3,20.3,10.1,30.2
						c0.3,0.7,0.4,1.1,0.5,1.3c0.2,0.5,0.4,0.9,0.6,1.4c0.7,1.6,1.5,3.3,2.2,5c-0.1-0.3-0.1-0.2,0.3,0.7c-0.1-0.2-0.2-0.5-0.3-0.7
						c0.2,0.4,0.6,1.6,0.8,1.9c0.5,1.1,1,2.2,1.6,3.3c0.5,1,1.1,2,1.6,3c0,0,0,0,0.1,0c5.2,3.5,8.3,4.4,14.3,6.2
						c5.6,1.7,11.5,2.5,17.2,4c12.2,3.3,24.5,7.9,34.2,16.2c23.7,20.1,17,56.1-1.6,77.1c-10.6,11.9-27.4,17.4-42.5,20.7
						c-17.5,3.8-35.7,4.1-53.5,3.3C451.9,403.3,414,401.7,376.2,399z M796.9,2402.1L796.9,2402.1c58.3-48.7,128.2-76,208.3-81.2
						c10.6-0.7,19-9.6,19-20.2v-126.5c30.1,2,60.4,3.4,90.9,4.7v124.4c0,9.8,7.1,18.2,16.7,20c23,4.1,44.8,11.2,65.9,21
						c-54.8,9.2-104.8,28.6-149.5,58H796.9z M1155.7,2286.6v-106.3l68.6,2.6v128.9C1202.1,2300.7,1179.3,2292.1,1155.7,2286.6z
						 M1523,2460.2h-485.5c58.3-48.7,128.2-76,208.3-81.2c10.6-0.7,19-9.6,19-20.2v-175.6c27.9-0.4,58.3-2.2,90.9-5.5v183.5
						c0,9.8,7.1,18.2,16.7,20C1427,2390.8,1476.6,2416.8,1523,2460.2z M2305.7,1622.6c-207.5,385.4-816.1,530.7-1081.4,519.7
						c-20.6-0.9-41-1.6-61.2-2.3c-276.4-10-515.1-18.6-711.5-304.3C256.9,1552.4,451.9,582.5,482,439.9l73.8,0.2l0,0.2
						c51.5-7.5,82.3-41.6,82.3-91.1c0-58.9-51.8-89.1-87.1-99.6c-12.3-31.4-50.5-115.9-107.3-121.8c-11-1.1-20-0.2-27.8,1.8
						c23.9-58.3,95.3-149.3,308.2-142.4c244.5,8.6,242.5,400.8,242.4,404.8l-6.6,695.8c-0.3,26.4,10.5,51.9,29.6,70.1
						c19.3,18.4,44.4,28.1,71.2,26.2c98.3-5.5,301.8-5.9,558.8,53c75.7,17.3,137.4,42.4,188.2,71.1c0.1,0.1,0.2,0.1,0.4,0.2
						c95.8,54.3,152,122,184.3,178.4c55.4,96.7,57.2,187.7,42,236.3c-28.7,91.5-128.8,203.2-663.7,116.5
						C913.1,1765.4,875,1474,873.6,1461.7c-1.2-11.1-11-19.1-22.3-18c-11.1,1.2-19.2,11.2-18,22.3c0.4,3.3,41.3,334.2,531,413.6
						c128.8,20.9,239.3,31.4,332.2,31.4c217.8,0,339.6-57.9,376.6-175.8c18.6-59.1,16.4-160.7-45.5-268.6
						c-26.7-46.6-68.2-100.5-132.2-149.4c135.4,14,242.1,41.2,330.8,84.4c7.6,3.7,13.2,10.1,16,18.2c2.7,8,2.2,16.5-1.5,23.9
						c-11.5,23-27.9,39.8-50.3,51.3c-7.9,4.1-12.2,12.9-10.6,21.7c1.6,8.8,8.8,15.5,17.7,16.5c38.1,4.2,66.5,12.4,89.4,25.9
						C2309.2,1572.1,2317.6,1600.6,2305.7,1622.6z"/>
				</g>
			</g>
		</g>
	</g>
</g>
<g id="Layer_4">
</g>
</svg>
