<?xml version="1.0" encoding="utf-8"?>
<!-- Generator: Adobe Adobe Illustrator 24.2.0, SVG Export Plug-In . SVG Version: 6.00 Build 0)  -->
<svg version="1.1" xmlns="http://www.w3.org/2000/svg" xmlns:xlink="http://www.w3.org/1999/xlink" x="0px" y="0px" width="2400px"
	 height="2601.7px" viewBox="0 0 2400 2601.7" style="enable-background:new 0 0 2400 2601.7;" xml:space="preserve">
<style type="text/css">
	.st0{fill:#FFF9F4;stroke:#A0323F;stroke-miterlimit:10;}
	.st1{fill:#A0323F;stroke:#FFF9F4;stroke-miterlimit:10;}
</style>
<g id="Layer_2">
	<path class="st0" d="M514.1,95.2L422.9,189l-18.8,99.2l-80.4,42.9L318.3,433l101.9,42.9l61.7,21.4l-5.4,91.2l-32.2,134.1L425.6,870
		l-29.5,160.9l-18.8,203.8l-10.7,139.4l10.7,185l18.8,195.7l104.6,227.9l174.3,163.6l142.1,64.3l179.6,26.8l64.3-8l461.2-16.1
		l286.9-88.5l235.9-91.2l150.2-134.1l115.3-115.3l40.2-101.9l-29.5-59l-80.4-29.5l40.2-91.2l-72.4-61.7l-209.1-45.6l-183.5-64.4
		l-216.2-67.8l-250.3-36.7l-225-7.4l-110.4,16c0,0-14.1-84.8-17.5-107.8c-3.4-23,8-150.1,8-150.1V870l2.7-168.9l8-147.5L994,371.3
		L940.4,197l-48.3-96.5l-85.8-34.9L704.4,63l-80.4-8"/>
</g>
<g id="Layer_3">
	<polyline class="st0" points="1023.5,2224.1 1031.5,2371.5 862.6,2422.5 798.3,2497.6 991.3,2502.9 1069.1,2497.6 1063.7,2561.9 
		1583.7,2551.9 1516.8,2494.9 1401.6,2446.6 1412.6,2217.2 	"/>
</g>
<g id="Layer_1">
	<g>
		<g transform="translate(134.5999984741211,86.56602096559394)">
			<g>
				<g>
					<path class="st1" d="M641.4,197.7c-33,0-59.7,26.7-59.7,59.7c0,33,26.7,59.7,59.7,59.7s59.7-26.7,59.7-59.7
						S674.4,197.7,641.4,197.7z"/>
					<path class="st1" d="M2197.5,1514.9c-17-9.9-35.9-17.5-58-23c10.9-11.4,20.1-24.5,27.5-39.3c8.6-17.2,9.9-36.7,3.6-55.1
						c-6.3-18.4-19.3-33.2-36.6-41.6c-109.3-53.2-243.2-83.3-420.7-94.7c-53.1-29.5-117.1-55-194.7-72.8
						c-261.9-60-469.6-59.6-570.2-54c-15.2,0.9-29.8-4.5-40.9-15.1c-11.1-10.6-17.2-25-17-40.4l6.6-695.8
						c0.1-4.4,2.5-435.8-281.5-445.8C310-73.7,261.9,110.7,254.7,155.2c-16.5,12.9-41.4,27.4-89.6,38.7
						c-40.4,9.5-81.9,12.2-118.6,14.5c-76.4,4.9-148.6,9.7-157.3,81.2c-1.7,14.1,1.4,35.1,25.8,55.1c66.5,54.3,279.9,77,415.8,84.2
						C294.8,598.7,104.4,1553,308.2,1849.5c162.5,236.4,356.8,293.8,565.4,312.3v111c-99.8,10.6-184.5,53.1-252.2,126.6
						c-5.5,5.9-6.9,14.5-3.7,21.9c3.2,7.4,10.5,12.1,18.6,12.1h249.8c-8.3,7.6-16.4,15.6-24.2,24.1c-5.5,5.9-6.9,14.5-3.7,21.9
						c3.2,7.4,10.5,12.1,18.6,12.1h583.7c7.9,0,15.2-4.6,18.5-11.9c3.3-7.2,2.1-15.7-3.2-21.7c-57.4-65.9-119.6-106.1-189.6-122.5
						v-171.6c309-40.1,767.4-200.9,945.2-531.3C2253.9,1591,2239,1539.2,2197.5,1514.9z M308.6,272.1
						c-15.6,14.9-37.5,22.3-66.4,22.3c-9.2,0-19.1-0.8-29.8-2.2c-11.1-1.5-18.8-11.8-17.3-22.9c1.5-11.1,11.7-18.9,22.9-17.3
						c30.7,4.3,51.8,1.2,62.6-9.2c8.1-7.8,20.9-7.4,28.7,0.6C317,251.5,316.7,264.3,308.6,272.1z M686.9,2392.9
						c58.3-48.7,128.2-76,208.3-81.2c10.6-0.7,19-9.6,19-20.2v-126.5c30.1,2,60.4,3.4,90.9,4.7v124.4c0,9.8,7.1,18.2,16.7,20
						c23,4.1,44.8,11.2,65.9,21c-54.8,9.2-104.8,28.6-149.5,58L686.9,2392.9L686.9,2392.9z M1045.7,2277.4v-106.3l68.6,2.6v128.9
						C1092.1,2291.5,1069.3,2283,1045.7,2277.4z M1413,2451H927.5c58.3-48.7,128.2-76,208.3-81.2c10.6-0.7,19-9.6,19-20.2V2174
						c27.9-0.4,58.3-2.2,90.9-5.5v183.5c0,9.8,7.1,18.2,16.7,20C1317,2381.6,1366.6,2407.6,1413,2451z M2195.7,1613.4
						c-207.5,385.4-816.1,530.7-1081.4,519.7c-20.6-0.9-41-1.6-61.2-2.3c-276.4-10-515.1-18.6-711.5-304.3
						C146.9,1543.2,341.9,573.3,372,430.7l73.8,0.2l0,0.2c51.5-7.5,82.3-41.6,82.3-91.1c0-58.9-51.8-89.1-87.1-99.6
						c-12.3-31.4-50.5-115.9-107.3-121.8c-11-1.1-20-0.2-27.8,1.8C329.9,62.1,401.4-28.9,614.2-22
						c244.5,8.6,242.5,400.8,242.4,404.8l-6.6,695.8c-0.3,26.4,10.5,51.9,29.6,70.1c19.3,18.4,44.4,28.1,71.2,26.2
						c98.3-5.5,301.8-5.9,558.8,53c75.7,17.3,137.4,42.4,188.2,71.1c0.1,0.1,0.2,0.1,0.4,0.2c95.8,54.3,152,122,184.3,178.4
						c55.4,96.7,57.2,187.7,42,236.3c-28.7,91.5-128.8,203.2-663.7,116.5c-457.8-74.2-495.8-365.6-497.2-377.9
						c-1.2-11.1-11-19.1-22.3-18c-11.1,1.2-19.2,11.2-18,22.3c0.4,3.3,41.3,334.2,531,413.6c128.8,20.9,239.3,31.4,332.2,31.4
						c217.8,0,339.6-57.9,376.6-175.8c18.6-59.1,16.4-160.7-45.5-268.6c-26.7-46.6-68.2-100.5-132.2-149.4
						c135.4,14,242.1,41.2,330.8,84.4c7.6,3.7,13.2,10.1,16,18.2c2.7,8,2.2,16.5-1.5,23.9c-11.5,23-27.9,39.8-50.3,51.3
						c-7.9,4.1-12.2,12.9-10.6,21.7s8.8,15.5,17.7,16.5c38.1,4.2,66.5,12.4,89.4,25.9C2199.2,1562.9,2207.6,1591.4,2195.7,1613.4z"
						/>
				</g>
			</g>
		</g>
	</g>
</g>
</svg>
