<?xml version="1.0" encoding="utf-8"?>
<!-- Generator: Adobe Adobe Illustrator 24.2.0, SVG Export Plug-In . SVG Version: 6.00 Build 0)  -->
<svg version="1.1" xmlns="http://www.w3.org/2000/svg" xmlns:xlink="http://www.w3.org/1999/xlink" x="0px" y="0px" width="2400px"
	 height="3066.4px" viewBox="0 0 2400 3066.4" style="enable-background:new 0 0 2400 3066.4;" xml:space="preserve">
<style type="text/css">
	.st0{fill:#FFF9F4;stroke:#A0323F;stroke-miterlimit:10;}
	.st1{fill:#A0323F;fill-opacity:0;}
	.st2{fill:#A0323F;}
</style>
<g id="Layer_2">
	<path class="st0" d="M615.6,116.9c0,0-35.5,145.8-109,165c-27.4,7.1,86.2,83.5,86.2,83.5l72.9,15.8l-29.6,181.2l-57.3,223.2
		l-21.6,267.8l19.9,241.8l49.3,159.6l118.2,135.9l128.1,69l210.8,43.3l264-3.9l254.1-49.3l163.5-78.8l134-72.9l94.6-90.6l65-78.8
		l15.8-47.3l-15.8-41.4l-44.9-38.7l-14.2-18.4l17.7-39.4l-43.3-31.5l-106.4-29.6l-80.8-15.8l-106.6-45.9l-104.4-41.1l-102-22.8
		l-94.1-14.9l-130.7-11.7c0,0-139.5,42.7-170.9,24c-15.8-9.4-10.1-88.9-10.1-88.9l-4.1-43V694.4l-5.9-130l-3.9-92.6l3.9-118.2
		l-13.8-82.7l-19.7-96.5l-43.3-72.9l-63-51.2l-98.6-26.3C819.3,23.9,731.9,18.9,615.6,116.9z"/>
</g>
<g id="Layer_3">
	<polyline class="st0" points="1065.6,1693.2 1065.6,1807.5 1016.4,1811.4 947.4,1841 890.2,1888.4 979,1906 1077.5,1908 
		1118.8,1898.1 1057.8,1953.3 1481.3,1953.3 1459.6,1908 1355.2,1852.8 1349.3,1709 	"/>
</g>
<g id="Layer_1">
	<g>
		<g transform="translate(123.2676010131836,65.03242111207831)">
			<g transform="translate(11.3323974609375,0)">
				<g>
					<rect x="174.2" y="-41.5" class="st1" width="1782.4" height="1935.1"/>
					<g>
						<path class="st2" d="M744.2,156c-25,0-45.2,20.2-45.2,45.2c0,25,20.2,45.2,45.2,45.2c25,0,45.2-20.2,45.2-45.2
							S769.2,156,744.2,156z"/>
						<path class="st2" d="M1923,1153.8c-12.9-7.5-27.2-13.3-43.9-17.4c8.3-8.6,15.2-18.5,20.8-29.8c6.5-13,7.5-27.8,2.7-41.7
							c-4.7-13.9-14.6-25.1-27.7-31.5c-82.8-40.3-184.2-63.1-318.6-71.7c-40.3-22.3-88.7-41.7-147.5-55.1
							c-198.4-45.5-355.7-45.2-431.9-40.9c-11.5,0.7-22.6-3.4-31-11.4c-8.4-8-13-18.9-12.9-30.6l5-527c0-3.3,1.9-330.1-213.3-337.7
							c-231.5-8.4-268,131.2-273.4,164.9c-12.5,9.8-31.4,20.8-67.8,29.3c-30.6,7.2-62.1,9.2-89.8,11c-57.9,3.7-112.6,7.3-119.1,61.5
							c-1.3,10.7,1,26.6,19.5,41.7c50.4,41.1,212,58.3,315,63.8c-27.3,128.6-171.6,851.5-17.2,1076.1
							c123.1,179.1,270.3,222.6,428.3,236.6v84.1c-75.6,8-139.8,40.3-191,95.9c-4.1,4.5-5.2,11-2.8,16.6s8,9.2,14.1,9.2h189.3
							c-6.3,5.8-12.4,11.8-18.3,18.2c-4.1,4.5-5.2,11-2.8,16.6c2.4,5.6,8,9.2,14.1,9.2h442.1c6,0,11.5-3.5,14-9
							c2.5-5.5,1.6-11.9-2.4-16.4c-43.5-50-90.6-80.4-143.6-92.8v-130c234-30.4,581.3-152.2,716-402.4
							C1965.7,1211.4,1954.4,1172.2,1923,1153.8z M492.1,212.3c-11.8,11.3-28.4,16.9-50.3,16.9c-7,0-14.5-0.6-22.6-1.7
							c-8.4-1.2-14.3-8.9-13.1-17.3c1.2-8.4,8.9-14.3,17.3-13.1c23.2,3.3,39.2,0.9,47.4-7c6.2-5.9,15.9-5.6,21.7,0.5
							C498.5,196.7,498.3,206.5,492.1,212.3z M778.7,1818.9c44.1-36.9,97.1-57.5,157.8-61.5c8.1-0.5,14.4-7.2,14.4-15.3v-95.8
							c22.8,1.5,45.7,2.6,68.9,3.5v94.2c0,7.4,5.4,13.8,12.7,15.1c17.4,3.1,33.9,8.5,49.9,15.9c-41.5,7-79.4,21.7-113.3,43.9
							L778.7,1818.9L778.7,1818.9z M1050.5,1731.4v-80.5l51.9,2v97.7C1085.7,1742.1,1068.3,1735.6,1050.5,1731.4z M1328.7,1862.9
							H960.9c44.2-36.9,97.1-57.5,157.8-61.5c8.1-0.5,14.4-7.2,14.4-15.3v-133c21.1-0.3,44.2-1.7,68.9-4.1v139
							c0,7.4,5.4,13.8,12.7,15.1C1256,1810.4,1293.6,1830,1328.7,1862.9z M1921.6,1228.4c-157.1,291.9-618.2,402-819.2,393.7
							c-15.6-0.6-31-1.2-46.3-1.8c-209.4-7.6-390.2-14.1-539-230.5c-147.5-214.6,0.2-949.3,23-1057.3l55.9,0.1l0,0.1
							c39-5.7,62.3-31.5,62.3-69c0-44.6-39.2-67.5-65.9-75.4c-9.3-23.8-38.3-87.8-81.3-92.2c-8.3-0.9-15.1-0.2-21.1,1.4
							c18.1-44.1,72.2-113.1,233.5-107.9c185.2,6.5,183.7,303.6,183.6,306.6l-5,527.1c-0.2,20,8,39.3,22.4,53.1
							c14.6,13.9,33.7,21.3,53.9,19.9c74.5-4.1,228.6-4.5,423.3,40.2c57.3,13.1,104.1,32.1,142.6,53.9c0.1,0,0.2,0.1,0.3,0.2
							c72.6,41.1,115.1,92.5,139.6,135.1c42,73.2,43.4,142.2,31.8,179c-21.8,69.3-97.6,153.9-502.7,88.3
							c-346.8-56.2-375.6-276.9-376.6-286.3c-0.9-8.4-8.3-14.5-16.9-13.6c-8.4,0.9-14.5,8.5-13.6,16.9
							c0.3,2.5,31.3,253.1,402.2,313.3c97.6,15.8,181.2,23.8,251.7,23.8c165,0,257.2-43.8,285.3-133.2
							c14.1-44.8,12.4-121.8-34.5-203.5c-20.2-35.3-51.7-76.1-100.1-113.2c102.6,10.6,183.4,31.2,250.6,63.9
							c5.7,2.8,10,7.7,12.1,13.8c2.1,6.1,1.7,12.5-1.1,18.1c-8.7,17.4-21.2,30.2-38.1,38.9c-6,3.1-9.3,9.8-8,16.4
							s6.7,11.7,13.4,12.5c28.8,3.2,50.4,9.4,67.8,19.6C1924.2,1190.1,1930.6,1211.7,1921.6,1228.4z"/>
					</g>
				</g>
			</g>
			<g transform="translate(0,83.86795806884766)">
				<g>
					<g transform="scale(0.5199999999999996)">
						<g>
							<path class="st2" d="M533.2,4630.8L533.2,4630.8c16.4,18.5,24.7,40.8,24.7,67c0,26.3-10.9,58.6-32.7,96.7l0,0
								c-27.4,65.5-51.4,146.8-72,243.9c-20.8,97-41.3,174.7-61.4,233.1c-20.1,58.2-42,108.2-65.5,149.8
								c-23.5,41.5-55.4,75.8-95.7,103c-40.4,27.4-86.9,41-139.2,41l0,0c-73,0-138.5-24.1-196.4-72.3c-57.9-47.8-86.9-89-86.9-123.4
								s9.3-65.5,27.9-93.4c18.6-27.7,35.8-41.5,51.6-41.5s31,8.7,45.8,26.2c14.8,17.5,28.4,36.3,40.8,56.4
								c12.6,20.1,29.2,38.9,49.8,56.4c20.8,17.5,43.7,26.2,68.7,26.2c25.2,0,48.1-16.4,68.7-49.1c20.8-32.7,36.7-68.2,47.6-106.5
								l0,0c27.2-89.5,44.1-153.2,50.9-191.3l0,0c-74.2,45.8-134.5,68.7-181,68.7c-46.3,0-91.3-25.3-134.9-76
								c-43.6-50.9-65.5-98.9-65.5-144c0-45.3,12.3-102,36.8-170.2c24.7-68.3,56.3-136.5,94.9-204.7
								c38.8-68.1,87.9-126.7,147.3-175.7c59.6-49.2,119.3-73.8,179.2-73.8l0,0c40.4,0,74.9,10.1,103.2,30.2
								c28.4,20.1,49.1,47.2,62.2,81.1l0,0c22.8,58.9,34.2,125.5,34.2,199.6l0,0C536.5,4599.2,535.4,4613.4,533.2,4630.8z
								 M79.8,4894.4L79.8,4894.4c0,14.1,6,21.1,18.1,21.1l0,0c31.6,0,82.8-29,153.8-86.9c71-57.7,118.5-115,142.5-171.7l0,0v-31.2
								c0-70.8-6.5-113.9-19.6-129.1l0,0c-6.5-7.7-15.3-11.6-26.2-11.6l0,0c-52.4,0-110.2,55.1-173.5,165.4
								C111.5,4760.5,79.8,4841.9,79.8,4894.4z M828.3,3887.9L828.3,3887.9c0-45.8,18-68.7,53.9-68.7l0,0
								c29.4,0,63.2,24.6,101.5,73.8c38.3,49,57.4,91,57.4,125.9c0,34.9-7.1,84-21.4,147.3c-14.1,63.3-28.5,121.1-43.3,173.5
								c-14.8,52.4-36.8,126.8-66.2,223.3c-29.5,96.5-49.8,163.9-60.7,202.2l0,0c71-144,146-261.3,225.1-351.9
								c79-90.5,145.3-135.7,198.9-135.7l0,0c33.7,0,72.4,29.7,116.1,89.1c43.6,59.6,65.5,113,65.5,160.4
								c0,47.5-8.7,116.5-26.2,206.9c-17.5,90.6-48,177.9-91.6,261.8c-43.6,84.1-88.4,126.1-134.2,126.1l0,0
								c-35.9,0-53.9-25.6-53.9-76.8l0,0c0-37.1,10.8-97.7,32.5-181.8l0,0c31.7-125.5,47.6-201.9,47.6-229.1c0-27.4-4.4-41-13.1-41
								l0,0c-63.3,0-156,105.3-278.2,315.9l0,0c-41.5,72-76.1,125.5-104,160.4c-27.7,34.9-54.1,52.4-79.3,52.4s-55.5-20.2-90.9-60.7
								c-35.4-40.3-53.1-71.6-53.1-93.9c0-22.5,4.6-55.6,13.8-99.2c9.4-43.6,23.6-105.8,42.5-186.5c19.1-80.6,50.8-227,94.9-439.3
								C806.1,4030,828.3,3911.9,828.3,3887.9z M1725.2,4954.8c58.9-26.2,110.2-79,153.8-158.6c43.6-79.7,65.5-154.5,65.5-224.3
								c0-69.8-9.8-117.8-29.5-144l0,0c-47,27.4-93.6,84.6-140,171.7c-46.3,87.3-69.5,164-69.5,230.1
								C1705.6,4895.6,1712.2,4937.4,1725.2,4954.8L1725.2,4954.8z M1486.3,4846.8c0-136.3,42.3-265.6,126.9-387.9
								c84.4-122,168.1-183,251-183c82.9,0,152.8,29.1,209.7,87.4c56.7,58.4,85.1,128.8,85.1,211.2c0,82.2-19.7,166-59.2,251.2
								c-39.3,84.9-94.3,155.5-165.1,211.7c-70.8,56.2-146.6,84.3-227.3,84.3l0,0c-60.1,0-111.9-26.8-155.6-80.3
								C1508.2,4988,1486.3,4923.2,1486.3,4846.8L1486.3,4846.8z M2421.1,4954.8c58.9-26.2,110.2-79,153.8-158.6
								c43.6-79.7,65.5-154.5,65.5-224.3c0-69.8-9.8-117.8-29.5-144l0,0c-47,27.4-93.6,84.6-140,171.7
								c-46.3,87.3-69.5,164-69.5,230.1C2401.4,4895.6,2408,4937.4,2421.1,4954.8L2421.1,4954.8z M2182.2,4846.8
								c0-136.3,42.3-265.6,126.9-387.9c84.6-122,168.3-183,251-183c82.9,0,152.8,29.1,209.7,87.4c56.7,58.4,85.1,128.8,85.1,211.2
								c0,82.2-19.7,166-59.2,251.2c-39.1,84.9-94.2,155.5-165.1,211.7c-70.8,56.2-146.6,84.3-227.3,84.3l0,0
								c-60.1,0-111.9-26.8-155.6-80.3C2204,4988,2182.2,4923.2,2182.2,4846.8L2182.2,4846.8z M3408.2,4278.9L3408.2,4278.9
								c41.5,0,82.4,24.6,122.9,73.8c40.3,49,60.4,93.1,60.4,132.4l0,0c0,26.2-11.5,39.3-34.5,39.3l0,0c-13.1,0-32.1-5.1-57.1-15.4
								c-25-10.4-50.3-15.6-76-15.6s-63.4,8.7-113,26.2c-49.5,17.5-74.3,40.4-74.3,68.7l0,0c0,10.9,14.7,26.7,44.1,47.3
								c29.5,20.8,61.7,42.1,96.4,63.9c34.9,21.8,67.1,52.1,96.7,90.9c29.4,38.8,44.1,80.7,44.1,125.9c0,45.3-33,90.9-98.9,136.7
								c-66,45.8-143.4,68.7-232.4,68.7s-165-20.2-228.1-60.7c-63.3-40.3-94.9-81.7-94.9-124.4c0-42.5,17.5-63.7,52.4-63.7l0,0
								c14.1,0,31,5.5,50.6,16.4l0,0c54.5,31.6,122.4,47.3,203.7,47.3c81.2,0,121.8-10.9,121.8-32.7c0-21.6-15.5-45.9-46.6-72.8
								c-31-26.7-64.9-51.5-101.5-74.5c-36.6-22.8-70.4-50.9-101.5-84.1c-31-33.4-46.6-65.9-46.6-97.4l0,0
								c0-58.9,53.5-123,160.4-192.3C3263.1,4313.5,3347.1,4278.9,3408.2,4278.9z M4333.1,4583.5c0,53.4-36.3,101.3-108.8,143.7
								c-72.7,42.6-147.1,63.9-223.3,63.9c-76.4,0-139.1-5.5-188.3-16.4l0,0c-9.7,29.5-14.6,59-14.6,88.4c0,29.5,4.9,50.5,14.6,62.9
								c9.9,12.6,34.5,18.9,73.8,18.9l0,0c81.7,0,151.8-7.6,210.2-22.9c58.4-15.3,88.7-22.9,90.9-22.9l0,0c44.6,0,67,14.7,67,44.1
								l0,0c0,42.6-35.2,83-105.5,121.1c-70.3,38.3-151.6,57.4-243.9,57.4c-92.1,0-166-29-221.5-86.9
								c-55.7-57.7-83.6-126.1-83.6-205.2s23.2-161.7,69.5-248c46.5-86.3,104.6-158.5,174.5-216.8c69.8-58.4,139.3-87.6,208.4-87.6
								c69.3,0,133.4,34.1,192.3,102.2C4303.6,4447.7,4333.1,4515.7,4333.1,4583.5L4333.1,4583.5z M4143.3,4557
								c0-10.9-11.4-26.7-34.2-47.3c-23-20.6-44.6-31-64.7-31c-20.3,0-46.2,14.4-77.8,43.3c-31.6,28.9-61.5,66.2-89.9,112l0,0
								c9.7,1,23.9,1.5,42.5,1.5l0,0C4068.6,4635.6,4143.3,4609.4,4143.3,4557L4143.3,4557z"/>
						</g>
					</g>
				</g>
			</g>
		</g>
	</g>
</g>
</svg>
