
<svg
  version="1.0"
  xmlns="http://www.w3.org/2000/svg"
  xmlns:xlink="http://www.w3.org/1999/xlink"
  width="2400"
  height="1800"
>
  
  <rect
    x="0"
    y="0"
    width="100%"
    height="100%"
    fill="#FFF9F4"
    fill-opacity="1"
  ></rect>
  <svg
    version="1.0"
    xmlns="http://www.w3.org/2000/svg"
    xmlns:xlink="http://www.w3.org/1999/xlink"
    x="0"
    y="0"
    width="2400"
    height="1800"
    viewBox="0 0 340.000000 250.000000"
    preserveAspectRatio="xMidYMid meet"
    color-interpolation-filters="sRGB"
  >
    <defs><linearGradient id="92" x1="0%" y1="0%" x2="100%" y2="0%"><stop offset="0%" stop-color="#fa71cd"/> <stop offset="100%" stop-color="#9b59b6"/></linearGradient><linearGradient id="93" x1="0%" y1="0%" x2="100%" y2="0%"><stop offset="0%" stop-color="#f9d423"/> <stop offset="100%" stop-color="#f83600"/></linearGradient><linearGradient id="94" x1="0%" y1="0%" x2="100%" y2="0%"><stop offset="0%" stop-color="#0064d2"/> <stop offset="100%" stop-color="#1cb0f6"/></linearGradient><linearGradient id="95" x1="0%" y1="0%" x2="100%" y2="0%"><stop offset="0%" stop-color="#f00978"/> <stop offset="100%" stop-color="#3f51b1"/></linearGradient><linearGradient id="96" x1="0%" y1="0%" x2="100%" y2="0%"><stop offset="0%" stop-color="#7873f5"/> <stop offset="100%" stop-color="#ec77ab"/></linearGradient><linearGradient id="97" x1="0%" y1="0%" x2="100%" y2="0%"><stop offset="0%" stop-color="#f9d423"/> <stop offset="100%" stop-color="#e14fad"/></linearGradient><linearGradient id="98" x1="0%" y1="0%" x2="100%" y2="0%"><stop offset="0%" stop-color="#009efd"/> <stop offset="100%" stop-color="#2af598"/></linearGradient><linearGradient id="99" x1="0%" y1="0%" x2="100%" y2="0%"><stop offset="0%" stop-color="#ffcc00"/> <stop offset="100%" stop-color="#00b140"/></linearGradient><linearGradient id="100" x1="0%" y1="0%" x2="100%" y2="0%"><stop offset="0%" stop-color="#d51007"/> <stop offset="100%" stop-color="#ff8177"/></linearGradient><linearGradient id="102" x1="0%" y1="0%" x2="100%" y2="0%"><stop offset="0%" stop-color="#a2b6df"/> <stop offset="100%" stop-color="#0c3483"/></linearGradient><linearGradient id="103" x1="0%" y1="0%" x2="100%" y2="0%"><stop offset="0%" stop-color="#7ac5d8"/> <stop offset="100%" stop-color="#eea2a2"/></linearGradient><linearGradient id="104" x1="0%" y1="0%" x2="100%" y2="0%"><stop offset="0%" stop-color="#00ecbc"/> <stop offset="100%" stop-color="#007adf"/></linearGradient><linearGradient id="105" x1="0%" y1="0%" x2="100%" y2="0%"><stop offset="0%" stop-color="#b88746"/> <stop offset="100%" stop-color="#fdf5a6"/></linearGradient></defs> <g fill="#A0323F" class="icon-text-wrapper icon-svg-group iconsvg" transform="translate(123.2676010131836,65.03242111207831)"><g class="iconsvg-imagesvg" transform="translate(11.3323974609375,0)"><g><rect fill="#A0323F" fill-opacity="0" stroke-width="2" x="0" y="0" width="70.80000000000001" height="76.86795648491956" class="image-rect"/> <svg filter="url(#colors2988101354)" x="0" y="0" width="70.80000000000001" height="76.86795648491956" filtersec="colorsf9263180051" class="image-svg-svg primary" style="overflow: visible;"><svg xmlns="http://www.w3.org/2000/svg" xmlns:xlink="http://www.w3.org/1999/xlink" version="1.1" x="0px" y="0px" viewBox="-0.00017393194139003754 0.0002349112182855606 116.03833770751953 125.9837646484375" xml:space="preserve"><g><path d="M37.108,12.859c-1.626,0-2.945,1.318-2.945,2.945c0,1.626,1.318,2.945,2.945,2.945s2.945-1.318,2.945-2.945   C40.053,14.177,38.735,12.859,37.108,12.859z"/><path d="M113.849,77.818c-0.837-0.49-1.772-0.863-2.86-1.135c0.538-0.56,0.992-1.207,1.357-1.939   c0.423-0.848,0.486-1.812,0.179-2.716c-0.309-0.907-0.95-1.637-1.806-2.053c-5.392-2.624-11.994-4.108-20.745-4.67   c-2.621-1.453-5.776-2.712-9.601-3.589c-12.916-2.961-23.16-2.941-28.118-2.662c-0.751,0.045-1.472-0.223-2.019-0.744   c-0.548-0.523-0.846-1.231-0.839-1.991l0.325-34.312c0.003-0.215,0.124-21.49-13.885-21.983   C20.766-0.524,18.392,8.568,18.04,10.762c-0.816,0.637-2.043,1.352-4.417,1.909c-1.992,0.467-4.04,0.6-5.848,0.717   c-3.77,0.244-7.329,0.476-7.756,4.006c-0.084,0.697,0.068,1.733,1.271,2.715c3.28,2.677,13.804,3.795,20.505,4.151   c-1.778,8.375-11.17,55.437-1.118,70.059c8.013,11.658,17.597,14.489,27.885,15.403v5.476c-4.92,0.524-9.101,2.621-12.438,6.242   c-0.269,0.292-0.34,0.716-0.181,1.079s0.519,0.599,0.916,0.599H49.18c-0.408,0.377-0.808,0.77-1.193,1.188   c-0.269,0.292-0.34,0.715-0.181,1.079c0.159,0.363,0.519,0.599,0.916,0.599h28.785c0.392,0,0.748-0.229,0.91-0.586   c0.162-0.356,0.102-0.775-0.156-1.07c-2.831-3.252-5.897-5.234-9.351-6.039v-8.464c15.237-1.979,37.844-9.909,46.614-26.2   C116.631,81.569,115.895,79.018,113.849,77.818z M20.698,16.526c-0.771,0.736-1.85,1.1-3.277,1.1c-0.455,0-0.944-0.037-1.472-0.11   c-0.547-0.076-0.928-0.581-0.852-1.129c0.075-0.547,0.578-0.933,1.129-0.852c1.513,0.212,2.554,0.059,3.089-0.454   c0.401-0.383,1.033-0.366,1.414,0.031C21.111,15.511,21.096,16.144,20.698,16.526z M39.351,121.117   c2.874-2.402,6.32-3.746,10.275-4.004c0.525-0.034,0.935-0.471,0.935-0.998v-6.24c1.483,0.099,2.978,0.17,4.484,0.23v6.133   c0,0.485,0.349,0.9,0.826,0.984c1.136,0.201,2.208,0.554,3.25,1.037c-2.703,0.456-5.167,1.411-7.375,2.859H39.351z M57.046,115.422   v-5.242l3.381,0.127v6.359C59.338,116.119,58.21,115.696,57.046,115.422z M75.161,123.984H51.216   c2.875-2.402,6.321-3.746,10.275-4.004c0.525-0.034,0.935-0.471,0.935-0.998v-8.658c1.375-0.021,2.877-0.11,4.484-0.27v9.05   c0,0.485,0.349,0.9,0.826,0.984C70.428,120.563,72.873,121.843,75.161,123.984z M113.763,82.677   c-10.231,19.007-40.248,26.173-53.333,25.63c-1.014-0.042-2.02-0.078-3.017-0.114c-13.632-0.492-25.404-0.917-35.089-15.007   c-9.604-13.972,0.014-61.802,1.499-68.836l3.641,0.008l0.002,0.009c2.541-0.372,4.059-2.053,4.059-4.495   c0-2.905-2.555-4.396-4.293-4.91c-0.606-1.547-2.492-5.714-5.292-6.005c-0.543-0.056-0.985-0.012-1.371,0.089   c1.18-2.873,4.702-7.364,15.199-7.023c12.06,0.425,11.958,19.764,11.955,19.962l-0.325,34.315   c-0.013,1.301,0.519,2.561,1.458,3.457c0.95,0.907,2.192,1.384,3.511,1.294c4.85-0.27,14.882-0.29,27.56,2.615   c3.731,0.855,6.776,2.089,9.282,3.506c0.006,0.003,0.011,0.007,0.018,0.01c4.725,2.677,7.496,6.019,9.089,8.797   c2.732,4.767,2.823,9.257,2.07,11.653c-1.417,4.514-6.352,10.022-32.729,5.746c-22.576-3.66-24.452-18.028-24.521-18.636   c-0.058-0.548-0.543-0.943-1.101-0.888c-0.549,0.059-0.946,0.551-0.888,1.101c0.018,0.164,2.036,16.481,26.188,20.397   c6.354,1.029,11.8,1.549,16.384,1.549c10.741,0,16.746-2.853,18.573-8.67c0.916-2.915,0.808-7.927-2.243-13.248   c-1.318-2.299-3.365-4.957-6.518-7.369c6.677,0.692,11.94,2.032,16.313,4.16c0.373,0.181,0.652,0.5,0.787,0.897   c0.135,0.395,0.108,0.813-0.074,1.18c-0.567,1.136-1.378,1.964-2.479,2.532c-0.392,0.202-0.604,0.637-0.524,1.07   s0.435,0.764,0.873,0.813c1.878,0.208,3.279,0.613,4.411,1.276C113.932,80.185,114.348,81.591,113.763,82.677z"/></g></svg></svg> <defs><filter id="colors2988101354"><feColorMatrix type="matrix" values="0 0 0 0 0.625  0 0 0 0 0.1953125  0 0 0 0 0.24609375  0 0 0 1 0" class="icon-feColorMatrix "/></filter> <filter id="colorsf9263180051"><feColorMatrix type="matrix" values="0 0 0 0 0.99609375  0 0 0 0 0.99609375  0 0 0 0 0.99609375  0 0 0 1 0" class="icon-fecolormatrix"/></filter> <filter id="colorsb9717038095"><feColorMatrix type="matrix" values="0 0 0 0 0  0 0 0 0 0  0 0 0 0 0  0 0 0 1 0" class="icon-fecolormatrix"/></filter></defs></g></g> <g transform="translate(0,83.86795806884766)"><g fill-rule="" class="tp-name iconsvg-namesvg"><g transform="scale(0.5199999999999996)"><g><path d="M27.3-20.28L27.3-20.28Q28.28-19.18 28.28-17.62 28.28-16.05 26.98-13.78L26.98-13.78Q25.35-9.88 24.12-4.09 22.88 1.69 21.68 5.17 20.48 8.64 19.08 11.12 17.68 13.59 15.28 15.21 12.87 16.84 9.75 16.84L9.75 16.84Q5.4 16.84 1.95 13.97-1.5 11.12-1.5 9.07-1.5 7.02-0.39 5.36 0.72 3.71 1.66 3.71 2.6 3.71 3.48 4.75 4.36 5.79 5.1 6.99 5.85 8.19 7.08 9.23 8.32 10.27 9.81 10.27 11.31 10.27 12.54 8.32 13.78 6.37 14.43 4.09L14.43 4.09Q16.05-1.24 16.45-3.51L16.45-3.51Q12.03-0.78 9.26-0.78 6.5-0.78 3.9-3.8 1.3-6.83 1.3-9.52 1.3-12.22 2.76-16.28 4.23-20.35 6.53-24.41 8.84-28.47 12.38-31.39 15.93-34.32 19.5-34.32L19.5-34.32Q21.91-34.32 23.6-33.12 25.29-31.92 26.07-29.9L26.07-29.9Q27.43-26.39 27.43-21.97L27.43-21.97Q27.43-21.32 27.3-20.28ZM9.29-9.81L9.29-9.81Q9.29-8.97 10.01-8.97L10.01-8.97Q11.89-8.97 16.12-12.42 20.35-15.86 21.78-19.24L21.78-19.24 21.78-20.48Q21.78-24.7 21-25.61L21-25.61Q20.61-26.07 19.96-26.07L19.96-26.07Q16.84-26.07 13.07-19.5 9.29-12.94 9.29-9.81ZM39.02-49.79L39.02-49.79Q39.02-52.52 41.16-52.52L41.16-52.52Q42.91-52.52 45.19-49.59 47.47-46.67 47.47-44.59 47.47-42.51 46.62-38.74 45.78-34.97 44.9-31.85 44.02-28.73 42.27-22.98 40.51-17.23 39.86-14.95L39.86-14.95Q44.09-23.53 48.8-28.93 53.51-34.32 56.7-34.32L56.7-34.32Q58.71-34.32 61.31-30.78 63.91-27.23 63.91-24.41 63.91-21.58 62.87-16.19 61.83-10.79 59.23-5.79 56.63-0.78 53.9-0.78L53.9-0.78Q51.76-0.78 51.76-3.83L51.76-3.83Q51.76-6.04 53.05-11.05L53.05-11.05Q54.94-18.53 54.94-20.15 54.94-21.78 54.42-21.78L54.42-21.78Q50.65-21.78 43.37-9.23L43.37-9.23Q40.9-4.94 39.24-2.86 37.59-0.78 36.09-0.78 34.59-0.78 32.48-3.19 30.37-5.59 30.37-6.92 30.37-8.26 30.92-10.86 31.48-13.46 32.61-18.27 33.75-23.07 36.38-35.72 39.02-48.36 39.02-49.79ZM74.65-7.41Q78.16-8.97 80.76-13.71 83.36-18.46 83.36-22.62 83.36-26.78 82.19-28.34L82.19-28.34Q79.39-26.71 76.63-21.52 73.87-16.32 73.87-12.38 73.87-8.45 74.65-7.41L74.65-7.41ZM65.16-11.7Q65.16-19.82 70.2-27.11 75.23-34.38 80.17-34.38 85.11-34.38 88.5-30.91 91.88-27.43 91.88-22.52 91.88-17.62 89.53-12.54 87.19-7.48 82.97-4.13 78.75-0.78 73.94-0.78L73.94-0.78Q70.36-0.78 67.76-3.97 65.16-7.15 65.16-11.7L65.16-11.7ZM102.29-7.41Q105.8-8.97 108.4-13.71 111-18.46 111-22.62 111-26.78 109.83-28.34L109.83-28.34Q107.03-26.71 104.27-21.52 101.51-16.32 101.51-12.38 101.51-8.45 102.29-7.41L102.29-7.41ZM92.8-11.7Q92.8-19.82 97.84-27.11 102.88-34.38 107.81-34.38 112.75-34.38 116.14-30.91 119.52-27.43 119.52-22.52 119.52-17.62 117.17-12.54 114.84-7.48 110.61-4.13 106.39-0.78 101.58-0.78L101.58-0.78Q98-0.78 95.4-3.97 92.8-7.15 92.8-11.7L92.8-11.7ZM141.5-34.26L141.5-34.26Q143.97-34.26 146.38-31.33 148.78-28.41 148.78-26.07L148.78-26.07Q148.78-24.51 147.41-24.51L147.41-24.51Q146.63-24.51 145.14-25.12 143.65-25.74 142.12-25.74 140.59-25.74 137.63-24.7 134.68-23.66 134.68-21.97L134.68-21.97Q134.68-21.32 136.43-20.09 138.19-18.85 140.26-17.55 142.34-16.25 144.1-13.94 145.85-11.63 145.85-8.94 145.85-6.24 141.92-3.51 137.99-0.78 132.69-0.78 127.39-0.78 123.63-3.19 119.86-5.59 119.86-8.13 119.86-10.66 121.94-10.66L121.94-10.66Q122.78-10.66 123.95-10.01L123.95-10.01Q127.2-8.13 132.04-8.13 136.88-8.13 136.88-9.43 136.88-10.72 135.03-12.32 133.18-13.91 131-15.28 128.82-16.64 126.97-18.62 125.12-20.61 125.12-22.49L125.12-22.49Q125.12-26 131.49-30.13 137.86-34.26 141.5-34.26ZM178.24-22.16Q178.24-18.98 173.92-16.45 169.59-13.91 165.05-13.91 160.5-13.91 157.57-14.56L157.57-14.56Q156.99-12.8 156.99-11.05 156.99-9.29 157.57-8.55 158.16-7.8 160.5-7.8L160.5-7.8Q165.37-7.8 168.85-8.71 172.33-9.62 172.46-9.62L172.46-9.62Q175.12-9.62 175.12-7.87L175.12-7.87Q175.12-5.33 170.93-3.06 166.74-0.78 161.24-0.78 155.75-0.78 152.44-4.23 149.12-7.67 149.12-12.38 149.12-17.09 151.88-22.23 154.65-27.37 158.81-30.84 162.97-34.32 167.09-34.32 171.22-34.32 174.73-30.26 178.24-26.2 178.24-22.16L178.24-22.16ZM170.7-23.21Q170.7-23.86 169.34-25.09 167.97-26.32 166.77-26.32 165.56-26.32 163.68-24.6 161.8-22.88 160.11-20.15L160.11-20.15Q160.69-20.09 161.8-20.09L161.8-20.09Q170.7-20.09 170.7-23.21L170.7-23.21Z" transform="translate(1.5, 52.52000045776367)"/></g> </g></g> </g></g><defs v-gra="od"/>
  </svg>
</svg>


