<svg xmlns="http://www.w3.org/2000/svg" xmlns:xlink="http://www.w3.org/1999/xlink" version="1.0" x="0" y="0" width="2400" height="730.6863903205739" viewBox="25.858697509765626 81.11580047607421 288.28260498046876 87.76840667724609" preserveAspectRatio="xMidYMid meet" color-interpolation-filters="sRGB"><g><defs><linearGradient id="92" x1="0%" y1="0%" x2="100%" y2="0%"><stop offset="0%" stop-color="#fa71cd"></stop> <stop offset="100%" stop-color="#9b59b6"></stop></linearGradient><linearGradient id="93" x1="0%" y1="0%" x2="100%" y2="0%"><stop offset="0%" stop-color="#f9d423"></stop> <stop offset="100%" stop-color="#f83600"></stop></linearGradient><linearGradient id="94" x1="0%" y1="0%" x2="100%" y2="0%"><stop offset="0%" stop-color="#0064d2"></stop> <stop offset="100%" stop-color="#1cb0f6"></stop></linearGradient><linearGradient id="95" x1="0%" y1="0%" x2="100%" y2="0%"><stop offset="0%" stop-color="#f00978"></stop> <stop offset="100%" stop-color="#3f51b1"></stop></linearGradient><linearGradient id="96" x1="0%" y1="0%" x2="100%" y2="0%"><stop offset="0%" stop-color="#7873f5"></stop> <stop offset="100%" stop-color="#ec77ab"></stop></linearGradient><linearGradient id="97" x1="0%" y1="0%" x2="100%" y2="0%"><stop offset="0%" stop-color="#f9d423"></stop> <stop offset="100%" stop-color="#e14fad"></stop></linearGradient><linearGradient id="98" x1="0%" y1="0%" x2="100%" y2="0%"><stop offset="0%" stop-color="#009efd"></stop> <stop offset="100%" stop-color="#2af598"></stop></linearGradient><linearGradient id="99" x1="0%" y1="0%" x2="100%" y2="0%"><stop offset="0%" stop-color="#ffcc00"></stop> <stop offset="100%" stop-color="#00b140"></stop></linearGradient><linearGradient id="100" x1="0%" y1="0%" x2="100%" y2="0%"><stop offset="0%" stop-color="#d51007"></stop> <stop offset="100%" stop-color="#ff8177"></stop></linearGradient><linearGradient id="102" x1="0%" y1="0%" x2="100%" y2="0%"><stop offset="0%" stop-color="#a2b6df"></stop> <stop offset="100%" stop-color="#0c3483"></stop></linearGradient><linearGradient id="103" x1="0%" y1="0%" x2="100%" y2="0%"><stop offset="0%" stop-color="#7ac5d8"></stop> <stop offset="100%" stop-color="#eea2a2"></stop></linearGradient><linearGradient id="104" x1="0%" y1="0%" x2="100%" y2="0%"><stop offset="0%" stop-color="#00ecbc"></stop> <stop offset="100%" stop-color="#007adf"></stop></linearGradient><linearGradient id="105" x1="0%" y1="0%" x2="100%" y2="0%"><stop offset="0%" stop-color="#b88746"></stop> <stop offset="100%" stop-color="#fdf5a6"></stop></linearGradient></defs><g fill="#A0323F" class="icon-text-wrapper icon-svg-group iconsvg" transform="translate(28.68499755859375,83.94209671020508)"><g class="iconsvg-imagesvg" transform="translate(0,0)"><g><rect fill="#A0323F" fill-opacity="0" stroke-width="2" x="0" y="0" width="70.80000000000001" height="68.33581066733588" class="image-rect"></rect> <svg filter="url(#colors117197701)" x="0" y="0" width="70.80000000000001" height="68.33581066733588" filtersec="colorsf2402192271" class="image-svg-svg primary" style="overflow: visible;"><svg xmlns="http://www.w3.org/2000/svg" xmlns:xlink="http://www.w3.org/1999/xlink" version="1.1" x="0px" y="0px" viewBox="5.000190734863281 6.565879821777344 89.99996185302734 86.86792755126953" enable-background="new 0 0 100 100" xml:space="preserve"><g d-rs="4" transform="matrix(-1,0,0,1,100.0003,0)"><path d="M47.633,93.433c-4.917,0.019-40.465,0.022-42.547-39.731C3.385,21.225,27.271,5.48,49.198,6.624  C71.784,7.802,96.137,23.515,94.959,53.76c-0.275,7.064-2.109,9.427-4.714,9.427c-2.604,0-4.842-2.113-4.714-4.713  c1.375-27.692-18.248-42.422-36.333-42.422c-16,0-34.685,9.861-34.685,37.65c0,28.105,25.347,30.301,33.115,30.304  c0.002,0,0.004,0,0.006,0c5.111,0,10.533-2.614,14.507-6.996c3.896-4.297,8.258-12.282,6.915-25.931  c-1.142-11.595-9.303-17.125-16.56-18.433c-6.716-1.212-15.032,0.755-18.508,7.867c-3.867,7.908-3.929,16.315-0.164,21.94  c2.56,3.823,6.586,5.771,11.341,5.458c5.034-0.32,8.159-2.717,9.289-7.121c1.271-4.958-0.604-9.808-1.735-10.527  c-2.405-0.918-4.451-0.928-5.254,0.012c-0.546,0.639-0.744,2,0.113,3.476c1.308,2.25,0.542,5.136-1.709,6.443  c-2.252,1.307-5.136,0.541-6.443-1.71c-2.75-4.735-2.061-10.226,0.866-14.326c3.799-5.324,9.471-5.126,15.901-2.653  c6.391,2.458,8.913,8.72,7.838,19.446c-0.97,9.676-6.977,16.18-18.264,16.367c-8.137,0.135-15.334-2.987-19.774-9.622  c-5.628-8.406-7.825-18.453-0.473-31.326c5.513-9.652,16.39-15.21,28.65-13.003c13.38,2.412,22.906,12.927,24.27,26.789  c1.68,17.086-2.292,22.905-7.741,31.613C66.173,89.001,55.361,93.433,47.633,93.433z"></path></g></svg></svg> <defs><filter id="colors117197701"><feColorMatrix type="matrix" values="0 0 0 0 0.625  0 0 0 0 0.1953125  0 0 0 0 0.24609375  0 0 0 1 0" class="icon-feColorMatrix "></feColorMatrix></filter> <filter id="colorsf2402192271"><feColorMatrix type="matrix" values="0 0 0 0 0.99609375  0 0 0 0 0.99609375  0 0 0 0 0.99609375  0 0 0 1 0" class="icon-fecolormatrix"></feColorMatrix></filter> <filter id="colorsb1288070820"><feColorMatrix type="matrix" values="0 0 0 0 0  0 0 0 0 0  0 0 0 0 0  0 0 0 1 0" class="icon-fecolormatrix"></feColorMatrix></filter></defs></g></g> <g transform="translate(74.16999816894531,21.33580780029297)"><g fill-rule="" stroke="#A0323F" class="tp-name iconsvg-namesvg"><g transform="scale(1)"><g><path d="M23.92-7.67C23.92 0.13 21.91 4.55 16.19 4.55 9.62 4.55 10.92 0.33 7.93 0.33 5.46 0.33 2.27 1.82 2.27 5.13 2.27 8.78 6.89 12.68 15.99 12.68 28.14 12.68 32.3 6.96 33.54 1.1 35.43-7.74 36.4-26.85 36.4-29.05 36.4-34.26 34.45-35.75 29.96-35.75L26.98-35.75C26.46-35.75 26.2-35.62 26.13-35.1 26.07-34.58 25.94-30.94 25.87-31.07 24.96-34.06 22.69-36.4 17.55-36.4 5.13-36.4 2.15-24.96 2.15-16.64 2.15-6.44 6.96-1.95 14.11-1.95 18.72-1.95 21.78-3.83 23.92-7.67ZM18.46-10.6C14.95-10.6 13.59-12.74 13.59-17.03 13.59-19.63 14.11-27.76 20.48-27.76 23.66-27.76 25.29-25.74 25.29-20.54 25.29-17.29 24.64-10.6 18.46-10.6ZM61.7-8.06C61.63-7.35 61.57-6.57 61.57-5.72 61.57-2.08 62.8 0 68.27 0L70.34 0C71.84 0 71.97-0.13 72.1-2.02 72.62-9.88 73.85-21.91 73.85-24.64 73.85-33.48 70.41-36.4 63.13-36.4 58.32-36.4 55.39-34.97 52.8-30.68 53.25-36.4 53.58-40.95 53.58-42.51 53.58-45.44 52.02-48.1 46.81-48.1L44.28-48.1C43.7-48.1 43.44-48.1 43.24-47.91 43.05-47.71 42.98-47.26 42.91-46.22 41.35-18.46 40.05-10.08 40.05-6.17 40.05-2.21 41.35 0 46.69 0L49.02 0C50.13 0 50.45-0.26 50.45-1.3 50.45-2.47 51.43-13.39 51.69-16.96 52.14-23.4 54.81-27.69 58.97-27.69 62.09-27.69 62.94-25.61 62.94-23.34 62.94-21.19 62.22-13.78 61.7-8.06ZM92.2 0.65C108.51 0.65 111.63-13 111.63-21.19 111.63-30.81 107.28-36.4 96.36-36.4 81.47-36.4 76.86-26.07 76.86-15.6 76.86-6.57 80.3 0.65 92.2 0.65ZM95.25-27.76C99.09-27.76 100.58-25.09 100.58-20.8 100.58-16.77 99.28-8 93.17-8 89.79-8 87.91-10.6 87.91-16.32 87.91-20.02 88.69-27.76 95.25-27.76ZM129.07 0.65C145.38 0.65 148.5-13 148.5-21.19 148.5-30.81 144.15-36.4 133.23-36.4 118.34-36.4 113.73-26.07 113.73-15.6 113.73-6.57 117.17 0.65 129.07 0.65ZM132.13-27.76C135.96-27.76 137.45-25.09 137.45-20.8 137.45-16.77 136.16-8 130.04-8 126.66-8 124.78-10.6 124.78-16.32 124.78-20.02 125.56-27.76 132.13-27.76ZM166.53-36.4C159.38-36.4 151.64-33.28 151.64-24.38 151.64-12.29 165.88-14.43 165.88-9.49 165.88-7.67 163.86-7.35 161.72-7.35 156-7.35 155.28-9.75 153.13-9.75 150.6-9.75 149.37-6.31 149.37-4.81 149.37-0.72 158.27 0.65 163.15 0.65 171.92 0.65 176.41-3.77 176.41-10.01 176.41-21.64 160.94-19.63 160.94-25.03 160.94-26.78 162.56-28.08 164.97-28.08 168.54-28.08 168.67-25.29 168.74-23.73 168.74-23.01 169.06-22.82 170.3-22.82 174.78-22.82 177.25-24.89 177.25-28.67 177.25-33.15 173.81-36.4 166.53-36.4ZM194.95 0.65C200.73 0.65 207.69-1.36 207.69-6.44 207.69-10.34 203.59-11.05 202.75-11.05 200.93-11.05 200.99-7.48 196.44-7.48 192.02-7.48 190.27-10.79 190.27-14.11 194.49-14.11 210.61-14.76 210.61-26.65 210.61-31.98 207.43-36.4 198.39-36.4 181.62-36.4 179.09-21.13 179.09-14.56 179.09-2.73 187.41 0.65 194.95 0.65ZM196.18-27.76C198.39-27.76 199.5-26.13 199.5-24.38 199.5-21.19 195.79-19.37 190.46-19.3 190.92-23.01 192.35-27.76 196.18-27.76Z" transform="translate(-2.1500000953674316, 48.099998474121094)" stroke-width="1.4" stroke-linejoin="round" mask="url(#EiVUAvtpuYW5wotTYNKYi)"></path></g> </g></g> </g></g><mask id="EiVUAvtpuYW5wotTYNKYi"><path d="M23.92-7.67C23.92 0.13 21.91 4.55 16.19 4.55 9.62 4.55 10.92 0.33 7.93 0.33 5.46 0.33 2.27 1.82 2.27 5.13 2.27 8.78 6.89 12.68 15.99 12.68 28.14 12.68 32.3 6.96 33.54 1.1 35.43-7.74 36.4-26.85 36.4-29.05 36.4-34.26 34.45-35.75 29.96-35.75L26.98-35.75C26.46-35.75 26.2-35.62 26.13-35.1 26.07-34.58 25.94-30.94 25.87-31.07 24.96-34.06 22.69-36.4 17.55-36.4 5.13-36.4 2.15-24.96 2.15-16.64 2.15-6.44 6.96-1.95 14.11-1.95 18.72-1.95 21.78-3.83 23.92-7.67ZM18.46-10.6C14.95-10.6 13.59-12.74 13.59-17.03 13.59-19.63 14.11-27.76 20.48-27.76 23.66-27.76 25.29-25.74 25.29-20.54 25.29-17.29 24.64-10.6 18.46-10.6ZM61.7-8.06C61.63-7.35 61.57-6.57 61.57-5.72 61.57-2.08 62.8 0 68.27 0L70.34 0C71.84 0 71.97-0.13 72.1-2.02 72.62-9.88 73.85-21.91 73.85-24.64 73.85-33.48 70.41-36.4 63.13-36.4 58.32-36.4 55.39-34.97 52.8-30.68 53.25-36.4 53.58-40.95 53.58-42.51 53.58-45.44 52.02-48.1 46.81-48.1L44.28-48.1C43.7-48.1 43.44-48.1 43.24-47.91 43.05-47.71 42.98-47.26 42.91-46.22 41.35-18.46 40.05-10.08 40.05-6.17 40.05-2.21 41.35 0 46.69 0L49.02 0C50.13 0 50.45-0.26 50.45-1.3 50.45-2.47 51.43-13.39 51.69-16.96 52.14-23.4 54.81-27.69 58.97-27.69 62.09-27.69 62.94-25.61 62.94-23.34 62.94-21.19 62.22-13.78 61.7-8.06ZM92.2 0.65C108.51 0.65 111.63-13 111.63-21.19 111.63-30.81 107.28-36.4 96.36-36.4 81.47-36.4 76.86-26.07 76.86-15.6 76.86-6.57 80.3 0.65 92.2 0.65ZM95.25-27.76C99.09-27.76 100.58-25.09 100.58-20.8 100.58-16.77 99.28-8 93.17-8 89.79-8 87.91-10.6 87.91-16.32 87.91-20.02 88.69-27.76 95.25-27.76ZM129.07 0.65C145.38 0.65 148.5-13 148.5-21.19 148.5-30.81 144.15-36.4 133.23-36.4 118.34-36.4 113.73-26.07 113.73-15.6 113.73-6.57 117.17 0.65 129.07 0.65ZM132.13-27.76C135.96-27.76 137.45-25.09 137.45-20.8 137.45-16.77 136.16-8 130.04-8 126.66-8 124.78-10.6 124.78-16.32 124.78-20.02 125.56-27.76 132.13-27.76ZM166.53-36.4C159.38-36.4 151.64-33.28 151.64-24.38 151.64-12.29 165.88-14.43 165.88-9.49 165.88-7.67 163.86-7.35 161.72-7.35 156-7.35 155.28-9.75 153.13-9.75 150.6-9.75 149.37-6.31 149.37-4.81 149.37-0.72 158.27 0.65 163.15 0.65 171.92 0.65 176.41-3.77 176.41-10.01 176.41-21.64 160.94-19.63 160.94-25.03 160.94-26.78 162.56-28.08 164.97-28.08 168.54-28.08 168.67-25.29 168.74-23.73 168.74-23.01 169.06-22.82 170.3-22.82 174.78-22.82 177.25-24.89 177.25-28.67 177.25-33.15 173.81-36.4 166.53-36.4ZM194.95 0.65C200.73 0.65 207.69-1.36 207.69-6.44 207.69-10.34 203.59-11.05 202.75-11.05 200.93-11.05 200.99-7.48 196.44-7.48 192.02-7.48 190.27-10.79 190.27-14.11 194.49-14.11 210.61-14.76 210.61-26.65 210.61-31.98 207.43-36.4 198.39-36.4 181.62-36.4 179.09-21.13 179.09-14.56 179.09-2.73 187.41 0.65 194.95 0.65ZM196.18-27.76C198.39-27.76 199.5-26.13 199.5-24.38 199.5-21.19 195.79-19.37 190.46-19.3 190.92-23.01 192.35-27.76 196.18-27.76Z" stroke-width="1.4" stroke-linejoin="round" stroke="#000" fill="#fff"></path></mask><defs v-gra="od"></defs></g></svg>