<?xml version="1.0" encoding="utf-8"?>
<svg viewBox="139.4 95.44414367675782 61.2 59.11170501708985" color-interpolation-filters="sRGB" xmlns="http://www.w3.org/2000/svg">
  <g transform="matrix(0.8833329677581787, 0, 0, 0.8833329677581787, 19.83339500427246, 14.583378791809082)">
    <g class="imagesvg isNoFont" transform="translate(140,96.04414749145508)">
      <g>
        <rect fill="#A0323F" fill-opacity="0" stroke-width="2" x="0" y="0" width="60" height="57.91170395536938" class="image-rect"/>
        <svg filter="url(#colors9609384312)" x="0" y="0" width="60" height="57.91170395536938" filtersec="colorsf1570990693" class="image-svg-svg primary" style="overflow: visible;">
          <svg xmlns="http://www.w3.org/2000/svg" version="1.1" x="0px" y="0px" viewBox="5.000190734863281 6.565879821777344 89.99996185302734 86.86792755126953" enable-background="new 0 0 100 100">
            <g d-rs="4" transform="matrix(-1,0,0,1,100.0003,0)">
              <path d="M47.633,93.433c-4.917,0.019-40.465,0.022-42.547-39.731C3.385,21.225,27.271,5.48,49.198,6.624  C71.784,7.802,96.137,23.515,94.959,53.76c-0.275,7.064-2.109,9.427-4.714,9.427c-2.604,0-4.842-2.113-4.714-4.713  c1.375-27.692-18.248-42.422-36.333-42.422c-16,0-34.685,9.861-34.685,37.65c0,28.105,25.347,30.301,33.115,30.304  c0.002,0,0.004,0,0.006,0c5.111,0,10.533-2.614,14.507-6.996c3.896-4.297,8.258-12.282,6.915-25.931  c-1.142-11.595-9.303-17.125-16.56-18.433c-6.716-1.212-15.032,0.755-18.508,7.867c-3.867,7.908-3.929,16.315-0.164,21.94  c2.56,3.823,6.586,5.771,11.341,5.458c5.034-0.32,8.159-2.717,9.289-7.121c1.271-4.958-0.604-9.808-1.735-10.527  c-2.405-0.918-4.451-0.928-5.254,0.012c-0.546,0.639-0.744,2,0.113,3.476c1.308,2.25,0.542,5.136-1.709,6.443  c-2.252,1.307-5.136,0.541-6.443-1.71c-2.75-4.735-2.061-10.226,0.866-14.326c3.799-5.324,9.471-5.126,15.901-2.653  c6.391,2.458,8.913,8.72,7.838,19.446c-0.97,9.676-6.977,16.18-18.264,16.367c-8.137,0.135-15.334-2.987-19.774-9.622  c-5.628-8.406-7.825-18.453-0.473-31.326c5.513-9.652,16.39-15.21,28.65-13.003c13.38,2.412,22.906,12.927,24.27,26.789  c1.68,17.086-2.292,22.905-7.741,31.613C66.173,89.001,55.361,93.433,47.633,93.433z"/>
            </g>
          </svg>
        </svg>
        <defs>
          <filter id="colors9609384312">
            <feColorMatrix type="matrix" values="0 0 0 0 0.625  0 0 0 0 0.1953125  0 0 0 0 0.24609375  0 0 0 1 0" class="icon-feColorMatrix "/>
          </filter>
        </defs>
      </g>
    </g>
  </g>
</svg>